<?xml version="1.0" encoding="UTF-8" standalone="yes"?>
<!DOCTYPE svg PUBLIC "-//W3C//DTD SVG 1.1//EN" "http://www.w3.org/Graphics/SVG/1.1/DTD/svg11.dtd">

<svg width="500" height="500" viewBox="0 0 500 500" xmlns="http://www.w3.org/2000/svg" xmlns:xlink="http://www.w3.org/1999/xlink" version="1.1" baseProfile="full">
    <g transform="scale(1,-1) translate(0,-500)">
        <path d="M 2.000000 1.000000 L 502.000000 1.000000 C 502.000000 1.000000 502.000000 1.000000 502.000000 1.000000 L 502.000000 501.000000 C 502.000000 501.000000 502.000000 501.000000 502.000000 501.000000 L 2.000000 501.000000 C 2.000000 501.000000 2.000000 501.000000 2.000000 501.000000 L 2.000000 1.000000 C 2.000000 1.000000 2.000000 1.000000 2.000000 1.000000 Z" transform="scale(1.000000,1.000000) translate(-2.000000,-1.000000)" fill="#ffffff" opacity="1.000000"></path>
        <path d="M 92.539016 77.128212 L 92.539016 41.406262 L 54.766984 41.406262 L 92.482848 77.065022 Z M 98.619049 109.276563 L 112.099030 109.276563 L 112.099030 1.022486 L 92.574121 1.022486 L 92.574121 22.464081 L 34.511910 22.464081 L 21.312763 10.072328 L 21.312763 1.036529 L 1.500000 1.036529 L 1.500000 18.757087 L 98.619050 109.325707 L 98.619050 109.325707 Z" transform="scale(1.000000,1.000000) translate(61.000000,222.000000)" opacity="1.000000"></path>
        <path d="M 37.677037 1.643366 C 14.747028 1.643366 1.168755 13.122413 1.168755 33.939154 C 1.168755 53.344709 13.750071 67.547834 35.142519 67.547834 C 35.656720 67.549508 36.684955 67.530764 37.198753 67.510350 C 37.712551 67.489936 38.739033 67.427043 39.251480 67.384579 C 39.763927 67.342114 40.786760 67.235188 41.296909 67.170751 C 41.807059 67.106314 42.824355 66.955553 43.331267 66.869262 C 43.838178 66.782972 44.848059 66.588653 45.350796 66.480669 L 45.350796 95.792606 L 65.121435 95.792606 L 65.121435 5.694374 C 58.304219 2.836904 49.703711 1.643366 37.677037 1.643366 Z M 45.399942 56.405788 C 45.098200 56.478109 44.491377 56.608036 44.186475 56.665603 C 43.881574 56.723170 43.269152 56.823445 42.961813 56.866122 C 42.654473 56.908799 42.037901 56.979184 41.728851 57.006871 C 41.419800 57.034558 40.800535 57.074887 40.490504 57.087518 C 40.180473 57.100148 39.559980 57.110326 39.249701 57.107870 C 27.503864 57.107870 22.750766 48.352904 22.750766 35.216943 C 22.750766 21.371880 27.665343 13.206662 38.688036 13.206662 C 39.029649 13.198815 39.712996 13.207811 40.054284 13.224647 C 40.395572 13.241483 41.076486 13.299789 41.415668 13.341220 C 41.754850 13.382651 42.429778 13.489962 42.765084 13.555771 C 43.100390 13.621581 43.765810 13.777337 44.095490 13.867182 C 44.425170 13.957027 45.077610 14.160416 45.399943 14.273827 L 45.399943 56.398767 Z" transform="scale(1.000000,1.000000) translate(186.000000,221.000000)" opacity="1.000000"></path>
        <path d="M 1.667402 1.022486 L 1.667402 94.799623 L 21.325707 94.799623 L 21.374858 1.022486 Z" transform="scale(1.000000,1.000000) translate(269.000000,222.000000)" opacity="1.000000"></path>
        <path d="M 67.345087 28.476943 L 22.566276 28.476943 C 23.970441 19.483268 30.815744 14.273818 41.438249 14.273818 C 48.290573 14.273818 55.837958 15.930732 60.450638 17.938688 L 65.484569 6.340287 C 58.463745 3.384520 48.290573 1.608252 37.941879 1.608252 C 13.762158 1.643366 1.166799 15.607783 1.166799 35.020356 C 1.166799 55.022681 13.888532 68.018225 35.695209 68.018225 C 56.806824 68.018225 67.990996 56.419825 67.990996 36.656209 C 67.996779 36.245411 67.993081 35.423742 67.983601 35.013012 C 67.974121 34.602283 67.939906 33.781318 67.915176 33.371224 C 67.890447 32.961131 67.825761 32.142003 67.785816 31.733111 C 67.745871 31.324219 67.650804 30.508059 67.595699 30.100933 C 67.540593 29.693807 67.415276 28.881742 67.345087 28.476943 Z M 34.866751 57.262324 C 25.922222 57.262324 20.965522 49.813231 20.965522 39.043287 L 21.007646 37.582956 L 48.051858 37.582956 C 48.908398 47.763151 43.397047 57.262324 34.866751 57.262324 Z" transform="scale(1.000000,1.000000) translate(302.000000,221.000000)" opacity="1.000000"></path>
        <path d="M 35.904137 53.587392 C 35.527222 53.745918 34.761030 54.031809 34.372398 54.158935 C 33.983766 54.286060 33.196735 54.508242 32.798998 54.603113 C 32.401260 54.697983 31.598677 54.854964 31.194506 54.916943 C 30.790335 54.978922 29.977591 55.069646 29.569702 55.098317 C 29.161813 55.126987 28.344369 55.150846 27.935502 55.146015 C 27.601811 55.156881 26.934077 55.154860 26.600457 55.141974 C 26.266837 55.129089 25.600936 55.079601 25.269077 55.043030 C 24.937217 55.006459 24.276520 54.909754 23.948100 54.849682 C 23.619681 54.789610 22.967530 54.646178 22.644212 54.562909 C 22.320895 54.479640 21.680592 54.290207 21.364012 54.184162 L 21.364012 1.022486 L 1.502103 1.022486 L 1.502103 62.623188 C 8.522926 65.501726 16.730269 67.032266 30.147061 67.032266 C 33.503015 67.032266 37.554030 66.793558 39.793672 66.554850 Z" transform="scale(1.000000,1.000000) translate(381.000000,222.000000)" opacity="1.000000"></path>
        <path d="M 1.514038 42.335862 L 8.724424 42.335862 C 8.724424 42.335862 8.724424 42.335862 8.724424 42.335862 L 8.724424 1.130651 C 8.724424 1.130651 8.724424 1.130651 8.724424 1.130651 L 1.514038 1.130651 C 1.514038 1.130651 1.514038 1.130651 1.514038 1.130651 L 1.514038 42.335862 C 1.514038 42.335862 1.514038 42.335862 1.514038 42.335862 Z" transform="scale(1.000000,1.000000) translate(61.000000,168.000000)" opacity="1.000000"></path>
        <path d="M 18.623739 1.912996 C 7.881879 1.912996 1.556118 5.423407 1.556118 12.128294 C 1.556118 20.279469 12.213728 23.410756 26.704707 24.477922 L 26.704707 26.535028 C 26.704707 31.175792 23.376837 33.239914 17.128304 33.239914 C 16.553646 33.237639 15.405251 33.191405 14.832271 33.147477 C 14.259290 33.103550 13.117268 32.974189 12.548979 32.888841 C 11.980690 32.803492 10.851051 32.591685 10.290444 32.465365 C 9.729837 32.339046 8.618524 32.045906 8.068549 31.879280 C 7.518574 31.712653 6.431435 31.339724 5.894986 31.133667 L 4.146801 34.517704 C 4.801484 34.757450 6.126739 35.191097 6.796509 35.384737 C 7.466279 35.578376 8.818481 35.918817 9.500095 36.065413 C 10.181709 36.212008 11.554311 36.457595 12.244469 36.556437 C 12.934627 36.655279 14.320985 36.804822 15.016345 36.855432 C 15.711706 36.906042 17.105107 36.958818 17.802303 36.960951 C 27.547206 36.960951 33.535968 33.513727 33.535968 25.987404 L 33.535968 4.300081 C 29.948331 2.853794 24.619528 1.912996 18.623739 1.912996 Z M 26.697686 21.571301 C 15.288848 20.567323 8.548857 18.187264 8.548857 12.233606 C 8.548857 7.656029 12.297977 5.086407 19.290717 5.086407 C 19.667488 5.079237 20.421080 5.090570 20.797465 5.109067 C 21.173849 5.127563 21.924922 5.190172 22.299174 5.234248 C 22.673426 5.278325 23.418494 5.391919 23.788878 5.461372 C 24.159261 5.530824 24.894867 5.694877 25.259663 5.789383 C 25.624459 5.883889 26.347191 6.097639 26.704707 6.216760 L 26.704707 21.620452 Z" transform="scale(1.000000,1.000000) translate(121.000000,167.000000)" opacity="1.000000"></path>
        <path d="M 19.424073 31.481666 C 19.200427 31.540903 18.750093 31.647229 18.523570 31.694279 C 18.297047 31.741329 17.841620 31.823135 17.612883 31.857860 C 17.384146 31.892586 16.924961 31.949632 16.694680 31.971931 C 16.464399 31.994231 16.002800 32.026350 15.771650 32.036158 C 15.540500 32.045967 15.077839 32.053065 14.846497 32.050353 C 14.558633 32.057378 13.982771 32.050758 13.695145 32.037117 C 13.407518 32.023477 12.833615 31.975569 12.547708 31.941333 C 12.261801 31.907097 11.692812 31.818148 11.410097 31.763493 C 11.127382 31.708838 10.566239 31.579306 10.288172 31.504514 C 10.010105 31.429721 9.459698 31.260274 9.187713 31.165729 L 9.187713 1.214897 L 1.857970 1.214897 L 1.857970 33.440477 C 5.691340 34.893788 10.767395 35.834578 17.177407 35.834578 C 17.373249 35.834884 17.764921 35.831579 17.960730 35.827969 C 18.156540 35.824358 18.548067 35.813222 18.743765 35.805696 C 18.939463 35.798170 19.330689 35.779206 19.526197 35.767768 C 19.721706 35.756331 20.112475 35.729546 20.307715 35.714201 C 20.502956 35.698856 20.893111 35.664262 21.088005 35.645016 Z" transform="scale(1.000000,1.000000) translate(181.000000,168.000000)" opacity="1.000000"></path>
        <path d="M 26.929762 1.207880 L 9.279412 18.549314 L 9.110913 18.549314 L 9.110913 1.207880 L 1.949673 1.207880 L 1.949673 42.581586 L 9.110913 44.687833 L 9.110913 19.216287 L 9.279412 19.216287 L 26.985928 35.925846 L 34.919459 35.925846 L 16.026423 19.026725 L 35.684729 1.179792 L 26.929762 1.179792 Z" transform="scale(1.000000,1.000000) translate(227.000000,168.000000)" opacity="1.000000"></path>
        <path d="M 8.599530 17.155208 C 9.266508 10.134384 13.928335 5.676161 22.423531 5.676161 C 26.502630 5.676161 30.848519 6.560785 33.333891 7.691137 L 35.208446 4.068393 C 32.042054 2.664229 26.881750 1.674293 21.637194 1.674293 C 8.817171 1.674293 1.487431 8.358117 1.487431 19.394851 C 1.487431 30.052461 8.234442 36.946909 19.636260 36.946909 C 30.378119 36.946909 36.928547 30.628168 36.837277 19.394851 L 36.746006 17.218395 Z M 19.509889 33.485643 C 12.095899 33.485643 8.276572 28.191942 8.276572 20.497120 L 8.276572 20.581370 L 29.802416 20.581370 C 29.640938 28.262155 26.502629 33.485639 19.502868 33.485639 Z" transform="scale(1.000000,1.000000) translate(282.000000,167.000000)" opacity="1.000000"></path>
        <path d="M 17.872125 1.898962 C 11.462113 1.898962 7.130265 4.861749 7.130265 10.471387 L 7.130265 32.727397 L 1.969960 32.727397 L 1.969960 36.195684 L 7.130265 36.195684 L 7.130265 44.016874 L 14.460004 45.722934 L 14.460004 36.202697 L 22.288222 36.202697 L 22.288222 32.734410 L 14.459994 32.734410 L 14.459994 10.478400 C 14.459994 7.515613 16.376679 5.746365 20.041548 5.746365 C 20.154915 5.743574 20.381717 5.744190 20.495067 5.747597 C 20.608418 5.751003 20.834847 5.764008 20.947842 5.773602 C 21.060837 5.783195 21.286218 5.808551 21.398520 5.824303 C 21.510822 5.840055 21.734481 5.877685 21.845755 5.899549 C 21.957029 5.921413 22.178298 5.971205 22.288212 5.999115 L 22.288212 2.488703 C 22.073620 2.425692 21.640785 2.312847 21.422744 2.263065 C 21.204703 2.213284 20.765781 2.127096 20.545106 2.090729 C 20.324431 2.054363 19.881064 1.995154 19.658579 1.972339 C 19.436094 1.949524 18.989937 1.917515 18.766474 1.908337 C 18.543010 1.899158 18.095732 1.894469 17.872125 1.898962 Z" transform="scale(1.000000,1.000000) translate(338.000000,167.000000)" opacity="1.000000"></path>
        <path d="M 16.947914 1.898962 C 10.537902 1.898962 6.206054 4.861749 6.206054 10.471387 L 6.206054 32.727397 L 1.045749 32.727397 L 1.045749 36.195684 L 6.206054 36.195684 L 6.206054 44.016874 L 13.535794 45.722934 L 13.535794 36.202697 L 21.364011 36.202697 L 21.364011 32.734410 L 13.514721 32.734410 L 13.514721 10.478400 C 13.514721 7.515613 15.431406 5.746365 19.096276 5.746365 C 19.209643 5.743574 19.436445 5.744190 19.549795 5.747597 C 19.663145 5.751003 19.889575 5.764008 20.002570 5.773602 C 20.115564 5.783195 20.340945 5.808551 20.453247 5.824303 C 20.565549 5.840055 20.789209 5.877685 20.900483 5.899549 C 21.011756 5.921413 21.233026 5.971205 21.342939 5.999115 L 21.342939 2.488703 C 21.129355 2.426010 20.698570 2.313675 20.481568 2.264086 C 20.264567 2.214497 19.827747 2.128568 19.608132 2.092267 C 19.388516 2.055966 18.947280 1.996759 18.725864 1.973881 C 18.504447 1.951002 18.060427 1.918737 17.838029 1.909366 C 17.615631 1.899995 17.170470 1.894791 16.947914 1.898962 Z" transform="scale(1.000000,1.000000) translate(381.000000,167.000000)" opacity="1.000000"></path>
        <path d="M 7.329606 28.328836 C 8.537187 28.328836 9.730727 28.195441 10.931288 28.125232 C 11.213399 28.098698 11.776611 28.035813 12.057627 27.999472 C 12.338643 27.963130 12.899324 27.880671 13.178904 27.834566 C 13.458484 27.788461 14.015954 27.686528 14.293759 27.630715 C 14.571564 27.574902 15.125146 27.453618 15.400839 27.388166 C 15.676531 27.322713 16.225554 27.182226 16.498801 27.107213 C 16.714129 27.047470 17.141876 26.917951 17.354177 26.848210 C 17.566478 26.778469 17.987704 26.629101 18.196514 26.549514 C 18.405323 26.469927 18.819108 26.301036 19.023970 26.211777 C 19.228832 26.122518 19.634271 25.934472 19.834738 25.835737 C 20.035204 25.737001 20.431412 25.530212 20.627045 25.422215 C 20.758442 25.349183 21.017901 25.197276 21.145900 25.118440 C 21.273898 25.039603 21.526303 24.876243 21.650647 24.791760 C 21.774990 24.707277 22.019836 24.532789 22.140276 24.442829 C 22.260716 24.352868 22.497511 24.167603 22.613807 24.072345 C 22.730102 23.977087 22.958373 23.781416 23.070292 23.681051 C 23.298172 23.477331 23.729814 23.044423 23.932866 22.815947 C 24.135918 22.587471 24.515147 22.107982 24.690700 21.857757 C 24.866253 21.607532 25.188078 21.087769 25.333822 20.819087 C 25.479565 20.550405 25.739754 19.997208 25.853771 19.713604 C 25.967787 19.430000 26.162915 18.850647 26.243705 18.555851 C 26.274016 18.452954 26.330296 18.245929 26.356254 18.141848 C 26.382211 18.037767 26.429737 17.828559 26.451295 17.723479 C 26.472853 17.618398 26.511540 17.407377 26.528661 17.301483 C 26.545781 17.195589 26.575561 16.983128 26.588214 16.876608 C 26.600867 16.770088 26.621688 16.556562 26.629851 16.449604 C 26.629851 16.021334 26.707080 15.593064 26.714101 15.164794 C 26.714759 15.061604 26.712999 14.855228 26.710581 14.752064 C 26.708163 14.648901 26.700252 14.442669 26.694760 14.339623 C 26.689267 14.236578 26.675213 14.030673 26.666651 13.927837 C 26.658090 13.825001 26.637904 13.619607 26.626281 13.517072 C 26.614658 13.414537 26.588358 13.209836 26.573684 13.107692 C 26.552056 12.950049 26.499295 12.636214 26.468185 12.480165 C 26.437076 12.324115 26.365456 12.014039 26.324979 11.860154 C 26.284501 11.706269 26.194285 11.401084 26.144587 11.249924 C 26.094890 11.098765 25.986406 10.799586 25.927670 10.651704 C 25.868934 10.503821 25.742579 10.211741 25.675019 10.067676 C 25.591956 9.888242 25.413425 9.535380 25.318067 9.362166 C 25.222708 9.188953 25.020036 8.849382 24.912845 8.683230 C 24.805654 8.517079 24.579824 8.192448 24.461322 8.034165 C 24.342819 7.875883 24.094928 7.567768 23.965689 7.418124 C 23.836451 7.268479 23.567702 6.978378 23.428355 6.838097 C 23.294372 6.704758 23.019302 6.445413 22.878317 6.319501 C 22.737331 6.193589 22.448663 5.949469 22.301086 5.831351 C 22.153509 5.713233 21.852085 5.485052 21.698347 5.375072 C 21.544609 5.265092 21.231307 5.053515 21.071857 4.951994 C 20.912407 4.850473 20.588140 4.656116 20.423443 4.563351 C 20.235511 4.458031 19.854899 4.256103 19.662318 4.159547 C 19.469738 4.062992 19.080233 3.878800 18.883411 3.791212 C 18.686590 3.703625 18.289018 3.537560 18.088373 3.459126 C 17.887727 3.380693 17.482932 3.233107 17.278889 3.163994 C 17.074845 3.094881 16.663685 2.966087 16.456676 2.906441 C 16.300434 2.861353 15.986834 2.775134 15.829502 2.734010 C 15.672170 2.692887 15.356491 2.614624 15.198169 2.577492 C 15.039848 2.540359 14.722291 2.470103 14.563081 2.436986 C 14.403871 2.403868 14.084639 2.341663 13.924643 2.312581 C 13.764647 2.283499 13.443944 2.229386 13.283264 2.204359 C 13.139674 2.179084 12.851992 2.131471 12.707916 2.109136 C 12.563839 2.086800 12.275245 2.045074 12.130743 2.025686 C 11.986240 2.006297 11.696854 1.970475 11.551985 1.954043 C 11.407117 1.937611 11.117059 1.907708 10.971885 1.894239 C 10.826711 1.880769 10.536103 1.856798 10.390685 1.846297 C 9.906248 1.846297 9.421811 1.762047 8.937374 1.740984 Q 7.090898 1.656734 5.244421 1.740984 C 4.872317 1.740984 4.500214 1.790130 4.128110 1.818213 L 3.117112 1.846290 C 2.780112 1.846290 2.071009 1.930540 1.509343 1.993727 C 1.509343 1.993727 1.509343 5.546264 1.509343 5.546264 C 2.913508 5.433930 3.018820 5.412868 3.615590 5.377764 C 3.931527 5.377764 4.240443 5.321597 4.556380 5.307556 C 5.160171 5.307556 5.756941 5.251389 6.360732 5.237347 C 6.498067 5.233986 6.772792 5.230152 6.910167 5.229680 C 7.047543 5.229209 7.322288 5.231156 7.459642 5.233574 C 7.596997 5.235992 7.871640 5.243719 8.008914 5.249027 C 8.146187 5.254334 8.420607 5.267837 8.557739 5.276031 C 8.694870 5.284226 8.968945 5.303499 9.105874 5.314576 C 9.303699 5.317356 9.698951 5.335980 9.896161 5.351814 C 10.093372 5.367647 10.486531 5.412324 10.682266 5.441143 C 10.878001 5.469961 11.267353 5.540496 11.460759 5.582174 C 11.654164 5.623852 12.038011 5.719937 12.228242 5.774292 C 12.418474 5.828647 12.795140 5.949864 12.981368 6.016659 C 13.150369 6.066409 13.484946 6.176876 13.650346 6.237534 C 13.815745 6.298192 14.142413 6.430228 14.303507 6.501535 C 14.464602 6.572842 14.781971 6.725885 14.938077 6.807538 C 15.094182 6.889192 15.400904 7.062591 15.551356 7.154244 C 15.701809 7.245897 15.996579 7.438915 16.140739 7.540177 C 16.333641 7.676788 16.702711 7.972226 16.878239 8.130542 C 17.053767 8.288857 17.385595 8.625585 17.541320 8.803415 C 17.697046 8.981245 17.987041 9.354606 18.120810 9.549490 C 18.254578 9.744375 18.498730 10.149202 18.608691 10.358445 C 18.718652 10.567688 18.913582 10.998382 18.998214 11.219089 C 19.044990 11.339128 19.131790 11.581728 19.171780 11.704194 C 19.211771 11.826660 19.284871 12.073734 19.317952 12.198244 C 19.351033 12.322755 19.410204 12.573529 19.436271 12.699695 C 19.462339 12.825860 19.507397 13.079551 19.526369 13.206976 C 19.545342 13.334402 19.576145 13.590215 19.587963 13.718502 C 19.608683 13.863210 19.641874 14.153688 19.654333 14.299341 C 19.666791 14.444993 19.683414 14.736888 19.687571 14.883013 C 19.691728 15.029138 19.691728 15.321507 19.687571 15.467632 C 19.683414 15.613757 19.666791 15.905652 19.654333 16.051305 C 19.641874 16.196957 19.608683 16.487435 19.587963 16.632144 C 19.575149 16.776921 19.540461 17.065532 19.518603 17.209223 C 19.496745 17.352914 19.444046 17.638785 19.413231 17.780825 C 19.382416 17.922864 19.311913 18.204873 19.272261 18.344704 C 19.232609 18.484534 19.144581 18.761573 19.096247 18.898645 C 19.047914 19.035717 18.942705 19.306697 18.885881 19.440473 C 18.799853 19.646439 18.603643 20.047428 18.493807 20.241744 C 18.383972 20.436060 18.141613 20.810965 18.009518 20.990891 C 17.877423 21.170818 17.592334 21.514351 17.439842 21.677351 C 17.287351 21.840351 16.963550 22.147668 16.792812 22.291443 C 16.622074 22.435219 16.264128 22.701987 16.077552 22.824510 C 15.943483 22.914612 15.669741 23.086183 15.530206 23.167564 C 15.390672 23.248945 15.106559 23.402735 14.962125 23.475064 C 14.817691 23.547394 14.524361 23.682778 14.375614 23.745763 C 14.226866 23.808747 13.925510 23.925175 13.773054 23.978559 C 13.620597 24.031944 13.312438 24.128943 13.156891 24.172510 C 13.061681 24.198598 12.870653 24.248502 12.774848 24.272314 C 12.679043 24.296126 12.486880 24.341463 12.390535 24.362986 C 12.294190 24.384508 12.101000 24.425253 12.004170 24.444473 C 11.907339 24.463694 11.713234 24.499824 11.615973 24.516731 C 11.518712 24.533638 11.323801 24.565133 11.226165 24.579718 C 11.081535 24.600836 10.791656 24.638576 10.646441 24.655194 C 10.501225 24.671812 10.210314 24.700535 10.064653 24.712637 C 9.918992 24.724739 9.627329 24.744417 9.481363 24.751991 C 9.335396 24.759566 9.043263 24.770180 8.897131 24.773220 C 8.751000 24.776259 8.458678 24.777800 8.312523 24.776301 L 7.540232 24.776301 C 7.355626 24.775618 6.986493 24.767767 6.802024 24.760601 C 6.617555 24.753434 6.248926 24.732624 6.064822 24.718983 C 5.880719 24.705343 5.513048 24.671598 5.329537 24.651500 C 5.146026 24.631402 4.779767 24.584765 4.597076 24.558234 C 4.414384 24.531703 4.049989 24.472232 3.868342 24.439301 L 2.295677 24.144427 L 1.488283 23.961885 L 1.488283 28.019921 C 1.600616 28.019921 1.986761 28.111192 2.106115 28.118213 C 3.131155 28.223525 4.156196 28.335858 5.188256 28.335858 L 7.329606 28.335858 Z" transform="scale(1.000000,1.000000) translate(81.000000,182.000000)" opacity="1.000000"></path>
        <path d="M 1.089481 9.273299 C 1.084500 8.847059 1.175052 7.999344 1.269954 7.583773 C 1.364856 7.168202 1.651268 6.365214 1.840783 5.983390 C 2.030297 5.601566 2.496664 4.887897 2.770267 4.561023 C 3.043871 4.234149 3.664294 3.649429 4.006792 3.395657 C 4.349290 3.141885 5.089317 2.718586 5.481691 2.552008 C 5.874065 2.385430 6.692600 2.147059 7.113061 2.076925 C 7.533521 2.006792 8.385110 1.966584 8.810308 1.996790 C 9.235506 2.026996 10.072859 2.187185 10.479182 2.316052 C 10.885506 2.444920 11.662124 2.796610 12.027009 3.016984 C 12.391894 3.237357 13.064649 3.761019 13.367833 4.060660 C 13.671017 4.360301 14.202551 5.026854 14.427198 5.389124 C 14.651845 5.751393 15.012640 6.523824 15.146275 6.928604 C 15.279910 7.333384 15.449930 8.168797 15.485132 8.593610 C 15.520334 9.018423 15.490139 9.870427 15.424953 10.291682 C 15.359766 10.712938 15.131033 11.534219 14.969078 11.928524 C 14.807124 12.322828 14.392553 13.067780 14.142824 13.413237 C 13.893096 13.758695 13.315710 14.385948 12.992074 14.663375 C 12.668439 14.940802 11.960301 15.415525 11.580731 15.609515 C 11.201161 15.803505 10.401595 16.099335 9.987168 16.199116 C 9.572742 16.298896 8.726149 16.399406 8.299880 16.399436 C 8.016666 16.407119 7.450840 16.376794 7.170070 16.338885 C 6.889299 16.300976 6.335692 16.180156 6.064656 16.097639 C 5.793621 16.015122 5.266610 15.806946 5.012349 15.681964 C 4.758087 15.556981 4.271359 15.266855 4.040475 15.102654 C 3.809591 14.938453 3.375786 14.573911 3.174276 14.374755 C 2.972766 14.175599 2.603150 13.746109 2.436247 13.517170 C 2.269344 13.288232 1.973517 12.804948 1.845555 12.552173 C 1.717593 12.299398 1.503238 11.774870 1.417541 11.504823 C 1.331844 11.234776 1.204526 10.682627 1.163320 10.402321 C 1.122113 10.122015 1.085140 9.556586 1.089494 9.273301 L 1.089494 9.273301 Z M 3.006165 9.273299 C 2.987947 9.562071 3.014509 10.140153 3.059132 10.426037 C 3.103754 10.711922 3.254624 11.270601 3.359977 11.540085 C 3.465331 11.809569 3.733377 12.322439 3.894482 12.562785 C 4.055587 12.803131 4.428141 13.245949 4.637382 13.445797 C 4.846623 13.645644 5.306074 13.997480 5.553562 14.147384 C 5.801049 14.297287 6.325682 14.541510 6.599717 14.634383 C 6.873753 14.727257 7.438768 14.852324 7.726400 14.883778 C 8.014031 14.915231 8.592723 14.915231 8.880354 14.883778 C 9.167985 14.852324 9.733000 14.727257 10.007036 14.634383 C 10.281072 14.541510 10.805704 14.297287 11.053191 14.147384 C 11.300679 13.997480 11.760130 13.645644 11.969372 13.445797 C 12.178613 13.245949 12.551167 12.803131 12.712271 12.562785 C 12.873376 12.322439 13.141423 11.809569 13.246776 11.540085 C 13.352130 11.270601 13.502999 10.711922 13.547622 10.426037 C 13.592244 10.140153 13.618806 9.562071 13.600588 9.273299 C 13.609876 9.058263 13.594068 8.628080 13.569022 8.414306 C 13.543977 8.200531 13.459921 7.778344 13.401180 7.571278 C 13.342438 7.364213 13.192277 6.960779 13.101337 6.765698 C 13.010397 6.570616 12.797956 6.196215 12.677134 6.018089 C 12.556312 5.839963 12.287005 5.504135 12.139379 5.347503 C 11.991754 5.190871 11.672443 4.902171 11.501775 4.771024 C 11.331108 4.639877 10.969928 4.405663 10.780568 4.303343 C 10.591207 4.201023 10.197362 4.027261 9.994133 3.956375 C 9.790904 3.885488 9.374428 3.776608 9.162510 3.738961 C 8.950591 3.701314 8.522096 3.660088 8.306887 3.656641 C 5.358142 3.656641 3.013186 6.022658 3.013186 9.273299 L 3.013186 9.273299 Z M 5.505579 5.285472 L 7.064201 5.285472 L 7.064201 8.676531 L 8.040096 8.676531 L 9.956781 5.257390 L 11.592632 5.257390 L 9.486385 8.767801 C 10.651842 8.866093 11.550507 9.469884 11.550507 10.874048 C 11.550507 12.615212 10.441217 13.240066 8.468366 13.240066 L 5.498558 13.240066 L 5.498558 5.236327 L 5.498558 5.236327 Z M 7.064201 12.046525 L 8.377095 12.046525 C 9.079178 12.046525 9.991885 11.913129 9.991885 11.056589 C 9.991885 10.080694 9.331927 9.947299 8.454324 9.947299 L 7.050160 9.947299 L 7.050160 12.053546 L 7.050160 12.053546 Z" transform="scale(1.000000,1.000000) translate(422.000000,300.000000)" opacity="1.000000"></path>
    </g>
</svg>