<?xml version="1.0" encoding="UTF-8" standalone="yes"?>
<!DOCTYPE svg PUBLIC "-//W3C//DTD SVG 1.1//EN" "http://www.w3.org/Graphics/SVG/1.1/DTD/svg11.dtd">

<svg width="500" height="500" viewBox="0 0 500 500" xmlns="http://www.w3.org/2000/svg" xmlns:xlink="http://www.w3.org/1999/xlink" version="1.1" baseProfile="full">
    <g transform="scale(1,-1) translate(0,-500)">
        <path d="M 2.000000 1.000000 L 502.000000 1.000000 C 502.000000 1.000000 502.000000 1.000000 502.000000 1.000000 L 502.000000 501.000000 C 502.000000 501.000000 502.000000 501.000000 502.000000 501.000000 L 2.000000 501.000000 C 2.000000 501.000000 2.000000 501.000000 2.000000 501.000000 L 2.000000 1.000000 C 2.000000 1.000000 2.000000 1.000000 2.000000 1.000000 Z" transform="scale(1.000000,1.000000) translate(-2.000000,-1.000000)" fill="#ffffff" opacity="1.000000"></path>
        <path d="M 15.738678 15.185378 C 14.758329 16.343973 12.886752 17.502567 10.480440 17.502567 C 6.469920 17.502567 3.439748 15.096255 3.439748 9.838017 C 3.439748 5.114514 6.113429 2.262589 10.569563 2.262589 C 11.906403 2.262589 13.599734 2.529957 14.401838 3.064693 C 14.401838 4.045042 14.490961 4.936269 14.490961 5.916619 C 14.490961 7.075214 14.401838 8.233808 14.401838 9.214158 C 14.758329 9.125035 15.203942 9.125035 15.560433 9.125035 C 15.916924 9.125035 16.273414 9.125035 16.629905 9.214158 C 16.540782 8.501176 16.540782 6.896968 16.540782 4.312411 C 16.540782 3.688552 16.540782 2.975570 16.540782 2.351712 C 15.203942 1.906098 12.262894 1.193117 10.480440 1.193117 C 4.776588 1.193117 1.211682 4.134165 1.211682 9.748894 C 1.211682 15.185378 4.865711 18.304672 10.569563 18.304672 C 13.777979 18.304672 15.560433 17.502568 16.719028 16.878709 C 16.451660 16.433096 16.273415 15.630992 16.184292 15.007133 L 15.738678 15.007133 Z" transform="scale(1.000000,1.000000) translate(177.000000,153.000000)" opacity="1.000000"></path>
        <path d="M 1.989176 11.887841 C 1.989176 13.937663 1.900053 15.987485 1.810930 18.126429 C 2.702157 18.037306 3.593384 18.037306 4.573733 18.037306 C 5.464960 18.037306 6.356187 18.126429 7.336536 18.126429 C 10.010217 18.126429 12.327406 17.146079 12.327406 14.383277 C 12.327406 11.263983 9.208113 10.016265 7.425659 9.838020 C 8.584254 8.412057 12.594775 3.242942 14.020737 1.638734 C 13.575124 1.727856 13.040388 1.727856 12.594774 1.727856 C 12.149161 1.727856 11.703548 1.638734 11.168812 1.638734 C 10.188462 3.064697 7.069168 7.520830 4.930224 9.570652 L 4.038997 9.570652 L 4.038997 7.788198 C 4.038997 5.738377 4.128120 3.688555 4.217243 1.549611 C 3.771629 1.638733 3.415138 1.638733 3.058648 1.638733 C 2.702157 1.638733 2.256544 1.549611 1.900053 1.549611 C 1.989176 3.599432 2.078298 5.738376 2.078298 7.788198 L 2.078298 11.887841 Z M 3.949879 10.551001 C 4.395492 10.461879 4.930228 10.461879 5.554087 10.461879 C 7.514786 10.461879 10.099344 11.263983 10.099344 14.115908 C 10.099344 16.611343 8.049522 17.235202 6.356191 17.235202 C 5.286719 17.235202 4.573738 17.146079 4.039002 17.146079 C 3.949879 15.363626 3.860756 13.670295 3.860756 11.976964 L 3.860756 10.551001 Z" transform="scale(1.000000,1.000000) translate(210.000000,153.000000)" opacity="1.000000"></path>
        <path d="M 10.618596 18.393800 C 15.876834 18.393800 19.619987 15.274506 19.619987 9.838022 C 19.619987 4.401539 15.965957 1.282245 10.618596 1.282245 C 5.360358 1.282245 1.706328 4.401538 1.706328 9.838022 C 1.617213 15.274506 5.360363 18.393800 10.618596 18.393800 Z M 10.618596 17.591687 C 6.875443 17.591687 4.023517 15.185375 4.023517 9.927137 C 4.023517 4.579776 6.875443 2.262586 10.618596 2.262586 C 14.361748 2.262586 17.213674 4.668898 17.213674 9.927137 C 17.213682 15.185378 14.361746 17.591687 10.618596 17.591687 Z" transform="scale(1.000000,1.000000) translate(238.000000,153.000000)" opacity="1.000000"></path>
        <path d="M 13.654332 18.126429 C 13.921700 18.037306 14.278191 18.037306 14.634682 18.037306 C 14.902050 18.037306 15.169418 18.037306 15.347663 18.126429 C 15.169418 15.898362 14.991172 11.709596 14.902050 8.233811 C 14.812927 3.955922 12.406615 1.371365 8.039604 1.371365 C 3.316101 1.371365 1.177157 3.599432 1.177157 8.233811 C 1.177157 9.748897 1.266280 10.818369 1.266280 11.976964 C 1.266280 14.650644 1.177157 16.789588 1.088035 18.215551 C 1.444525 18.126428 1.979262 18.126428 2.335752 18.126428 C 2.692243 18.126428 3.048734 18.126428 3.405224 18.215551 C 3.226979 16.789588 3.137856 13.581172 3.137856 10.016265 C 3.137856 6.718726 3.137856 2.529960 8.485217 2.529960 C 13.743455 2.529960 13.743455 7.431707 13.743455 10.461878 C 13.743460 14.918007 13.743460 17.146074 13.654332 18.126429 Z" transform="scale(1.000000,1.000000) translate(274.000000,153.000000)" opacity="1.000000"></path>
        <path d="M 1.241677 11.887841 C 1.241677 13.937663 1.152554 15.987485 1.063431 18.126429 C 1.865535 18.037306 2.578517 18.037306 3.380621 18.037306 C 4.182725 18.037306 5.697810 18.126429 6.321669 18.126429 C 7.747632 18.126429 11.579907 18.037306 11.579907 14.115908 C 11.579907 9.927143 7.391142 9.125038 5.163075 9.125038 C 4.450093 9.125038 3.826234 9.125038 3.202376 9.214161 L 3.202376 7.877321 C 3.202376 5.827499 3.291498 3.777678 3.380621 1.638733 C 2.935008 1.727856 2.578517 1.727856 2.222026 1.727856 C 1.865536 1.727856 1.419922 1.638733 1.063431 1.638733 C 1.152554 3.688555 1.241677 5.827499 1.241677 7.877321 L 1.241677 11.887841 Z M 3.291487 10.105388 C 3.826223 10.016265 4.450082 9.927142 4.984818 9.927142 C 6.945517 9.927142 9.440952 10.640124 9.440952 13.937663 C 9.440952 16.700466 7.925867 17.235202 5.430432 17.235202 L 3.291487 17.235202 L 3.291487 10.105388 Z" transform="scale(1.000000,1.000000) translate(307.000000,153.000000)" opacity="1.000000"></path>
        <path d="M 1.668602 4.731240 L 254.331398 4.731240 C 254.331398 4.731240 254.331398 4.731240 254.331398 4.731240 L 254.331398 1.522824 C 254.331398 1.522824 254.331398 1.522824 254.331398 1.522824 L 1.668602 1.522824 C 1.668602 1.522824 1.668602 1.522824 1.668602 1.522824 L 1.668602 4.731240 C 1.668602 4.731240 1.668602 4.731240 1.668602 4.731240 Z" transform="scale(1.000000,1.000000) translate(122.000000,236.000000)" opacity="1.000000"></path>
        <path d="M 33.121776 61.940263 L 44.618601 33.777496 L 23.942137 33.777496 C 23.942137 33.777497 33.121776 62.029384 33.121776 61.940263 M 85.525914 1.782454 L 47.292283 1.782454 C 47.292283 1.782454 47.203160 2.138945 47.292283 2.138945 C 51.748417 2.762804 54.065607 9.447004 52.372276 14.259630 C 52.372276 14.259630 45.777197 30.658202 45.777197 30.658202 L 22.961791 30.658202 C 22.961791 30.658202 18.327412 16.220328 18.327412 16.220328 C 16.099345 9.981740 17.792676 3.921398 23.229159 2.049822 C 23.229159 2.049822 23.229159 1.693331 23.229159 1.693331 L 1.304975 1.693331 C 1.304975 1.693331 1.304975 2.049822 1.304975 2.049822 C 7.276194 3.654030 12.267065 9.892618 14.584254 16.220328 C 16.010217 19.963480 40.073340 95.806883 40.073340 95.806883 L 40.251586 95.806883 C 41.855794 91.796363 73.405223 13.992261 73.405223 13.992261 C 76.078904 7.753673 79.822056 4.634379 85.525908 2.049822 L 85.525908 1.782454 Z" transform="scale(1.000000,1.000000) translate(204.000000,250.000000)" opacity="1.000000"></path>
        <path d="M 15.702945 7.707414 C 16.505049 6.281451 17.931012 4.053384 19.089607 1.023213 C 19.713466 1.112336 20.337325 1.201458 21.228551 1.201458 C 22.030656 1.201458 22.654514 1.112336 23.189250 1.023213 C 23.100128 1.112336 15.702946 13.500388 13.118387 18.936872 C 12.851019 18.847749 12.672774 18.847749 12.405406 18.847749 C 12.048915 18.847749 11.870670 18.936872 11.603302 18.936872 C 9.196990 14.302493 4.206119 6.014083 1.265071 1.023213 C 1.710684 1.112336 2.067175 1.201458 2.780156 1.201458 C 3.404015 1.201458 3.760506 1.112336 4.116997 1.023213 C 5.186469 4.231629 6.523309 6.548819 7.236290 7.707414 L 15.702945 7.707414 Z M 15.079086 8.955140 L 7.949271 8.955140 L 11.514179 15.282850 L 15.079086 8.955140 Z" transform="scale(1.000000,1.000000) translate(138.000000,207.000000)" opacity="1.000000"></path>
        <path d="M 4.131689 15.213372 L 10.637645 10.044257 C 11.172381 9.598643 11.796239 9.153030 12.330975 8.796539 C 14.648165 7.103208 19.728158 2.914442 20.797630 1.934093 C 21.064998 1.934093 21.154121 2.023216 21.332366 2.023216 C 21.510611 2.023216 21.688857 2.023216 21.956225 1.934093 C 21.777979 3.716547 21.777979 6.835840 21.777979 8.796539 C 21.777979 12.450569 21.777979 16.193722 22.312716 19.847751 C 21.867102 19.758628 21.421489 19.669506 20.886753 19.669506 C 20.352017 19.669506 19.906403 19.758628 19.549912 19.847751 C 19.995526 16.104599 19.995526 13.876532 19.995526 7.370576 L 19.995526 6.390226 C 15.717637 9.687766 15.004656 10.311624 8.320455 15.658985 C 6.270633 17.263193 5.468529 17.976174 4.577302 18.778279 L 3.507830 19.758628 C 3.240462 19.758628 2.973094 19.669505 2.794848 19.669505 C 2.616603 19.669505 2.438358 19.669505 2.260112 19.758628 L 2.260112 16.728457 C 2.260112 15.837230 2.349235 11.381096 2.349235 10.311624 C 2.349235 7.637944 2.081867 3.270932 1.903622 2.023215 C 2.349235 2.112337 2.616603 2.201460 3.240462 2.201460 C 3.864321 2.201460 4.220811 2.112337 4.666425 2.023215 C 4.399057 5.944613 4.220811 7.459698 4.131689 13.609163 L 4.131689 15.213372 Z" transform="scale(1.000000,1.000000) translate(169.000000,206.000000)" opacity="1.000000"></path>
        <path d="M 13.890923 16.461098 C 13.980046 17.352325 14.603905 18.332674 14.871273 18.778288 C 14.069169 19.223901 11.751979 19.936882 9.167421 19.936882 C 5.246023 19.936882 1.681116 18.243551 1.681116 14.946012 C 1.681116 13.787418 2.215852 12.450577 3.374447 11.826719 C 4.265674 11.202860 4.711287 11.113737 8.632685 9.866020 C 10.860752 9.153038 12.821451 8.440057 12.821451 6.301112 C 12.821451 4.696904 11.395488 2.914451 7.830581 2.914451 C 5.156901 2.914451 3.196202 4.073045 2.215852 5.588131 L 1.770240 5.588131 C 1.770240 5.231640 1.681117 4.518659 1.146381 3.181819 C 2.928835 2.201469 5.067779 1.755856 7.295846 1.755856 C 13.267066 1.755856 15.762501 4.786027 15.762501 7.459707 C 15.762501 8.440057 15.406010 9.776897 13.890925 10.757246 C 12.732330 11.470228 12.108471 11.648473 8.454441 12.717945 C 6.761110 13.252682 4.533043 13.965663 4.533043 15.926362 C 4.533043 16.817589 5.156902 18.867410 8.810932 18.867410 C 11.930226 18.867410 12.999698 17.441447 13.445311 16.461098 L 13.890923 16.461098 Z" transform="scale(1.000000,1.000000) translate(203.000000,206.000000)" opacity="1.000000"></path>
        <path d="M 9.269846 11.004964 C 9.269846 7.529179 9.180723 3.786027 8.913355 1.023224 C 9.180723 1.112347 9.893704 1.201469 10.695809 1.201469 C 10.963177 1.201469 11.676158 1.201469 12.834753 1.023224 C 12.478262 4.855499 12.567385 8.866020 12.567385 11.985314 C 12.567385 13.678645 12.567385 15.550221 12.656508 17.243552 C 16.667028 17.243552 18.805973 17.065307 19.786322 16.887061 C 19.697199 17.154429 19.608077 17.421797 19.608077 17.778288 C 19.608077 18.134779 19.697199 18.402147 19.786322 18.669515 C 17.647378 18.491269 14.082470 18.491269 10.784931 18.491269 C 8.111251 18.491269 3.833362 18.491269 1.783540 18.669515 C 1.872663 18.402147 1.961785 18.223901 1.961785 17.778288 C 1.961785 17.421797 1.872663 17.154429 1.783540 16.887061 C 3.298626 17.154429 5.704938 17.243552 9.269845 17.243552 C 9.180724 15.550212 9.269846 13.322145 9.269846 11.004964 Z" transform="scale(1.000000,1.000000) translate(225.000000,207.000000)" opacity="1.000000"></path>
        <path d="M 14.551905 19.936877 C 6.352619 19.936877 1.629116 16.193725 1.629116 10.757241 C 1.629116 5.053389 6.976477 1.666728 14.284537 1.666728 C 22.305578 1.666728 27.207325 5.766371 27.207325 11.024609 C 27.207323 16.817583 21.592605 19.936877 14.551905 19.936877 M 5.461394 10.757238 C 5.461394 16.550212 9.917528 18.867402 14.462785 18.867402 C 16.779975 18.867402 20.166637 18.154421 21.949090 15.837231 C 23.107685 14.322146 23.464176 12.272324 23.464176 10.935484 C 23.464176 5.677246 19.721023 2.736198 14.373662 2.736198 C 9.115430 2.736197 5.461394 5.766376 5.461394 10.757238 Z" transform="scale(1.000000,1.000000) translate(251.000000,206.000000)" opacity="1.000000"></path>
        <path d="M 5.160291 11.004964 C 5.160291 12.341804 5.160291 12.698295 5.160291 14.302503 C 5.160291 15.817589 5.160291 16.263202 5.249413 17.243552 C 6.675376 17.332674 7.299235 17.332674 8.546952 17.332674 C 11.488001 17.332674 12.646596 17.154429 13.894313 16.976183 C 13.805190 17.243552 13.716068 17.421797 13.716068 17.778288 C 13.716068 18.134778 13.805190 18.402146 13.894313 18.669514 C 12.200982 18.580392 10.507651 18.491269 8.814321 18.491269 C 6.497131 18.491269 4.179941 18.491269 1.773629 18.669514 C 1.951874 16.174079 2.040997 12.698295 2.040997 10.202860 C 2.040997 4.677254 1.862752 2.983922 1.684506 1.023224 C 4.269064 1.112346 6.853622 1.201469 9.438179 1.201469 C 10.953265 1.201469 12.557473 1.201469 14.072558 1.023224 C 13.983436 1.290592 13.894313 1.468837 13.894313 1.825328 C 13.894313 2.181818 13.983436 2.449186 14.072558 2.716555 C 10.062038 2.449186 7.388357 2.449186 5.249413 2.449186 C 5.249413 3.162168 5.160291 5.122867 5.160291 6.370584 C 5.160291 7.440057 5.160291 8.598651 5.249413 9.757246 C 6.051517 9.757246 7.031867 9.846369 7.923094 9.846369 C 9.349057 9.846369 11.398878 9.757246 13.092209 9.579001 C 13.092209 9.846369 12.913964 10.113737 12.913964 10.381105 C 12.913964 10.737596 13.003087 11.004964 13.092209 11.272332 C 10.507651 10.915836 7.833971 10.915836 5.160291 11.004964 Z" transform="scale(1.000000,1.000000) translate(289.000000,207.000000)" opacity="1.000000"></path>
        <path d="M 9.114641 11.004964 C 9.114641 7.529179 9.025518 3.786027 8.758150 1.023224 C 9.025518 1.112347 9.738500 1.201469 10.540604 1.201469 C 10.807972 1.201469 11.520953 1.201469 12.679548 1.023224 C 12.323057 4.855499 12.412180 8.866020 12.412180 11.985314 C 12.412180 13.678645 12.412180 15.550221 12.501303 17.243552 C 16.511823 17.243552 18.650768 17.065307 19.631117 16.887061 C 19.541994 17.154429 19.452872 17.421797 19.452872 17.778288 C 19.452872 18.134779 19.541994 18.402147 19.631117 18.669515 C 17.492173 18.491269 13.927266 18.491269 10.629726 18.491269 C 7.956046 18.491269 3.678157 18.491269 1.628335 18.669515 C 1.717458 18.402147 1.717458 18.223901 1.717458 17.778288 C 1.717458 17.421797 1.628335 17.154429 1.628335 16.887061 C 3.143421 17.154429 5.549733 17.243552 9.114640 17.243552 C 9.025513 15.550212 9.114641 13.322145 9.114641 11.004964 Z" transform="scale(1.000000,1.000000) translate(310.000000,207.000000)" opacity="1.000000"></path>
        <path d="M 1.850049 1.023213 C 4.434606 1.112336 7.019164 1.201458 9.603722 1.201458 C 11.475298 1.201458 20.654934 1.112336 21.457038 1.023213 C 21.367916 1.379704 21.367916 1.736194 21.367916 2.003562 C 21.367916 2.449176 21.457038 2.627421 21.457038 2.805667 C 15.753187 2.449176 10.940562 2.449176 7.286532 2.449176 C 7.286532 2.449176 7.108287 2.449176 7.108287 2.538298 C 7.108287 2.716544 12.812139 9.222499 21.546162 18.313013 L 21.546162 18.669504 C 20.298444 18.580382 17.179151 18.491259 12.812139 18.491259 C 8.177760 18.491259 6.127938 18.491259 3.276013 18.669504 C 3.365135 18.402136 3.454258 18.223891 3.454258 17.778277 C 3.454258 17.421787 3.365135 17.065296 3.276013 16.797928 C 6.306184 17.154419 11.564422 17.243541 16.466169 17.243541 C 12.633894 12.787407 6.840920 6.459697 3.899871 3.429526 C 3.632503 3.073035 2.206540 1.736195 1.939172 1.468827 L 1.939172 1.023213 Z" transform="scale(1.000000,1.000000) translate(335.000000,207.000000)" opacity="1.000000"></path>
        <path d="M 31.675555 90.518472 L 31.675555 90.874963 L 68.661467 90.874963 L 68.661467 90.518472 C 65.631296 89.449000 60.283935 85.884093 59.749199 78.843401 L 59.749199 30.806275 C 59.749199 26.261019 58.055868 19.755063 54.580083 14.318579 C 48.787107 5.228068 37.735896 1.128426 27.665034 2.019652 C 15.276982 3.089125 8.236291 10.753675 5.384364 15.655423 C 1.552089 22.250501 1.106475 27.419616 2.532438 33.301712 C 4.314892 40.520650 8.681903 44.263802 14.029264 44.263802 C 19.554870 44.263802 23.208900 39.540300 23.030655 35.084166 C 22.852409 31.341014 20.178729 26.528388 17.415926 23.319973 C 12.870669 17.972612 11.177338 12.268761 17.059435 8.258240 C 18.396275 7.367013 22.495918 5.049824 27.665034 5.049824 C 35.864320 5.049824 40.409577 11.466656 40.766067 20.557170 C 40.766067 21.894010 40.944313 24.122077 40.766067 78.932525 C 40.498701 82.764799 37.201162 88.023037 31.675555 90.518472 Z" transform="scale(1.000000,1.000000) translate(137.000000,247.000000)" opacity="1.000000"></path>
        <path d="M 36.729372 84.844791 C 44.750414 84.844791 48.671811 75.397787 48.671811 67.198502 C 48.671811 57.484130 44.126555 50.799929 36.729372 50.799929 L 29.064816 50.799929 L 29.064816 84.844791 L 36.729372 84.844791 Z M 41.363749 87.874963 C 54.821274 87.874963 65.248626 78.784450 65.248626 67.822360 C 65.159504 58.910092 58.029689 51.958524 47.602337 49.373965 C 58.653549 47.948002 71.041601 39.392225 71.041601 25.310841 C 71.041601 10.694722 58.207935 1.871577 44.572164 1.871577 L 1.615032 1.871577 C 1.615032 1.871577 1.615032 2.228068 1.615032 2.228068 C 5.625552 4.545257 9.992563 8.110165 10.081686 16.398574 L 9.903441 75.932526 C 9.725196 82.081991 4.377835 86.627248 1.347663 87.607598 C 1.347663 87.607598 1.347663 87.964088 1.347663 87.964088 L 41.363749 87.964088 Z M 35.392532 47.502388 C 44.839537 47.502388 51.523738 37.609770 51.523738 26.647681 C 51.523738 17.913659 46.711113 5.169115 35.392532 5.169115 L 29.064816 5.169115 C 29.064816 5.169115 29.064816 47.413267 29.064816 47.502388 L 35.392532 47.502388 Z" transform="scale(1.000000,1.000000) translate(288.000000,250.000000)" opacity="1.000000"></path>
    </g>
</svg>