<?xml version="1.0" encoding="UTF-8" standalone="yes"?>
<!DOCTYPE svg PUBLIC "-//W3C//DTD SVG 1.1//EN" "http://www.w3.org/Graphics/SVG/1.1/DTD/svg11.dtd">

<svg width="500" height="500" viewBox="0 0 500 500" xmlns="http://www.w3.org/2000/svg" xmlns:xlink="http://www.w3.org/1999/xlink" version="1.1" baseProfile="full">
    <g transform="scale(1,-1) translate(0,-500)">
        <path d="M 2.000000 1.000000 L 502.000000 1.000000 C 502.000000 1.000000 502.000000 1.000000 502.000000 1.000000 L 502.000000 501.000000 C 502.000000 501.000000 502.000000 501.000000 502.000000 501.000000 L 2.000000 501.000000 C 2.000000 501.000000 2.000000 501.000000 2.000000 501.000000 L 2.000000 1.000000 C 2.000000 1.000000 2.000000 1.000000 2.000000 1.000000 Z" transform="scale(1.000000,1.000000) translate(-2.000000,-1.000000)" fill="#ffffff" opacity="1.000000"></path>
        <path d="M 1.207883 19.927277 L 19.171399 19.927277 L 19.171399 1.984408 L 1.207883 1.984408 L 1.207883 19.927277 Z" transform="scale(1.000000,1.000000) translate(343.000000,207.000000)" opacity="1.000000"></path>
        <path d="M 1.233995 19.927277 L 68.464975 19.927277 L 68.464975 1.984408 L 1.233995 1.984408 L 1.233995 19.927277 Z" transform="scale(1.000000,1.000000) translate(128.000000,207.000000)" opacity="1.000000"></path>
        <path d="M 5.277340 16.820828 L 5.277340 12.389654 L 12.403541 12.389654 L 12.403541 9.246942 L 5.277340 9.246942 L 5.277340 1.928130 L 1.752687 1.928130 L 1.752687 19.960945 L 13.645962 19.960945 L 13.645962 16.820741 L 5.277340 16.820741 Z" transform="scale(1.000000,1.000000) translate(205.000000,207.000000)" opacity="1.000000"></path>
        <path d="M 1.314953 1.928149 L 1.314953 19.960964 L 4.839555 19.960964 L 4.839555 5.068354 L 13.029824 5.068354 L 13.029824 1.928149 L 1.314953 1.928149 Z" transform="scale(1.000000,1.000000) translate(228.000000,207.000000)" opacity="1.000000"></path>
        <path d="M 10.129172 16.010613 C 10.044142 16.104423 9.858538 16.276681 9.758656 16.354488 C 9.658773 16.432295 9.446336 16.570105 9.334571 16.629596 C 9.222807 16.689086 8.989852 16.788350 8.869529 16.827755 C 8.749205 16.867160 8.502660 16.924927 8.377357 16.943074 C 8.252053 16.961221 7.999249 16.975773 7.872690 16.972123 C 7.744963 16.975796 7.489814 16.961305 7.363323 16.943195 C 7.236833 16.925084 6.987868 16.867397 6.866303 16.828031 C 6.744738 16.788664 6.509217 16.689462 6.396121 16.629988 C 6.283026 16.570514 6.067815 16.432689 5.966487 16.354842 C 5.865158 16.276994 5.676533 16.104565 5.589925 16.010613 C 4.905152 15.249171 4.726765 14.413944 4.726765 10.944899 C 4.726765 7.475235 4.905152 6.640009 5.589925 5.878565 C 5.676533 5.784614 5.865158 5.612185 5.966487 5.534337 C 6.067815 5.456489 6.283026 5.318664 6.396121 5.259191 C 6.509217 5.199717 6.744738 5.100514 6.866303 5.061148 C 6.987868 5.021782 7.236833 4.964095 7.363323 4.945984 C 7.489814 4.927873 7.744963 4.913383 7.872690 4.917056 C 7.999249 4.913406 8.252053 4.927958 8.377357 4.946105 C 8.502660 4.964252 8.749205 5.022019 8.869529 5.061424 C 8.989852 5.100828 9.222807 5.200093 9.334571 5.259583 C 9.446336 5.319073 9.658773 5.456884 9.758656 5.534691 C 9.858538 5.612497 10.044142 5.784756 10.129172 5.878565 C 10.813944 6.640008 11.016107 7.475235 11.016107 10.944899 C 11.016107 14.413944 10.813927 15.249153 10.129172 16.010613 L 10.129172 16.010613 Z M 12.740560 3.752443 C 12.351902 3.376264 11.468494 2.751882 10.984173 2.511050 C 10.499853 2.270219 9.468853 1.942650 8.934345 1.859779 C 8.399838 1.776908 7.318051 1.776908 6.783543 1.859779 C 6.249036 1.942650 5.218036 2.270219 4.733715 2.511050 C 4.249395 2.751882 3.365987 3.376264 2.977329 3.752443 C 1.152127 5.576683 1.202187 7.829144 1.202187 10.944972 C 1.202187 14.060163 1.152110 16.315133 2.977329 18.137500 C 3.365987 18.513679 4.249395 19.138061 4.733715 19.378893 C 5.218036 19.619724 6.249036 19.947293 6.783543 20.030164 C 7.318051 20.113035 8.399838 20.113035 8.934345 20.030164 C 9.468853 19.947293 10.499853 19.619724 10.984173 19.378893 C 11.468494 19.138061 12.351902 18.513679 12.740560 18.137500 C 14.566381 16.315079 14.541361 14.060090 14.541361 10.944899 C 14.541361 7.829071 14.566391 5.576610 12.740570 3.752370 L 12.740570 3.752370 Z" transform="scale(1.000000,1.000000) translate(249.000000,207.000000)" opacity="1.000000"></path>
        <path d="M 10.033384 16.010613 C 9.948455 16.104448 9.763031 16.276753 9.663228 16.354580 C 9.563425 16.432408 9.351127 16.570251 9.239424 16.629752 C 9.127722 16.689253 8.894878 16.788525 8.774606 16.827925 C 8.654334 16.867326 8.407886 16.925069 8.282629 16.943195 C 8.157372 16.961321 7.904665 16.975812 7.778157 16.972123 C 7.650404 16.975776 7.395207 16.961255 7.268694 16.943134 C 7.142180 16.925013 6.893168 16.867313 6.771578 16.827945 C 6.649987 16.788576 6.414412 16.689378 6.301285 16.629909 C 6.188159 16.570441 5.972880 16.432632 5.871512 16.354795 C 5.770144 16.276958 5.581431 16.104553 5.494773 16.010613 C 4.810636 15.249171 4.632249 14.413944 4.632249 10.944899 C 4.632249 7.475235 4.810636 6.640009 5.494773 5.878565 C 5.581431 5.784626 5.770144 5.612221 5.871512 5.534384 C 5.972880 5.456547 6.188159 5.318738 6.301285 5.259269 C 6.414412 5.199801 6.649987 5.100602 6.771578 5.061234 C 6.893168 5.021866 7.142180 4.964166 7.268694 4.946045 C 7.395207 4.927923 7.650404 4.913402 7.778157 4.917056 C 7.904665 4.913367 8.157372 4.927858 8.282629 4.945984 C 8.407886 4.964110 8.654334 5.021853 8.774606 5.061253 C 8.894878 5.100654 9.127722 5.199926 9.239424 5.259427 C 9.351127 5.318928 9.563425 5.456771 9.663228 5.534599 C 9.763031 5.612426 9.948455 5.784731 10.033384 5.878565 C 10.718827 6.640008 10.921539 7.475235 10.921539 10.944899 C 10.921539 14.413944 10.718741 15.249153 10.033384 16.010613 L 10.033384 16.010613 Z M 12.646634 3.752443 C 12.257939 3.376262 11.374463 2.751880 10.890111 2.511050 C 10.405760 2.270219 9.374701 1.942652 8.840166 1.859782 C 8.305630 1.776912 7.223788 1.776912 6.689252 1.859782 C 6.154717 1.942652 5.123658 2.270219 4.639307 2.511050 C 4.154955 2.751880 3.271479 3.376262 2.882784 3.752443 C 1.058836 5.576683 1.107642 7.829144 1.107642 10.944972 C 1.107642 14.060163 1.058819 16.315133 2.882784 18.137500 C 3.271479 18.513681 4.154955 19.138063 4.639307 19.378893 C 5.123658 19.619724 6.154717 19.947291 6.689252 20.030161 C 7.223788 20.113031 8.305630 20.113031 8.840166 20.030161 C 9.374701 19.947291 10.405760 19.619724 10.890111 19.378893 C 11.374463 19.138063 12.257939 18.513681 12.646634 18.137500 C 14.471836 16.315150 14.445552 14.060180 14.445552 10.944972 C 14.445552 7.829144 14.471836 5.576683 12.646634 3.752443 L 12.646634 3.752443 Z" transform="scale(1.000000,1.000000) translate(273.000000,207.000000)" opacity="1.000000"></path>
        <path d="M 8.494251 16.820828 L 5.173025 16.820828 L 5.173025 12.060214 L 8.494251 12.060214 C 8.624787 12.050700 8.886374 12.060336 9.015857 12.079427 C 9.145339 12.098518 9.398576 12.164789 9.520812 12.211572 C 9.643047 12.258355 9.875821 12.378093 9.984963 12.450330 C 10.094106 12.522567 10.295283 12.690043 10.386111 12.784279 C 10.476940 12.878515 10.636898 13.085720 10.705068 13.197448 C 10.773239 13.309175 10.884327 13.546198 10.926579 13.670073 C 10.968830 13.793948 11.025735 14.049453 11.040047 14.179550 C 11.054360 14.309648 11.054360 14.571412 11.040047 14.701510 C 11.025735 14.831607 10.968830 15.087112 10.926579 15.210986 C 10.884327 15.334861 10.773239 15.571885 10.705068 15.683612 C 10.636898 15.795339 10.476940 16.002545 10.386111 16.096781 C 10.295283 16.191016 10.094106 16.358493 9.984963 16.430730 C 9.875821 16.502967 9.643047 16.622705 9.520812 16.669487 C 9.398576 16.716270 9.145339 16.782542 9.015857 16.801633 C 8.886374 16.820724 8.624787 16.830360 8.494251 16.820846 L 8.494251 16.820846 Z M 11.232690 1.928147 L 7.708723 9.120676 L 5.173100 9.120676 L 5.173100 1.928147 L 1.647166 1.928147 L 1.647166 19.960962 L 8.721486 19.960962 C 8.947373 19.977717 9.400369 19.973662 9.625919 19.952867 C 9.851470 19.932072 10.297571 19.853233 10.516587 19.795460 C 10.735602 19.737687 11.162548 19.586230 11.369009 19.493066 C 11.575470 19.399903 11.971526 19.179991 12.159758 19.053998 C 12.347990 18.928005 12.702271 18.645681 12.867101 18.490321 C 13.031931 18.334961 13.334700 17.997985 13.471598 17.817529 C 13.608495 17.637072 13.851431 17.254705 13.956633 17.054111 C 14.061836 16.853517 14.238262 16.436269 14.308878 16.221051 C 14.379494 16.005833 14.484561 15.565171 14.518650 15.341244 C 14.552739 15.117316 14.583559 14.665352 14.580184 14.438870 C 14.588819 14.129653 14.527507 13.514026 14.458056 13.212586 C 14.388604 12.911147 14.174355 12.330756 14.031287 12.056492 C 13.888219 11.782228 13.534818 11.274423 13.327341 11.044985 C 13.119863 10.815546 12.650055 10.413007 12.391519 10.243159 C 12.132984 10.073310 11.577002 9.801942 11.284046 9.702614 L 15.315034 1.928060 L 11.232577 1.928060 Z" transform="scale(1.000000,1.000000) translate(297.000000,207.000000)" opacity="1.000000"></path>
        <path d="M 7.800408 1.776853 C 7.439999 1.748236 6.716925 1.752537 6.356881 1.785440 C 5.996838 1.818343 5.284962 1.945176 4.935710 2.038647 C 4.586457 2.132117 3.906391 2.377810 3.578043 2.529141 C 3.249695 2.680472 2.621131 3.037910 2.323194 3.242721 C 2.025257 3.447531 1.466395 3.906365 1.207496 4.158724 L 3.490261 6.436198 C 3.666109 6.276756 4.042240 5.987099 4.241313 5.857816 C 4.440385 5.728533 4.857981 5.502723 5.075159 5.406923 C 5.292337 5.311123 5.740658 5.154967 5.970357 5.095114 C 6.200056 5.035261 6.667573 4.952775 6.903886 4.930408 C 7.140199 4.908041 7.614890 4.901346 7.851739 4.917040 C 9.931070 4.917040 11.045851 5.702877 11.045851 7.145159 C 11.051213 7.228333 11.048068 7.394998 11.039573 7.477911 C 11.031077 7.560823 11.000357 7.724662 10.978238 7.805021 C 10.956120 7.885379 10.898673 8.041862 10.863544 8.117444 C 10.828415 8.193026 10.745831 8.337825 10.698662 8.406541 C 10.651493 8.475257 10.546056 8.604368 10.488152 8.664317 C 10.421515 8.720966 10.281147 8.825346 10.207714 8.872855 C 10.134281 8.920365 9.981539 9.005620 9.902555 9.043184 C 9.823571 9.080748 9.661046 9.145432 9.577851 9.172414 C 9.494655 9.199396 9.325103 9.242412 9.239106 9.258355 C 9.153109 9.274297 8.979405 9.294916 8.892066 9.299548 L 6.710073 9.603995 C 6.517393 9.620984 6.134937 9.679160 5.945920 9.720230 C 5.756902 9.761301 5.384790 9.867083 5.202434 9.931584 C 5.020077 9.996085 4.664211 10.147795 4.491407 10.234703 C 4.318602 10.321611 3.984624 10.516844 3.824113 10.624781 C 3.663602 10.732718 3.356809 10.968377 3.211136 11.095632 C 3.077824 11.236855 2.835039 11.540038 2.726369 11.700994 C 2.617700 11.861951 2.427245 12.200465 2.346090 12.376902 C 2.264935 12.553339 2.131843 12.918238 2.080347 13.105492 C 2.028851 13.292747 1.956640 13.674388 1.936164 13.867512 C 1.915688 14.060636 1.906265 14.448934 1.917350 14.642824 C 1.917350 17.859922 4.301523 20.113019 8.206056 20.113019 C 8.524507 20.134088 9.162714 20.123660 9.480306 20.092199 C 9.797898 20.060738 10.425748 19.945749 10.733876 19.862611 C 11.042003 19.779473 11.642482 19.563039 11.932795 19.430477 C 12.223108 19.297915 12.779943 18.985901 13.044575 18.807507 C 13.309207 18.629113 13.807309 18.229974 14.039089 18.010582 L 11.807655 15.807493 C 11.657209 15.940198 11.336108 16.180764 11.166476 16.287858 C 10.996843 16.394953 10.641576 16.581401 10.457073 16.660160 C 10.272570 16.738919 9.892176 16.866505 9.697497 16.914925 C 9.502818 16.963345 9.106976 17.028823 8.907075 17.045672 C 8.707174 17.062520 8.305957 17.064223 8.105920 17.049072 C 8.005287 17.066157 7.801841 17.083048 7.699768 17.082793 C 7.597695 17.082538 7.394336 17.064630 7.293789 17.047042 C 7.193243 17.029454 6.995880 16.977267 6.899781 16.942858 C 6.803683 16.908449 6.618051 16.823499 6.529192 16.773268 C 6.440334 16.723037 6.271827 16.607793 6.192792 16.543200 C 6.113756 16.478607 5.967270 16.336418 5.900354 16.259340 C 5.833437 16.182261 5.713229 16.017259 5.660376 15.929935 C 5.607523 15.842611 5.517086 15.659589 5.479832 15.564558 C 5.442578 15.469526 5.384540 15.273803 5.363968 15.173825 C 5.343396 15.073846 5.319443 14.871110 5.316150 14.769090 C 5.314492 14.697190 5.323073 14.553608 5.333284 14.482418 C 5.343495 14.411227 5.375618 14.271022 5.397420 14.202487 C 5.419222 14.133952 5.474008 14.000956 5.506804 13.936950 C 5.539601 13.872944 5.615552 13.750793 5.658447 13.693066 C 5.701341 13.635339 5.796382 13.527373 5.848202 13.477503 C 5.918914 13.418261 6.067123 13.308383 6.144358 13.257940 C 6.221593 13.207498 6.381781 13.115961 6.464451 13.075029 C 6.547121 13.034096 6.717029 12.962192 6.803968 12.931347 C 6.890906 12.900502 7.068140 12.849244 7.158121 12.828921 C 7.248103 12.808598 7.430163 12.778709 7.521919 12.769195 L 9.651963 12.464112 C 9.840731 12.451302 10.215896 12.401887 10.401543 12.365381 C 10.587190 12.328876 10.953132 12.232560 11.132696 12.172942 C 11.312260 12.113324 11.663140 11.971643 11.833756 11.889864 C 12.004371 11.808085 12.334591 11.623301 12.493536 11.520666 C 12.652481 11.418030 12.956772 11.193092 13.101510 11.071238 C 13.246594 10.919966 13.510692 10.594416 13.628798 10.421258 C 13.746904 10.248100 13.953603 9.883400 14.041485 9.693112 C 14.129367 9.502825 14.272989 9.108993 14.328234 8.906804 C 14.383479 8.704614 14.460078 8.292469 14.481168 8.083932 C 14.502258 7.875395 14.509729 7.456259 14.496085 7.247102 C 14.495982 3.752443 11.577887 1.776853 7.800408 1.776853 Z" transform="scale(1.000000,1.000000) translate(320.000000,207.000000)" opacity="1.000000"></path>
        <path d="M 8.634338 29.198907 L 12.205272 29.198907 C 18.252991 29.198907 18.326156 32.765478 18.326156 37.933098 C 18.326156 42.810016 18.326156 46.812315 12.497504 46.812315 L 8.634338 46.812315 L 8.634338 29.198907 L 8.634338 29.198907 Z M 1.201441 53.799795 L 12.351105 53.799795 C 12.880996 53.841195 13.943955 53.830622 14.472917 53.778690 C 15.001880 53.726757 16.046598 53.530402 16.558320 53.386738 C 17.070041 53.243073 18.064302 52.866991 18.543002 52.636026 C 19.021702 52.405061 19.934843 51.860850 20.365758 51.549706 C 20.796673 51.238563 21.600535 50.543006 21.970377 50.161279 C 24.520412 47.466853 25.322844 44.192240 25.322844 38.004976 C 25.322844 33.493165 24.957309 30.436725 23.209086 27.598476 C 21.168615 24.249477 17.889329 22.212732 12.424339 22.212732 L 8.634338 22.212732 L 8.634338 1.977964 L 1.201441 1.977964 L 1.201441 53.799795 L 1.201441 53.799795 Z" transform="scale(1.000000,1.000000) translate(128.000000,237.000000)" opacity="1.000000"></path>
        <path d="M 9.313354 30.655533 L 13.540870 30.655533 C 18.713472 30.655533 19.515990 33.565659 19.515990 38.733297 C 19.515990 43.974615 18.640942 46.812314 13.176589 46.812314 L 9.313354 46.812314 L 9.313354 30.655533 L 9.313354 30.655533 Z M 1.881710 53.799795 L 13.831933 53.799795 C 22.650009 53.799795 26.949523 48.631556 26.949523 38.587654 C 26.949523 32.619834 25.272026 28.253048 20.536268 25.633609 L 28.551912 1.977980 L 20.681482 1.977980 L 13.758700 24.103801 L 9.313354 24.103801 L 9.313354 1.977964 L 1.881710 1.977964 L 1.881710 53.799795 L 1.881710 53.799795 Z" transform="scale(1.000000,1.000000) translate(165.000000,237.000000)" opacity="1.000000"></path>
        <path d="M 8.941286 14.205593 C 8.930106 13.935172 8.965891 13.395053 9.012648 13.128471 C 9.059406 12.861889 9.209573 12.341832 9.312116 12.091358 C 9.414658 11.840884 9.672296 11.364825 9.825905 11.141987 C 9.979513 10.919149 10.332764 10.508999 10.530368 10.324054 C 10.727972 10.139108 11.160578 9.813744 11.393083 9.675203 C 11.625588 9.536662 12.117638 9.311059 12.374343 9.225299 C 12.631048 9.139539 13.159894 9.024080 13.428984 8.995048 C 13.698074 8.966016 14.239378 8.966016 14.508468 8.995048 C 14.777558 9.024080 15.306404 9.139539 15.563109 9.225299 C 15.819814 9.311059 16.311863 9.536662 16.544369 9.675203 C 16.776874 9.813744 17.209479 10.139108 17.407084 10.324054 C 17.604688 10.508999 17.957939 10.919149 18.111547 11.141987 C 18.265156 11.364825 18.522793 11.840884 18.625336 12.091358 C 18.727879 12.341832 18.878046 12.861889 18.924803 13.128471 C 18.971561 13.395053 19.007345 13.935172 18.996166 14.205593 L 18.996166 41.571546 C 19.007345 41.841967 18.971561 42.382086 18.924803 42.648668 C 18.878046 42.915250 18.727879 43.435307 18.625336 43.685781 C 18.522793 43.936256 18.265156 44.412314 18.111547 44.635152 C 17.957939 44.857990 17.604688 45.268140 17.407084 45.453086 C 17.209479 45.638031 16.776874 45.963395 16.544369 46.101936 C 16.311863 46.240477 15.819814 46.466080 15.563109 46.551841 C 15.306404 46.637601 14.777558 46.753059 14.508468 46.782091 C 14.239378 46.811123 13.698074 46.811123 13.428984 46.782091 C 13.159894 46.753059 12.631048 46.637601 12.374343 46.551841 C 12.117638 46.466080 11.625588 46.240477 11.393083 46.101936 C 11.160578 45.963395 10.727972 45.638031 10.530368 45.453086 C 10.332764 45.268140 9.979513 44.857990 9.825905 44.635152 C 9.672296 44.412314 9.414658 43.936256 9.312116 43.685781 C 9.209573 43.435307 9.059406 42.915250 9.012648 42.648668 C 8.965891 42.382086 8.930106 41.841967 8.941286 41.571546 L 8.941286 14.205593 L 8.941286 14.205593 Z M 1.508391 41.571546 C 1.497683 42.231341 1.615742 43.545814 1.743848 44.193141 C 1.871955 44.840469 2.263456 46.100827 2.524661 46.706810 C 2.785867 47.312794 3.433346 48.462814 3.815998 49.000421 C 4.198651 49.538028 5.073224 50.526409 5.560254 50.971657 C 6.047284 51.416905 7.109938 52.199557 7.679619 52.532584 C 8.249301 52.865611 9.452631 53.407620 10.079550 53.613570 C 10.706470 53.819521 11.996797 54.096707 12.652989 54.166394 C 13.309181 54.236080 14.628945 54.236080 15.285137 54.166394 C 15.941329 54.096707 17.231656 53.819521 17.858575 53.613570 C 18.485495 53.407620 19.688825 52.865611 20.258507 52.532584 C 20.828188 52.199557 21.890842 51.416905 22.377872 50.971657 C 22.864902 50.526409 23.739475 49.538028 24.122128 49.000421 C 24.504780 48.462814 25.152259 47.312794 25.413465 46.706810 C 25.674670 46.100827 26.066171 44.840469 26.194278 44.193141 C 26.322384 43.545814 26.440443 42.231341 26.429735 41.571546 L 26.429735 14.205593 C 26.440443 13.545798 26.322384 12.231325 26.194278 11.583998 C 26.066171 10.936671 25.674670 9.676312 25.413465 9.070329 C 25.152259 8.464346 24.504780 7.314325 24.122128 6.776719 C 23.739475 6.239112 22.864902 5.250730 22.377872 4.805482 C 21.890842 4.360234 20.828188 3.577583 20.258507 3.244555 C 19.688825 2.911528 18.485495 2.369520 17.858575 2.163569 C 17.231656 1.957619 15.941329 1.680432 15.285137 1.610746 C 14.628945 1.541059 13.309181 1.541059 12.652989 1.610746 C 11.996797 1.680432 10.706470 1.957619 10.079550 2.163569 C 9.452631 2.369520 8.249301 2.911528 7.679619 3.244555 C 7.109938 3.577583 6.047284 4.360234 5.560254 4.805482 C 5.073224 5.250730 4.198651 6.239112 3.815998 6.776719 C 3.433346 7.314325 2.785867 8.464346 2.524661 9.070329 C 2.263456 9.676312 1.871955 10.936671 1.743848 11.583998 C 1.615742 12.231325 1.497683 13.545798 1.508391 14.205593 L 1.508391 41.571546 L 1.508391 41.571546 Z" transform="scale(1.000000,1.000000) translate(204.000000,237.000000)" opacity="1.000000"></path>
        <path d="M 24.206249 14.205593 C 24.226111 13.702467 24.182734 12.696366 24.119642 12.196816 C 24.056551 11.697266 23.848422 10.711972 23.704093 10.229583 C 23.559764 9.747194 23.192542 8.809500 22.970900 8.357388 C 22.749257 7.905276 22.232929 7.040680 21.940000 6.631140 C 21.647072 6.221599 20.995676 5.453611 20.639427 5.097779 C 20.283178 4.741946 19.514428 4.091450 19.104546 3.799000 C 18.694663 3.506551 17.829463 2.991235 17.377092 2.770122 C 16.924721 2.549009 15.986598 2.182884 15.504041 2.039120 C 15.021483 1.895355 14.035946 1.688379 13.536323 1.625872 C 13.036700 1.563365 12.030548 1.521165 11.527446 1.541616 C 10.972449 1.550601 9.868146 1.664286 9.322959 1.768562 C 8.777772 1.872837 7.709460 2.174700 7.190321 2.371160 C 6.671182 2.567621 5.670681 3.048670 5.193052 3.331464 C 4.715423 3.614258 3.812532 4.260166 3.390638 4.620871 C 2.968744 4.981576 2.190354 5.773106 1.836762 6.200978 L 7.664877 10.857181 C 7.823875 10.690460 8.165991 10.381816 8.348145 10.240763 C 8.530299 10.099711 8.914746 9.845733 9.115955 9.733523 C 9.317164 9.621314 9.735286 9.427720 9.951020 9.346881 C 10.166753 9.266041 10.609135 9.137190 10.834536 9.089541 C 11.059937 9.041892 11.516619 8.980685 11.746612 8.967299 C 13.568069 8.967299 16.774704 10.058167 16.774704 15.224585 L 16.774704 53.799795 L 24.206348 53.799795 L 24.206348 14.205593 Z" transform="scale(1.000000,1.000000) translate(238.000000,237.000000)" opacity="1.000000"></path>
        <path d="M 1.223525 53.799795 L 23.375772 53.799795 L 23.375772 46.812298 L 8.655176 46.812298 L 8.655176 31.601410 L 21.479811 31.601410 L 21.479811 24.613930 L 8.655176 24.613930 L 8.655176 9.401153 L 23.375772 9.401153 L 23.375772 1.977944 L 1.223525 1.977944 L 1.223525 53.799795 Z" transform="scale(1.000000,1.000000) translate(276.000000,237.000000)" opacity="1.000000"></path>
        <path d="M 25.816689 13.552893 C 25.818974 12.617222 25.533025 10.767849 25.248256 9.876561 C 24.963488 8.985273 24.124170 7.312702 23.579792 6.551690 C 23.035413 5.790678 21.723609 4.456093 20.972082 3.898695 C 20.220555 3.341296 18.562681 2.473307 17.676428 2.173237 C 16.790175 1.873167 14.945999 1.555423 14.010426 1.541599 C 8.327005 1.541599 1.768520 4.307953 1.768520 13.769212 L 1.768520 42.299232 C 1.753781 42.776161 1.802808 43.729213 1.866409 44.202112 C 1.930010 44.675011 2.134524 45.607152 2.274745 46.063240 C 2.414967 46.519328 2.769440 47.405365 2.982492 47.832316 C 3.195545 48.259266 3.690398 49.075253 3.970523 49.461527 C 4.250649 49.847802 4.872506 50.571685 5.212134 50.906843 C 5.551762 51.242002 6.283818 51.854217 6.673769 52.129201 C 7.063720 52.404186 7.886189 52.888187 8.315925 53.095565 C 8.745660 53.302944 9.636314 53.645650 10.094220 53.779818 C 10.552125 53.913986 11.486893 54.106135 11.960593 54.163466 C 12.434293 54.220798 13.387911 54.257197 13.864603 54.236142 C 14.346842 54.243294 15.309267 54.178786 15.786238 54.107341 C 16.263209 54.035896 17.202296 53.815580 17.661275 53.667444 C 18.120254 53.519308 19.010950 53.149061 19.439693 52.928186 C 19.868435 52.707310 20.686980 52.197009 21.074048 51.909287 C 21.461117 51.621565 22.185674 50.984823 22.520742 50.637930 C 22.855811 50.291037 23.467051 49.544840 23.741181 49.148030 C 24.015311 48.751219 24.496928 47.915475 24.702807 47.479333 C 24.908685 47.043191 25.247831 46.140194 25.379966 45.676356 C 25.512101 45.212517 25.699729 44.266357 25.754595 43.787195 C 25.809461 43.308034 25.840565 42.343951 25.816698 41.862250 L 25.816698 38.952726 L 18.383801 38.952726 L 18.383801 41.427758 C 18.383801 44.337884 16.634324 46.812298 13.793241 46.812298 C 10.075221 46.812298 9.200173 44.265371 9.200173 40.771949 L 9.200173 14.278708 C 9.200173 11.294163 10.366285 8.967299 13.718135 8.967299 C 15.759912 8.967299 18.383801 10.128858 18.383801 14.205560 L 18.383801 16.754358 L 25.816698 16.754358 L 25.816698 13.552894 Z" transform="scale(1.000000,1.000000) translate(310.000000,237.000000)" opacity="1.000000"></path>
        <path d="M 9.767910 46.812298 L 1.170172 46.812298 L 1.170172 53.799795 L 25.798559 53.799795 L 25.798559 46.812298 L 17.200804 46.812298 L 17.200804 1.977964 L 9.767907 1.977964 L 9.767907 46.812298 Z" transform="scale(1.000000,1.000000) translate(345.000000,237.000000)" opacity="1.000000"></path>
    </g>
</svg>