<?xml version="1.0" encoding="UTF-8" standalone="yes"?>
<!DOCTYPE svg PUBLIC "-//W3C//DTD SVG 1.1//EN" "http://www.w3.org/Graphics/SVG/1.1/DTD/svg11.dtd">

<svg width="500" height="500" viewBox="0 0 500 500" xmlns="http://www.w3.org/2000/svg" xmlns:xlink="http://www.w3.org/1999/xlink" version="1.1" baseProfile="full">
    <g transform="scale(1,-1) translate(0,-500)">
        <path d="M 2.000000 1.000000 L 502.000000 1.000000 C 502.000000 1.000000 502.000000 1.000000 502.000000 1.000000 L 502.000000 501.000000 C 502.000000 501.000000 502.000000 501.000000 502.000000 501.000000 L 2.000000 501.000000 C 2.000000 501.000000 2.000000 501.000000 2.000000 501.000000 L 2.000000 1.000000 C 2.000000 1.000000 2.000000 1.000000 2.000000 1.000000 Z" transform="scale(1.000000,1.000000) translate(-2.000000,-1.000000)" fill="#ffffff" opacity="1.000000"></path>
        <path d="M 1.306080 1.139613 L 230.694725 1.139613 L 230.694725 226.861490 L 1.306080 226.861490 Z" transform="scale(1.000000,1.000000) translate(134.000000,136.000000)" fill="#ffffff" opacity="1.000000"></path>
        <path d="M 2.305655 227.860937 L 1.924072 227.860937 L 1.924072 1.757479 L 232.075928 1.757479 L 232.075928 228.242521 L 1.924072 228.242521 L 1.924072 227.860937 L 2.305655 227.860937 L 2.305655 227.477961 L 231.311375 227.477961 L 231.311375 2.522033 L 2.687238 2.522033 L 2.688631 227.860937 L 2.305655 227.860937 L 2.305655 227.477961 Z" transform="scale(1.000000,1.000000) translate(133.000000,135.000000)" fill="#518022" opacity="1.000000"></path>
        <path d="M 199.030925 36.842816 L 179.081358 36.842816 L 179.081358 33.606321 L 187.293755 33.606321 L 187.293755 1.099320 L 190.867269 1.099320 L 190.867269 33.606321 L 199.030925 33.606321 L 199.030925 36.842816 M 172.744846 36.842816 L 152.795277 36.842816 L 152.795277 33.606321 L 161.006282 33.606321 L 161.006282 1.099320 L 164.581189 1.099320 L 164.581189 33.606321 L 172.744844 33.606321 L 172.744844 36.842816 M 146.747044 36.842816 L 127.184629 36.842816 L 127.184629 1.099318 L 146.747042 1.099318 L 146.747042 4.335814 L 130.759536 4.335814 L 130.759536 17.521329 L 146.216447 17.521329 L 146.216447 20.757824 L 130.759536 20.757824 L 130.759536 33.606321 L 146.747042 33.606321 L 146.747042 36.842816 M 120.992951 36.842816 L 116.404203 36.842816 L 100.029541 16.313910 L 99.933449 16.313910 L 99.933449 36.842816 L 96.358543 36.842816 L 96.358543 1.099318 L 99.933449 1.099318 L 99.933449 10.904896 L 104.570940 16.603579 L 116.500294 1.099318 L 120.992951 1.099318 L 106.840947 19.405571 L 120.992953 36.842816 M 73.743462 36.842816 L 64.662057 36.842816 L 64.662057 1.099318 L 68.236964 1.099318 L 68.236964 33.606319 L 74.467635 33.606319 C 77.461811 33.606319 79.298703 33.365392 81.423871 32.254066 C 83.741224 31.095389 85.335797 28.197305 85.335797 25.395314 C 85.335797 22.207561 83.355463 18.922323 79.443537 17.810996 C 77.848965 17.329143 76.303134 17.280400 71.763128 17.280400 L 83.887452 1.099316 L 88.378716 1.099316 L 78.283469 14.431058 C 85.190963 14.865562 88.910704 20.129741 88.910704 25.299221 C 88.910704 29.694392 86.543216 33.606318 82.533806 35.490560 C 80.891882 36.263478 78.525790 36.842816 73.743467 36.842816 M 43.544070 36.842816 L 39.534660 36.842816 L 24.271326 1.099318 L 27.991067 1.099318 L 33.207897 13.126157 L 49.823484 13.126157 L 54.992963 1.099318 L 58.904889 1.099318 L 43.544062 36.842816 M 34.560142 16.362653 L 41.563728 32.786056 L 48.423872 16.362653 L 34.560147 16.362653 M 11.364338 36.842816 L 1.413926 36.842816 L 1.413926 1.099318 L 4.987440 1.099318 L 4.987440 15.493646 L 11.364338 15.493646 C 16.290106 15.493646 18.608852 16.266561 20.589185 17.570072 C 23.246342 19.356829 25.033100 22.401140 25.033100 26.168231 C 25.033100 29.935322 23.246342 32.978240 20.589185 34.766390 C 18.608851 36.069901 16.290106 36.842816 11.364338 36.842816 M 4.987440 18.728748 L 4.987440 33.606320 L 10.156919 33.606320 C 13.972753 33.606320 15.276264 33.606320 17.305340 32.688570 C 20.107332 31.385059 21.459585 28.872737 21.459585 26.168230 C 21.459585 23.463723 20.107332 20.951401 17.305340 19.646497 C 15.276264 18.728747 13.972753 18.728747 10.156919 18.728747 L 4.987440 18.728747 Z" transform="scale(1.000000,1.000000) translate(150.000000,219.000000)" fill="#141214" opacity="1.000000"></path>
        <path d="M 1.855530 13.075561 C 2.256610 4.911905 9.168282 1.706049 13.926933 1.706049 C 19.737027 1.706049 25.946808 5.512134 25.946808 13.526777 C 25.946808 21.590162 19.285811 23.945116 16.230359 24.946424 C 12.474409 26.198407 10.069320 26.900298 10.069320 30.104763 C 10.069320 32.309312 11.722384 33.862105 13.876798 33.862105 C 15.729009 33.862105 17.733018 33.009809 18.033828 29.705075 L 25.045770 29.705075 C 24.694824 37.267110 18.384773 40.272427 14.077337 40.272427 C 7.816028 40.272427 3.207783 35.615439 3.207783 29.705075 C 3.207783 21.890972 9.168282 20.137639 12.023194 19.036060 C 16.631439 17.282727 19.085271 16.582229 19.085271 12.774751 C 19.085271 9.969975 16.681575 8.116371 13.977068 8.116371 C 11.872789 8.116371 9.418957 9.369747 9.068012 13.075562 Z M 38.218752 2.456681 L 45.080289 2.456681 L 45.080289 33.110079 L 51.991961 33.110079 L 51.991961 39.521793 L 31.355823 39.521793 L 31.355823 33.110079 L 38.218753 33.110079 Z M 68.270528 42.827921 L 74.981659 42.827921 L 74.981659 49.488918 L 68.270528 49.488918 Z M 78.839273 42.827921 L 85.500270 42.827921 L 85.500270 49.488918 L 78.839273 49.488918 Z M 57.501246 20.889664 C 57.501246 10.270784 66.216387 1.706049 76.885401 1.706049 C 87.554416 1.706049 96.269556 10.270785 96.269556 20.889664 C 96.269556 31.858096 87.404010 40.272427 76.885401 40.272427 C 66.366791 40.272427 57.501246 31.858097 57.501246 20.889664 M 64.364176 20.939799 C 64.364176 28.052011 69.923594 33.862105 76.885402 33.862105 C 83.847209 33.862105 89.406628 28.052012 89.406628 20.939799 C 89.406628 14.076869 83.947479 8.116370 76.885402 8.116370 C 69.823324 8.116370 64.364176 14.076869 64.364176 20.939799 M 131.880752 12.774751 C 130.227689 11.021417 127.523182 8.116370 122.565383 8.116370 C 116.003264 8.116370 110.243306 14.076869 110.243306 21.040069 C 110.243306 28.451698 116.304075 33.862104 122.314709 33.862104 C 126.421604 33.862104 129.577327 32.008501 132.231698 28.953048 L 140.045801 28.953048 C 136.488999 37.067962 128.725031 40.272426 122.565384 40.272426 C 111.846234 40.272426 103.381769 31.356745 103.381769 21.138945 C 103.381769 10.671864 111.996640 1.706047 122.714397 1.706047 C 129.828002 1.706047 136.940215 5.963347 139.845261 12.774749 Z M 148.960089 2.456681 L 155.823019 2.456681 L 155.823019 18.735250 L 155.923289 18.735250 L 167.493341 2.456681 L 175.556726 2.456681 L 161.582978 21.289351 L 175.556723 39.521793 L 167.493338 39.521793 L 155.923285 23.493900 L 155.823015 23.493900 L 155.823015 39.521793 L 148.960086 39.521793 Z M 182.919615 2.456681 L 201.101922 2.456681 L 201.101922 8.868396 L 189.781152 8.868396 L 189.781152 39.521793 L 182.919615 39.521793 Z" transform="scale(1.000000,1.000000) translate(148.000000,264.000000)" fill="#518022" opacity="1.000000"></path>
        <path d="M 1.481410 1.520940 L 2.860123 1.520940 L 2.860123 7.821243 L 8.246854 7.821243 L 8.246854 9.069049 L 2.860123 9.069049 L 2.860123 14.064448 L 8.452965 14.064448 L 8.452965 15.313646 L 1.481410 15.313646 Z M 11.005675 1.520940 L 12.384388 1.520940 L 12.384388 15.313646 L 11.005675 15.313646 Z M 15.478834 1.520940 L 16.858940 1.520940 L 16.858940 14.064448 L 19.262637 14.064448 C 20.418528 14.064448 21.125989 13.971141 21.946254 13.543601 C 22.841722 13.095171 23.455876 11.976881 23.455876 10.896192 C 23.455876 9.666491 22.692709 8.399189 21.183087 7.970255 C 20.567540 7.783642 19.971491 7.765538 18.219550 7.765538 L 22.897427 1.520940 L 24.631264 1.520940 L 20.734657 6.665352 C 23.400170 6.832469 24.835982 8.864330 24.835982 10.858591 C 24.835982 12.554826 23.922410 14.064448 22.375187 14.791406 C 21.741536 15.089431 20.827964 15.313646 18.982716 15.313646 L 15.478833 15.313646 Z M 26.270400 5.378553 C 26.326106 2.341205 28.731195 1.278620 30.520737 1.278620 C 32.962035 1.278620 34.676375 3.199071 34.676375 5.322847 C 34.676375 5.733676 34.695872 8.399189 31.303401 9.311368 C 29.495754 9.833608 28.022341 10.224940 28.022341 11.903071 C 28.022341 13.095171 28.935913 14.306767 30.520737 14.306767 C 31.825641 14.306767 32.962035 13.207974 32.962035 11.809764 L 34.342142 11.809764 C 34.342142 13.822129 32.775422 15.555966 30.520738 15.555966 C 28.339863 15.555966 26.643628 13.990638 26.643628 11.847365 C 26.643628 9.106650 28.973515 8.584410 30.222713 8.212575 C 31.154389 7.932654 33.297662 7.392310 33.297662 5.267141 C 33.297662 3.646108 31.974654 2.527819 30.520738 2.527819 C 28.824502 2.527819 27.724317 3.646108 27.650506 5.378553 Z M 38.795806 1.520940 L 40.175912 1.520940 L 40.175912 14.064448 L 43.324671 14.064448 L 43.324671 15.313646 L 35.627548 15.313646 L 35.627548 14.064448 L 38.795804 14.064448 Z M 49.773987 5.378553 C 49.829692 2.341205 52.234781 1.278620 54.024324 1.278620 C 56.465622 1.278620 58.179961 3.199071 58.179961 5.322847 C 58.179961 5.733676 58.199458 8.399189 54.806987 9.311368 C 52.997948 9.833608 51.525928 10.224940 51.525928 11.903071 C 51.525928 13.095171 52.439500 14.306767 54.024324 14.306767 C 55.327835 14.306767 56.465622 13.207974 56.465622 11.809764 L 57.844335 11.809764 C 57.844335 13.822129 56.279008 15.555966 54.024324 15.555966 C 51.843450 15.555966 50.147214 13.990638 50.147214 11.847365 C 50.147214 9.106650 52.477101 8.584410 53.724906 8.212575 C 54.657975 7.932654 56.801248 7.392310 56.801248 5.267141 C 56.801248 3.646108 55.478240 2.527819 54.024324 2.527819 C 52.328089 2.527819 51.227903 3.646108 51.152701 5.378553 Z M 62.299392 1.520940 L 63.678105 1.520940 L 63.678105 14.064448 L 66.828257 14.064448 L 66.828257 15.313646 L 59.131134 15.313646 L 59.131134 14.064448 L 62.299390 14.064448 Z M 68.635904 1.520940 L 76.185405 1.520940 L 76.185405 2.770138 L 70.016010 2.770138 L 70.016010 7.858844 L 75.980687 7.858844 L 75.980687 9.106650 L 70.016010 9.106650 L 70.016010 14.064448 L 76.185405 14.064448 L 76.185405 15.313646 L 68.635904 15.313646 Z M 79.093237 1.520940 L 80.471951 1.520940 L 80.471951 7.074788 L 82.932745 7.074788 C 84.833699 7.074788 85.727774 7.374206 86.492333 7.876949 C 87.517316 8.566305 88.206673 9.740301 88.206673 11.194217 C 88.206673 12.648133 87.517316 13.822128 86.492333 14.512878 C 85.727774 15.015621 84.833699 15.313646 82.932745 15.313646 L 79.093234 15.313646 Z M 80.471951 14.064448 L 82.466211 14.064448 C 83.938232 14.064448 84.442367 14.064448 85.225031 13.710717 C 86.305719 13.207974 86.827959 12.238697 86.827959 11.194217 C 86.827959 10.151130 86.305719 9.181852 85.225031 8.677716 C 84.442364 8.323986 83.938229 8.323986 82.466210 8.323986 L 80.471950 8.323986 Z M 95.941397 1.520940 L 97.321504 1.520940 L 97.321504 7.821243 L 102.708235 7.821243 L 102.708235 9.069049 L 97.321504 9.069049 L 97.321504 14.064448 L 102.912953 14.064448 L 102.912953 15.313646 L 95.941397 15.313646 Z M 104.851508 8.343483 C 104.851508 4.466374 108.224481 1.278621 112.139192 1.278621 C 115.996805 1.278621 119.444981 4.353570 119.444981 8.417293 C 119.444981 12.481017 116.016302 15.555966 112.139192 15.555966 C 108.466801 15.555966 104.851508 12.685734 104.851508 8.343483 M 106.230221 8.343483 C 106.230221 11.772163 109.026642 14.306768 112.139193 14.306768 C 115.400755 14.306768 118.066268 11.623150 118.066268 8.399189 C 118.066268 5.118129 115.326945 2.527819 112.139193 2.527819 C 108.933335 2.527819 106.230221 5.193332 106.230221 8.343483 M 121.923878 1.520940 L 123.303984 1.520940 L 123.303984 14.064448 L 125.707681 14.064448 C 126.863572 14.064448 127.572426 13.971141 128.392691 13.543601 C 129.286765 13.095171 129.902312 11.976881 129.902312 10.896192 C 129.902312 9.666491 129.137753 8.399189 127.628131 7.970255 C 127.012584 7.783642 126.416532 7.765538 124.664597 7.765538 L 129.342465 1.520940 L 131.076302 1.520940 L 127.181096 6.665352 C 129.845216 6.832469 131.281028 8.864330 131.281028 10.858591 C 131.281028 12.554826 130.367456 14.064448 128.820233 14.791406 C 128.186582 15.089431 127.274403 15.313646 125.427762 15.313646 L 121.923880 15.313646 Z M 139.370871 1.520940 L 146.452446 1.520940 L 146.452446 2.770138 L 140.749585 2.770138 L 140.749585 15.313646 L 139.370872 15.313646 Z M 148.241988 1.520940 L 149.620701 1.520940 L 149.620701 15.313646 L 148.241988 15.313646 Z M 157.245405 1.520940 L 158.606015 1.520940 L 164.326979 15.313646 L 162.836854 15.313646 L 157.952866 3.235280 L 153.088375 15.313646 L 151.559256 15.313646 Z M 166.285032 1.520940 L 167.663745 1.520940 L 167.663745 15.313646 L 166.285032 15.313646 Z M 170.851498 1.520940 L 172.230212 1.520940 L 172.230212 13.655012 L 172.267813 13.655012 L 180.449564 1.520940 L 181.829670 1.520940 L 181.829670 15.313646 L 180.449564 15.313646 L 180.449564 3.868931 L 180.413355 3.868931 L 172.714842 15.313647 L 170.851490 15.313647 Z M 189.695310 7.858845 L 189.695310 6.609646 L 197.392431 6.609646 C 196.907792 4.689196 194.746415 2.527819 191.819086 2.527819 C 188.277602 2.527819 185.742998 5.322847 185.742998 8.399189 C 185.742998 11.474138 188.277603 14.306768 191.763380 14.306768 C 194.057058 14.306768 195.882809 13.001864 196.665473 11.641255 L 198.268402 11.641255 C 197.728057 13.039465 195.398170 15.555966 191.745276 15.555966 C 187.327822 15.555966 184.364284 11.996378 184.364284 8.417294 C 184.364284 4.615386 187.643951 1.278621 191.763380 1.278621 C 195.155851 1.278621 198.734936 3.757520 199.051065 7.858845 Z" transform="scale(1.000000,1.000000) translate(150.000000,172.000000)" fill="#518022" opacity="1.000000"></path>
    </g>
</svg>