<?xml version="1.0" encoding="UTF-8" standalone="yes"?>
<!DOCTYPE svg PUBLIC "-//W3C//DTD SVG 1.1//EN" "http://www.w3.org/Graphics/SVG/1.1/DTD/svg11.dtd">

<svg width="500" height="500" viewBox="0 0 500 500" xmlns="http://www.w3.org/2000/svg" xmlns:xlink="http://www.w3.org/1999/xlink" version="1.1" baseProfile="full">
    <g transform="scale(1,-1) translate(0,-500)">
        <path d="M 40.958030 42.787943 L 40.070842 44.562318 L 36.522087 40.126376 L 40.958030 42.787943 Z M 49.386318 42.787943 L 49.386318 45.449505 L 45.837563 45.449505 L 44.174082 40.680869 L 43.619592 36.134030 L 43.619592 35.801332 L 43.619592 35.718158 L 43.619592 35.690434 L 46.142544 36.799420 L 47.944644 38.351996 L 49.025900 40.348168 L 49.386318 42.787943 Z M 70.678840 53.434202 L 70.661513 53.423805 L 70.609529 53.392615 L 70.401596 53.267855 L 69.569860 52.768814 L 66.242898 50.772639 L 68.904465 50.772639 L 70.346146 51.881622 L 71.122436 53.434202 L 71.094711 53.434202 L 71.011537 53.434202 L 70.678840 53.434202 Z M 132.338433 103.116754 L 127.015308 103.116754 L 124.617123 102.687025 L 121.414935 101.397835 L 112.598496 96.241044 L 104.003846 90.307966 L 99.068868 86.260174 L 102.284934 84.929389 L 103.310742 84.596695 L 103.948406 84.485797 L 106.609973 85.594783 L 109.271540 86.703768 L 110.824121 86.537422 L 111.933105 86.038380 L 112.598494 85.206641 L 112.820290 84.042203 L 112.820290 83.155014 L 116.285873 89.171280 L 118.288974 91.534806 L 120.472284 93.468597 L 122.835805 94.972653 L 125.379539 96.046978 L 128.103488 96.691571 L 131.007654 96.906435 L 131.340352 96.906435 L 131.423525 96.906435 L 131.451250 96.906435 L 131.458181 96.937625 L 131.478974 97.031195 L 131.562147 97.405476 L 131.894837 98.902609 L 132.338433 103.116754 Z M 121.692174 106.665507 L 118.725631 108.633958 L 116.036345 110.990547 L 113.624308 113.735283 L 111.489511 116.868174 L 109.936927 118.420759 L 107.940759 119.529745 L 105.500996 120.195133 L 102.617626 120.416929 L 96.850897 120.416929 L 101.730429 119.418844 L 107.497156 117.311768 L 109.243817 115.814636 L 110.491427 113.984815 L 111.239990 111.822297 L 111.489511 109.327073 L 111.045916 105.667419 L 109.715127 102.673159 L 115.370953 104.336636 L 121.692174 106.665507 Z M 130.120462 135.055538 L 121.692174 154.573682 L 111.933098 150.581335 L 113.735205 149.777322 L 115.592754 148.252472 L 119.474203 143.040231 L 121.636726 140.045962 L 124.131939 137.717095 L 126.959848 136.053623 L 130.120462 135.055538 Z M 159.397681 105.778319 L 158.954090 108.550783 L 157.623298 111.545045 L 154.961739 109.327073 L 154.961739 105.778319 Z M 116.369040 160.783999 L 116.812636 162.114786 L 116.369045 164.998145 L 115.038261 168.325104 L 113.263883 170.986670 L 111.489511 171.873854 L 108.107094 168.907316 L 105.057388 165.330846 L 102.340380 161.144431 L 99.956060 156.348057 L 102.174031 155.904465 L 104.392002 155.460869 L 108.717036 156.791645 L 116.369040 160.783999 Z M 110.602319 181.189334 L 110.269626 183.518210 L 109.271543 185.181689 L 107.608064 186.179774 L 105.279185 186.512468 L 104.724694 186.304535 L 103.948407 185.680735 L 101.730443 183.185527 L 94.632926 173.204642 L 97.294493 171.208461 L 99.956060 170.543075 L 100.829384 170.834181 L 102.118576 171.707503 L 105.944583 175.200810 L 109.437890 179.026818 L 110.311212 180.316009 L 110.602319 181.189334 Z M 93.745742 194.940756 L 88.866204 198.489506 L 88.200815 196.604233 L 86.204638 194.497160 L 86.870030 193.499075 L 87.091829 192.279189 L 90.640580 192.279189 L 93.745742 194.940756 Z M 88.422609 210.910149 L 87.313625 211.575538 L 85.761042 211.797332 L 84.097562 206.585091 L 83.681693 205.392936 L 83.577726 205.150349 L 83.562564 205.126523 L 83.551735 205.117427 L 83.543071 205.143419 L 84.430262 202.925448 L 86.648233 207.139597 L 87.979018 209.523915 L 88.422609 210.910149 Z M 170.931124 126.627246 L 167.382374 128.401625 L 166.938786 127.514433 L 170.487536 125.740058 Z M 105.279185 194.053564 L 104.835597 194.940756 L 103.061214 194.053564 L 103.061214 192.722785 Z M 143.428288 169.655883 L 140.655822 169.877679 L 138.548750 170.543075 L 137.217972 168.546897 L 135.000000 167.881508 L 131.562140 167.548810 L 130.591781 167.465636 L 130.293742 167.444843 L 130.120462 167.437912 L 133.669221 159.009624 L 134.889103 156.653022 L 136.330779 154.906372 L 137.994255 153.769666 L 139.879538 153.242898 L 141.875710 160.007701 L 143.428288 169.655883 Z M 167.825978 134.611942 L 162.946429 140.045973 L 159.841269 144.814610 L 158.510492 140.378660 L 158.177799 139.158780 L 158.094626 138.798361 L 158.066902 138.604289 L 161.393850 134.390147 L 166.938786 129.732404 L 166.938786 131.506784 L 167.825978 134.611942 Z M 193.998026 112.432232 L 193.221741 115.204696 L 190.892863 118.198958 L 187.898605 120.527830 L 185.126142 121.304116 L 184.793451 121.304116 L 184.710278 121.304116 L 184.682554 121.304116 L 184.682554 111.545045 L 186.013334 111.988638 L 187.565906 111.988638 L 189.562084 111.988638 L 192.889049 112.099536 L 193.720783 112.238159 L 193.928715 112.328264 L 193.998026 112.432232 Z M 141.210317 188.730439 L 140.891486 189.395827 L 139.934991 190.504808 L 136.108986 194.053564 L 131.950287 197.380526 L 130.577920 198.212262 L 129.676866 198.489506 L 129.645676 198.479110 L 129.552107 198.447920 L 129.177827 198.323160 L 127.680705 197.824120 L 121.692174 195.827939 L 124.021049 194.164463 L 124.603265 193.083204 L 124.797337 191.835593 L 123.688351 188.952233 L 122.856610 187.122406 L 122.579366 185.625276 L 126.128116 188.065041 L 127.902496 189.562178 L 128.456987 189.936459 L 128.789683 190.061218 L 133.447419 188.952233 L 136.164438 188.120491 L 137.661567 187.843247 L 140.101336 188.065043 L 141.210317 188.730439 Z M 174.479891 156.791653 L 170.931124 156.791653 L 167.825978 153.242898 L 172.151025 155.017275 L 174.479891 156.791653 Z M 127.902491 205.587015 L 125.573621 207.583193 L 123.910145 208.248582 L 122.579367 207.638641 L 120.361395 205.808809 L 118.254316 203.757189 L 117.256232 202.481852 L 126.349934 204.810728 L 127.445052 205.150354 L 128.068850 205.392944 L 128.204005 205.477850 L 128.221330 205.538497 L 128.120825 205.574886 L 127.902491 205.587015 Z M 173.149095 167.881508 L 166.273380 170.543077 L 165.455506 170.931219 L 164.998052 171.208464 L 164.904483 171.305499 L 164.901018 171.374810 L 164.987658 171.416396 L 165.164403 171.430258 L 163.417748 171.014392 L 162.170143 169.766789 L 161.421584 167.687443 L 161.172065 164.776345 L 161.172065 159.896815 L 167.493277 163.223768 L 173.149095 167.881508 Z M 61.363360 273.013338 L 61.363360 278.336472 L 56.927418 278.336472 L 61.363360 273.013338 Z M 93.302146 244.179715 L 91.305967 244.983727 L 89.753389 246.064982 L 88.644406 247.423486 L 87.979013 249.059244 L 92.414955 255.713157 L 86.093739 253.384291 L 80.437916 251.720819 L 82.877681 244.623302 L 83.751006 242.876647 L 84.818400 241.629042 L 86.079869 240.880483 L 87.535417 240.630964 L 90.307885 241.518145 L 93.302146 244.179715 Z M 124.797337 219.782033 L 124.741887 221.223712 L 124.575535 222.000004 L 124.526151 222.079712 L 124.433447 222.207937 L 124.118082 222.609941 L 122.967515 223.996167 L 118.587011 229.097505 L 115.925448 230.428297 L 113.263886 230.871888 L 109.271540 230.871888 L 108.827944 229.762903 L 108.384348 228.210321 L 108.717041 227.489480 L 109.715124 226.214150 L 113.707482 222.000004 L 117.699832 217.785851 L 118.697914 216.510520 L 119.030607 215.789679 L 119.025409 215.782314 L 119.009814 215.760221 L 118.947434 215.671850 L 118.697914 215.318364 L 117.699832 213.904415 L 113.707482 208.248582 L 114.483767 208.913970 L 115.925441 210.022951 L 120.804982 213.571708 L 122.551643 214.957945 L 123.799253 216.455073 L 124.547817 218.063101 L 124.797337 219.782033 Z M 91.527771 260.592703 L 91.527771 263.254262 L 87.979013 263.254262 L 85.123371 261.313528 L 82.323188 259.927297 L 79.578454 259.095563 L 76.889158 258.818320 L 72.785913 259.151013 L 68.460869 260.149099 L 68.460869 256.600349 L 79.994320 256.600349 L 80.659709 256.711246 L 81.768689 257.043941 L 85.317446 258.374732 L 91.527771 260.592703 Z M 241.019022 100.011595 L 238.357446 102.673159 L 237.913859 102.229566 L 240.575417 99.568000 Z M 108.827944 236.195022 L 107.053569 240.187360 L 107.053569 235.307830 L 107.718956 235.529626 L 108.827944 236.195022 Z M 148.751414 196.271535 L 148.086032 200.929279 L 147.420634 206.030611 L 145.868061 205.587015 L 145.036320 205.254317 L 144.828387 205.171144 L 144.776404 205.150350 L 144.759076 205.143419 L 144.759076 202.481852 L 148.751414 196.271535 Z M 87.979013 280.554443 L 84.430262 280.554443 L 78.441749 279.889049 L 69.348057 277.892867 L 68.017274 276.894779 L 67.573682 275.674896 L 73.340407 273.456925 L 75.336586 272.542013 L 76.889164 271.128060 L 77.998144 269.215061 L 78.663533 266.803012 L 75.891074 265.139534 L 72.009624 263.697849 L 79.107129 262.367070 L 86.204638 265.915820 L 84.374810 266.913911 L 82.434085 269.020983 L 80.936955 271.238959 L 80.437916 272.569734 L 80.909231 273.734174 L 82.323180 275.453100 L 87.979013 280.554443 Z M 170.043949 185.625276 L 170.033552 185.646069 L 170.002362 185.708449 L 169.877600 185.957969 L 169.378555 186.956052 L 167.382374 190.948410 L 164.388114 185.403476 L 163.639555 182.797365 L 163.390036 180.302142 L 163.611830 178.555486 L 164.277217 177.307878 L 165.386201 176.559316 L 166.938786 176.309796 L 167.825978 176.309796 L 168.934963 181.411128 L 169.766698 184.128150 L 170.043949 185.625276 Z M 71.122436 290.757106 L 71.122436 292.087885 L 68.460869 292.087885 L 68.460869 290.757106 Z M 126.571712 249.059244 L 123.910145 252.164407 L 122.357565 253.938786 L 121.248578 254.825965 L 119.474203 251.720819 L 118.476116 249.946438 L 118.226597 249.391945 L 118.143424 249.059244 L 121.692174 248.615657 L 126.571712 249.059244 Z M 130.564058 255.713157 L 129.233279 255.713157 L 128.346087 253.051599 L 129.233279 252.607994 Z M 115.925453 271.238954 L 111.933098 276.118501 L 106.609973 276.118501 L 113.263886 268.577396 Z M 164.720815 232.202668 L 164.720815 232.202659 L 164.720815 232.868053 L 164.720815 233.977051 L 164.471294 235.557354 L 163.722729 237.193104 L 160.728460 240.630964 L 157.179710 237.525801 L 159.508584 230.760990 L 161.172065 222.000004 L 163.833628 227.877627 L 164.720815 232.202668 Z M 142.097509 254.382378 L 141.432113 257.820227 L 141.210317 261.923483 L 141.210317 263.254262 L 138.548750 263.254262 L 136.885271 260.703598 L 136.330779 257.487541 L 142.097509 254.382378 Z M 166.938786 246.397686 L 164.942605 244.956001 L 164.277211 243.292523 L 166.051594 241.518139 L 166.273390 244.290609 L 166.938786 246.397686 Z M 159.397681 255.269570 L 158.954090 256.600349 L 157.623298 257.931128 L 154.518152 257.931128 L 154.629049 257.265745 L 154.961739 256.156761 L 154.961739 254.382378 L 157.845108 254.825965 L 159.009540 255.158671 L 159.300646 255.241845 L 159.373423 255.262639 L 159.397681 255.269570 Z M 133.669221 292.531473 L 127.347993 295.525747 L 125.434999 296.274308 L 124.353741 296.523827 L 118.143424 296.523827 L 118.448391 296.149544 L 119.141502 295.470293 L 121.692158 293.196881 L 131.451250 284.990385 L 133.669221 292.531473 Z M 190.892863 237.525801 L 190.892863 240.630964 L 186.567818 239.965568 L 185.486560 239.799221 L 185.216246 239.757635 L 185.148668 239.747238 L 185.126142 239.743772 L 190.892863 237.525801 Z M 135.887192 312.936816 L 133.447422 316.707367 L 130.564058 320.034317 L 128.789680 318.703540 L 127.015308 318.259950 L 123.022956 318.703540 L 119.917799 320.034317 L 114.594665 323.583067 L 112.487595 320.256108 L 111.517234 319.424371 L 110.602319 319.147125 L 109.049741 319.757070 L 107.053569 321.586907 L 105.168287 323.527631 L 103.948406 324.470259 L 101.730436 321.697797 L 98.625272 319.590729 L 98.625272 315.598375 L 100.177855 314.267598 L 101.286839 313.824008 L 104.502898 316.152872 L 107.940752 316.929154 L 112.820290 316.041979 L 114.372870 313.713101 L 115.481857 312.936816 L 116.646290 315.376585 L 117.478026 316.485567 L 118.642458 316.818257 L 120.804982 316.929154 L 124.464639 316.707360 L 127.458895 316.041979 L 127.458895 312.936816 L 127.507413 313.082369 L 127.652967 313.297232 L 128.235183 313.934894 L 130.564058 316.041979 L 135.887192 312.936816 Z M 128.789683 372.378430 L 128.595611 373.626040 L 128.013395 374.707298 L 125.684520 376.370784 L 126.128114 373.820121 L 127.458895 370.604063 L 127.791592 371.269446 L 128.789683 372.378430 Z M 120.361395 380.806726 L 118.587011 387.017052 L 115.925453 387.017052 L 116.202697 385.797166 L 117.034433 384.355489 L 120.361395 380.806726 Z M 135.887192 371.934842 L 134.556404 370.160459 L 133.225625 368.386092 L 135.000000 367.498900 L 135.665393 369.273277 L 135.887192 371.934842 Z M 144.759076 371.047651 L 144.454107 370.105014 L 143.539198 368.607888 L 139.879538 363.950150 L 141.543015 362.619358 L 142.984692 362.175766 L 144.315484 366.389908 L 144.759076 371.047651 Z M 158.954094 369.273284 L 156.292518 369.716871 L 153.630960 370.160459 L 152.743768 366.611708 L 155.848931 367.942488 L 158.954094 369.273284 Z M 143.871884 407.422379 L 140.323134 410.083937 L 139.879538 408.753175 L 142.984692 406.091583 Z M 268.078261 106.665507 L 267.634670 102.978118 L 266.303893 100.344279 L 264.085924 98.763981 L 260.980761 98.237217 L 258.540988 98.569911 L 255.657627 99.568000 L 255.574454 99.152132 L 255.324934 98.348120 L 254.326848 95.575652 L 253.217858 94.577564 L 250.778081 94.244870 L 248.671013 94.688462 L 245.898551 96.019246 L 245.898551 95.353855 L 245.898551 94.965711 L 245.898551 94.244870 L 245.898551 92.914087 L 245.898551 92.581391 L 245.898551 92.498217 L 245.898551 92.470493 L 244.567770 91.139708 L 242.349801 90.696116 L 239.410985 91.361504 L 236.804873 93.357681 L 234.309652 95.686553 L 231.703533 97.350029 L 230.705447 95.908349 L 230.372754 94.244870 L 225.493224 94.244870 L 222.609857 97.128235 L 220.170091 98.680812 L 216.177738 94.355761 L 214.514263 93.274505 L 213.072573 92.914087 L 210.632813 94.023067 L 206.862265 97.350029 L 201.871817 92.248690 L 200.624216 90.529768 L 200.208351 89.365333 L 200.818289 86.648310 L 202.648108 84.707586 L 205.697817 83.543156 L 209.967427 83.155014 L 216.621340 83.155014 L 217.314449 83.265912 L 218.506604 83.598606 L 222.388062 84.929391 L 226.269513 86.260176 L 227.461667 86.592870 L 228.154783 86.703768 L 229.651913 86.426524 L 231.038144 85.594788 L 232.313477 84.208557 L 233.477917 82.267826 L 235.474092 78.940864 L 237.026667 77.831884 L 238.579240 77.831884 L 240.131830 77.831884 L 246.397616 78.025955 L 251.443496 78.608170 L 255.269484 79.578532 L 257.875598 80.937043 L 260.537167 78.940871 L 261.202554 77.776438 L 261.424348 76.501102 L 261.424348 71.621565 L 256.988410 71.288873 L 251.665272 69.403595 L 252.219771 68.738202 L 252.996052 68.516405 L 252.996052 64.967653 L 251.332575 62.860581 L 250.778081 60.088115 L 250.778081 59.200927 L 244.567772 56.982956 L 246.785743 54.764985 L 246.785743 52.103418 L 244.235077 51.438028 L 240.131830 51.216231 L 238.357446 51.216231 L 238.357446 51.188507 L 238.357446 51.105333 L 238.357446 50.772639 L 238.357446 50.107246 L 238.357446 48.998260 L 238.801051 46.780289 L 233.034312 46.780289 L 230.261859 47.889269 L 226.380399 51.216231 L 220.613678 50.772639 L 223.829734 48.665569 L 228.154783 45.005914 L 228.154783 41.900755 L 226.713103 41.235361 L 224.162428 41.013563 L 221.168175 41.845299 L 217.508515 44.340520 L 213.848868 46.835742 L 210.854602 47.667476 L 209.967427 47.223885 L 211.630903 45.338607 L 212.185398 44.118726 L 212.185398 39.239188 L 207.749456 39.239188 L 206.806819 39.710503 L 205.309692 41.124454 L 200.651939 46.780289 L 199.321162 45.338610 L 198.877572 43.675130 L 199.321160 41.457159 L 199.321160 38.795592 L 196.215997 38.795592 L 196.131091 38.821584 L 195.987271 38.899559 L 195.522887 39.211459 L 193.887142 40.459063 L 187.787717 45.449505 L 185.569746 44.340520 L 183.351775 43.231534 L 181.078347 43.550366 L 179.137622 44.506863 L 177.529595 46.101030 L 176.254258 48.332870 L 170.487536 63.636869 L 168.934963 65.078550 L 165.164403 66.742028 L 161.948353 71.732459 L 156.736123 78.719073 L 155.405335 78.386378 L 154.074547 77.388289 L 154.074547 49.441856 L 160.284873 1.090085 L 123.466549 1.090085 L 123.466549 4.195248 L 124.963685 6.094383 L 126.349919 9.130219 L 128.789685 18.612011 L 130.785854 32.640667 L 132.338433 51.216231 L 132.172087 52.047970 L 131.673043 53.656000 L 131.007654 56.982956 L 132.116639 65.633043 L 132.948381 70.235340 L 133.156314 71.496807 L 133.208297 71.867622 L 133.225625 72.065160 L 132.671133 77.499188 L 131.007654 83.155014 L 126.848948 79.079486 L 123.244750 74.837625 L 120.195047 70.429415 L 117.699828 65.854841 L 117.367132 65.494421 L 116.812641 64.856757 L 115.038261 62.749682 L 113.374778 60.309912 L 112.820290 58.313740 L 112.854945 58.320672 L 112.958911 58.119670 L 113.374778 57.093863 L 115.038261 52.547014 L 113.152991 50.439942 L 109.271540 47.667476 L 107.885303 48.097209 L 106.831766 48.942808 L 106.110927 50.204279 L 105.722781 51.881625 L 104.835597 58.757334 L 104.003855 57.482002 L 103.283016 55.430377 L 102.562174 53.378751 L 101.730435 52.103418 L 99.512460 50.162688 L 97.294493 48.776457 L 95.076526 47.944721 L 92.858551 47.667476 L 91.416868 47.889274 L 90.640580 48.554668 L 90.196984 46.780289 L 90.196984 45.560403 L 90.196984 45.428711 L 90.196984 45.388857 L 90.196984 45.366331 L 90.196984 45.373263 L 90.196984 45.449505 L 85.761042 45.449505 L 85.761042 45.477230 L 85.761042 45.560405 L 85.761042 45.893101 L 85.317451 47.889277 L 83.986666 49.441856 L 85.705587 50.661740 L 89.087998 51.659827 L 92.803103 53.101505 L 95.520117 55.652173 L 95.520117 55.984870 L 95.520117 56.068044 L 95.520117 56.095769 L 95.076524 57.093856 L 93.745742 57.426550 L 93.948480 57.412688 L 93.993966 57.395360 L 94.002198 57.371101 L 93.973175 57.339911 L 93.906897 57.301790 L 93.662577 57.204755 L 91.195096 56.539366 L 79.107129 53.877798 L 76.001976 51.438031 L 71.122436 48.554668 L 60.032581 47.445683 L 57.315559 46.849602 L 54.931244 45.726758 L 52.879626 44.077144 L 51.160697 41.900755 L 50.384408 38.823315 L 48.942732 35.357743 L 44.063188 27.262145 L 39.627246 27.262145 L 38.296463 29.036521 L 39.959942 31.032695 L 41.401621 33.472463 L 38.740058 33.472463 L 35.191304 33.028871 L 29.868174 33.472463 L 30.145419 34.082405 L 30.977160 35.025044 L 31.808900 36.078579 L 32.086145 37.021217 L 31.642550 38.352001 L 25.986712 34.692341 L 24.905457 33.777431 L 24.988636 33.472463 L 20.109101 33.472463 L 17.780228 40.015492 L 17.440602 40.784847 L 17.198013 41.207644 L 17.113107 41.289082 L 17.052460 41.283882 L 17.016071 41.192042 L 17.003942 41.013563 L 17.530706 42.704772 L 19.111004 44.229625 L 21.744843 45.588128 L 25.432232 46.780289 L 26.984812 46.336697 L 28.537391 45.893101 L 29.646376 46.447591 L 31.198956 48.111072 L 23.214261 57.426550 L 17.891130 49.885447 L 15.894959 49.330957 L 12.568000 47.667476 L 9.351938 46.003995 L 8.326129 45.588128 L 7.688463 45.449505 L 5.498210 45.699025 L 3.807009 46.447588 L 2.614854 47.695197 L 1.921739 49.441856 L 2.365333 52.103418 L 2.698029 53.101508 L 2.781203 53.351029 L 2.801996 53.413409 L 2.808927 53.434202 L 6.912175 51.438027 L 10.350028 50.772639 L 12.789801 51.243954 L 15.229565 52.657904 L 17.669328 55.014497 L 20.109101 58.313740 L 13.233394 60.975300 L 5.026898 65.411247 L 5.026898 68.072812 L 7.688463 66.963826 L 9.351942 66.132086 L 10.793623 65.854841 L 12.457102 66.520228 L 13.898782 68.516405 L 10.571826 73.617739 L 7.244869 79.162667 L 10.128235 80.493451 L 11.680811 80.937043 L 11.769183 80.909319 L 11.923401 80.826146 L 12.429373 80.493453 L 14.231467 79.162676 L 20.996290 73.839536 L 21.439884 75.170318 L 21.439884 76.390206 L 21.439884 76.521897 L 21.439884 76.561751 L 21.439884 76.584277 L 21.439884 76.577345 L 21.439884 76.501102 L 21.439884 83.598609 L 22.548870 84.042203 L 24.101449 84.485797 L 24.683666 84.222415 L 25.543128 83.432266 L 28.093797 80.271652 L 29.785002 78.427958 L 31.753447 77.111038 L 33.999139 76.320889 L 36.522087 76.057507 L 39.682688 77.055589 L 45.615770 80.049855 L 51.327051 83.265917 L 52.976660 84.291725 L 53.822260 84.929391 L 53.822260 87.147362 L 52.935072 88.478145 L 49.829914 84.485797 L 47.833739 82.822316 L 45.393972 82.267826 L 42.843303 83.099561 L 40.514434 85.594783 L 38.629157 88.090004 L 37.936044 88.713806 L 37.409275 88.921739 L 36.078492 88.478145 L 34.304116 88.478145 L 33.694174 88.686078 L 32.751539 89.309880 L 29.868174 91.805102 L 26.984808 94.300323 L 26.042173 94.924125 L 25.432232 95.132058 L 24.766839 95.021160 L 24.545043 94.688464 L 24.323247 94.355768 L 23.657855 94.244870 L 21.717124 94.799358 L 20.330892 96.462829 L 19.499157 99.235292 L 19.221913 103.116754 L 27.206607 107.996290 L 29.535485 109.992467 L 31.198963 111.988638 L 32.197046 113.984808 L 32.529739 115.980987 L 32.086145 119.086145 L 33.195131 119.529739 L 35.191304 119.973333 L 36.577534 119.529741 L 38.961856 118.198958 L 41.346176 116.868172 L 42.732405 116.424580 L 43.176001 116.868174 L 43.176001 117.644463 L 43.176001 119.086145 L 42.732405 122.191304 L 44.950376 121.747710 L 46.724755 121.304116 L 47.584219 121.525912 L 48.388233 122.191300 L 49.829914 124.852871 L 51.382492 127.514440 L 52.325129 128.179829 L 53.378668 128.401625 L 54.820347 127.791686 L 56.483827 125.961856 L 58.258202 124.132026 L 60.032581 123.522087 L 61.363360 123.522087 L 61.252463 123.854782 L 60.919770 124.409274 L 59.588985 126.183654 L 58.258201 128.068930 L 57.814610 129.288813 L 57.814610 134.168346 L 64.024927 134.168346 L 65.023016 137.828002 L 65.355711 140.822260 L 65.133915 141.986699 L 64.468526 142.818438 L 63.359541 143.317480 L 61.806956 143.483826 L 60.919769 143.483826 L 57.648258 142.568919 L 53.600471 140.267784 L 48.776391 136.580409 L 43.176001 131.506784 L 38.296463 131.506784 L 37.409275 135.942726 L 37.021131 136.913091 L 36.300292 137.606207 L 33.860521 138.160697 L 32.474292 137.661656 L 30.089970 136.164524 L 27.594751 134.667388 L 25.875826 134.168346 L 22.160725 134.944634 L 18.112928 137.273509 L 14.952313 140.489566 L 14.162164 142.180766 L 13.898782 143.927422 L 14.675068 147.587068 L 17.003942 153.242898 L 19.000117 152.799306 L 20.552694 151.468523 L 23.214261 155.460869 L 30.755362 150.137740 L 30.977157 153.270631 L 31.642546 156.015365 L 32.751531 158.371953 L 34.304116 160.340403 L 34.304116 162.558374 L 32.751535 162.558374 L 29.424579 162.558374 L 27.650200 162.225683 L 27.095709 162.142511 L 26.763014 162.114786 L 21.772565 162.558377 L 17.891119 163.889152 L 15.118664 166.107120 L 13.455188 169.212287 L 13.898782 173.870031 L 14.231478 175.367161 L 14.314652 175.741441 L 14.335445 175.835010 L 14.342376 175.866200 L 17.891126 172.206553 L 23.214261 167.437912 L 23.879653 168.103303 L 24.101449 169.212287 L 24.101449 170.543075 L 24.108380 170.550006 L 24.129173 170.570799 L 24.212347 170.653973 L 24.545043 170.986671 L 25.875826 171.430258 L 28.759189 170.099479 L 31.642550 168.768700 L 32.086145 169.655883 L 32.072283 169.669743 L 32.030696 169.933124 L 31.864349 171.208453 L 31.198956 176.753392 L 25.432232 180.302142 L 24.545043 186.734262 L 23.879651 190.116673 L 23.657855 191.835593 L 24.101447 194.386261 L 25.432232 197.602323 L 28.093797 197.602323 L 31.642550 194.053564 L 31.947518 195.717045 L 32.862428 197.602318 L 36.522087 202.038265 L 38.185564 198.489519 L 40.514434 191.391997 L 41.567971 188.480903 L 42.954199 186.401556 L 44.673125 185.153951 L 46.724755 184.738084 L 51.160697 184.738084 L 54.265856 190.948410 L 54.234665 190.932815 L 54.251991 190.886030 L 54.432199 190.698890 L 55.374833 189.950326 L 59.588985 186.956055 L 60.919769 188.286843 L 59.588985 192.279189 L 58.147304 195.273453 L 57.343291 196.022015 L 56.483827 196.271535 L 55.818434 196.160637 L 55.596639 195.827939 L 55.374842 195.495249 L 54.709447 195.384352 L 53.600460 195.800218 L 52.491476 197.047821 L 50.273505 202.038265 L 50.273505 205.143419 L 53.600469 205.587013 L 54.432204 206.141505 L 54.709447 206.917794 L 54.265857 210.910145 L 52.935072 214.902495 L 49.552674 212.961775 L 42.954203 209.801164 L 35.801241 206.973245 L 30.755362 206.030611 L 21.883478 206.030611 L 21.883478 210.466553 L 26.873921 208.803071 L 28.121524 208.387204 L 28.433424 208.283238 L 28.511399 208.257246 L 28.537391 208.248582 L 30.977160 208.692173 L 32.973333 210.022957 L 28.093797 211.242840 L 23.214261 214.015303 L 23.214261 217.120466 L 25.432232 218.894841 L 28.537391 216.676871 L 31.642550 213.571708 L 34.858601 212.462723 L 40.958030 211.797332 L 43.924573 212.240924 L 46.613859 213.571702 L 49.025897 215.789673 L 51.160697 218.894841 L 51.160697 219.782033 L 47.057446 217.453158 L 43.619592 216.676870 L 39.239087 216.954115 L 35.856685 217.785851 L 33.472375 219.172082 L 32.086145 221.112812 L 37.631072 220.003828 L 43.619592 219.338437 L 46.392058 219.671130 L 48.499130 220.669217 L 48.499130 221.556408 L 48.487001 221.558141 L 48.450612 221.563339 L 48.305059 221.584133 L 47.722845 221.667306 L 45.393972 222.000004 L 44.506783 223.552579 L 42.732405 225.548754 L 32.529739 226.435946 L 29.840445 227.406305 L 27.095711 229.430196 L 24.295528 232.507629 L 21.439884 236.638610 L 23.214261 237.969389 L 24.988636 239.300168 L 28.315595 234.753333 L 31.198956 229.097505 L 32.086145 229.541101 L 38.296463 228.653917 L 39.627246 229.984697 L 37.963765 233.533457 L 37.547897 234.642438 L 37.409275 235.307830 L 38.074667 236.084123 L 38.296463 236.638610 L 40.958030 236.638610 L 42.288813 235.307830 L 46.059361 238.191183 L 49.829914 241.074552 L 50.495306 242.072640 L 50.717101 243.292523 L 50.273505 245.066906 L 50.717098 246.397683 L 52.047885 246.841273 L 53.711362 246.286784 L 55.153043 244.623302 L 58.258202 239.743772 L 60.032579 241.407255 L 61.806956 241.961743 L 64.024927 241.296345 L 66.242898 240.630964 L 69.015364 241.185453 L 71.122436 242.848935 L 71.122436 249.059244 L 70.235244 250.390023 L 68.849016 249.752363 L 66.464706 248.726556 L 58.701798 245.510494 L 60.587069 247.617568 L 63.581331 249.502848 L 62.666423 250.861354 L 60.808880 251.831712 L 58.008693 252.413924 L 54.265856 252.607994 L 49.053634 251.720813 L 39.627246 249.059244 L 42.288814 250.833621 L 44.063188 253.495186 L 40.514434 254.382378 L 38.296461 254.936864 L 36.965681 255.713157 L 36.300288 256.489450 L 36.078492 257.043936 L 41.179814 256.378555 L 51.160697 256.156761 L 48.055536 258.818324 L 46.502959 259.483715 L 44.950376 259.705512 L 44.284983 259.594613 L 44.063188 259.261907 L 43.841393 258.929217 L 43.176001 258.818320 L 41.262995 259.345084 L 39.516345 260.925383 L 37.936045 263.559225 L 36.522087 267.246617 L 37.076577 269.908179 L 37.769692 270.573570 L 38.740058 270.795367 L 40.847127 270.462674 L 43.619592 269.464588 L 44.617682 272.015245 L 44.950376 275.231309 L 47.611943 275.231309 L 49.386321 273.567826 L 49.940811 273.151959 L 50.273505 273.013338 L 51.936986 274.455016 L 52.491476 277.005676 L 51.493396 279.112748 L 48.499130 282.772414 L 45.393965 286.210269 L 44.506780 287.180628 L 44.229535 287.478666 L 44.063188 287.651943 L 44.063188 290.313502 L 45.837563 290.757106 L 47.168347 290.757106 L 48.499130 290.313502 L 49.386319 290.590752 L 50.273505 291.422487 L 51.271592 292.254228 L 52.491476 292.531473 L 53.378666 292.254230 L 54.709445 291.422496 L 58.701798 288.095531 L 61.030663 289.759013 L 64.468523 292.975077 L 51.604289 299.185386 L 47.722828 301.264745 L 44.950365 303.510439 L 43.286893 305.922479 L 42.732405 308.500874 L 43.259169 310.108908 L 44.839468 311.384239 L 47.473308 312.326873 L 51.160697 312.936816 L 53.489567 312.604124 L 55.153043 311.606037 L 55.165173 311.618166 L 55.201561 311.654555 L 55.347114 311.800107 L 55.929329 312.382319 L 58.258202 314.711183 L 59.422641 313.907170 L 60.254381 312.825915 L 60.919769 309.831654 L 60.919769 308.500874 L 60.919769 307.170095 L 60.919769 306.282903 L 62.389174 305.312536 L 64.579413 304.619421 L 71.122436 304.064932 L 71.552166 304.106519 L 72.397764 304.231278 L 75.336576 304.730313 L 81.325100 305.395711 L 81.768695 306.282903 L 81.768695 307.280990 L 81.768695 307.530510 L 81.768695 307.592889 L 81.768695 307.613683 L 81.380553 309.166260 L 80.216114 312.049625 L 79.051678 314.932989 L 78.663533 316.485567 L 79.107129 318.259950 L 79.550724 319.590729 L 84.873858 319.590729 L 88.422609 313.824008 L 93.080355 318.703546 L 94.244784 320.145220 L 94.535890 320.616537 L 94.632926 320.921509 L 94.106161 322.668166 L 92.525863 323.915777 L 89.892024 324.664342 L 86.204638 324.913863 L 85.809563 324.868811 L 85.067933 324.733653 L 82.545001 324.193021 L 73.340407 322.030494 L 64.135811 319.867967 L 61.612879 319.327336 L 60.871248 319.192178 L 60.476173 319.147125 L 58.923589 319.396646 L 57.814603 320.145212 L 57.149214 321.392822 L 56.927418 323.139480 L 56.927418 324.913863 L 57.371014 327.131834 L 56.927422 330.569686 L 55.596639 332.898556 L 56.262030 334.007539 L 56.483827 334.672922 L 59.810778 333.009455 L 65.355711 329.793393 L 69.569860 327.464521 L 70.845189 326.882303 L 71.566028 326.688230 L 84.430262 326.688230 L 84.444125 326.709023 L 84.485711 326.771403 L 84.652057 327.020923 L 85.317446 328.019009 L 84.430262 332.454951 L 84.624333 334.201616 L 85.206546 335.449226 L 86.176906 336.197787 L 87.535417 336.447306 L 89.309800 336.003718 L 89.975189 335.671013 L 90.141535 335.587839 L 90.183122 335.567045 L 90.196984 335.560114 L 89.808839 337.306772 L 89.088002 338.554382 L 88.034469 339.302947 L 86.648233 339.552469 L 82.655887 338.887071 L 78.219945 338.221689 L 76.112868 338.665279 L 74.227591 339.996056 L 75.336576 339.996056 L 77.332753 339.996056 L 78.774436 339.663366 L 79.550724 339.552469 L 82.434088 339.996058 L 84.873858 341.326835 L 83.543071 343.544806 L 70.678840 345.762777 L 60.032581 354.634662 L 60.476173 357.961618 L 60.808871 359.236962 L 60.919769 359.957795 L 63.941762 357.850722 L 66.353804 355.521858 L 68.155899 352.971193 L 69.348057 350.198719 L 70.179794 348.840213 L 71.787817 347.869856 L 74.172135 347.287644 L 77.332753 347.093574 L 80.437917 347.426266 L 82.655887 348.424353 L 81.657793 353.414788 L 81.325100 358.627016 L 87.646323 344.321082 L 89.892014 340.744619 L 91.527771 339.552469 L 97.294493 339.552469 L 97.294493 340.439660 L 96.407301 344.431998 L 99.956060 349.311545 L 105.168301 347.648062 L 106.360455 347.232195 L 106.603043 347.128229 L 106.626869 347.113067 L 106.635965 347.102237 L 106.609973 347.093574 L 107.940752 347.537161 L 107.954614 347.537161 L 107.996201 347.537161 L 108.162548 347.537161 L 108.827944 347.537161 L 109.493332 347.384677 L 110.602312 346.927224 L 114.151069 345.097396 L 117.699830 343.267568 L 118.808813 342.810115 L 119.474203 342.657632 L 121.803073 343.212120 L 123.466549 344.875603 L 120.804981 346.871776 L 119.030607 347.537161 L 118.032520 347.537161 L 117.783001 347.537161 L 117.720621 347.537161 L 117.699828 347.537161 L 117.367134 347.204470 L 116.369040 347.093574 L 115.370958 347.426266 L 114.151069 348.424353 L 113.042085 349.422439 L 112.376694 349.755132 L 103.504810 352.860295 L 101.564079 354.024726 L 100.177848 355.743647 L 99.346112 358.017065 L 99.068868 360.844987 L 99.734257 364.393744 L 101.730435 367.942488 L 103.726609 367.277102 L 106.166377 365.280929 L 108.051649 368.829677 L 111.045915 373.265638 L 116.369040 365.724517 L 118.143424 365.724517 L 122.579366 371.491255 L 120.250492 376.176731 L 117.256237 380.030453 L 113.596590 383.052429 L 109.271540 385.242668 L 99.512464 387.017052 L 96.795440 388.098317 L 94.854717 389.567718 L 93.690288 391.425264 L 93.302146 393.670965 L 93.579391 396.387983 L 94.411127 398.328709 L 95.797358 399.493145 L 97.738089 399.881291 L 99.290670 399.437670 L 100.843243 398.994082 L 103.393915 399.548571 L 105.722781 401.212053 L 107.497160 399.659489 L 109.271540 396.776111 L 109.403230 397.004837 L 109.576508 397.469223 L 110.047825 399.104975 L 111.489511 405.204408 L 115.038261 402.986437 L 116.923539 401.655645 L 118.143424 401.212053 L 119.418753 401.711102 L 121.470380 403.208247 L 123.522001 404.705363 L 124.797337 405.204408 L 126.017219 404.899440 L 127.458895 403.984534 L 131.007654 400.324878 L 134.556406 396.443425 L 137.217971 394.558140 L 138.576479 396.887018 L 139.990432 398.550503 L 141.459834 399.548594 L 142.984692 399.881291 L 144.260025 399.604040 L 146.311649 398.772305 L 148.363272 397.940558 L 149.638605 397.663320 L 151.579340 398.023736 L 152.965570 399.104987 L 153.797304 400.907081 L 154.074547 403.430024 L 153.866615 404.649910 L 153.242815 405.647995 L 150.747591 406.978791 L 148.141477 407.755069 L 147.379051 408.060036 L 146.977047 408.309554 L 146.977047 406.978791 L 147.642432 404.982610 L 149.638605 401.655641 L 140.323123 405.315300 L 134.556404 408.309554 L 130.148176 411.581077 L 126.682600 415.185277 L 124.159667 419.122169 L 122.579366 423.391763 L 127.458895 422.948176 L 133.447430 423.280871 L 134.944556 423.696744 L 135.443596 424.278972 L 135.443596 425.609734 L 135.887187 427.384118 L 137.217971 429.158502 L 139.768637 427.162320 L 142.097509 423.835351 L 154.518152 417.181438 L 155.183533 415.074389 L 155.405327 411.414733 L 155.405327 410.527525 L 156.569773 411.775140 L 157.401515 413.299997 L 158.066902 417.181438 L 157.401515 419.621215 L 155.405327 421.617380 L 150.525797 425.166147 L 151.745680 425.387941 L 152.743768 426.053322 L 152.743768 427.827705 L 152.729906 427.834636 L 152.688319 427.855430 L 152.521972 427.938602 L 151.856576 428.271293 L 149.638605 428.271293 L 148.973209 428.160396 L 148.751414 427.827705 L 148.751414 427.813843 L 148.751414 427.772257 L 148.751414 427.605912 L 148.751414 426.940531 L 144.759070 430.045681 L 141.653913 433.150856 L 141.653913 437.143177 L 143.428288 437.586798 L 145.424457 437.586798 L 146.977047 437.586798 L 147.136462 437.621454 L 147.392913 437.725420 L 148.196925 438.141287 L 150.969385 439.804769 L 156.292518 433.150856 L 158.066902 433.150856 L 158.510489 434.038031 L 158.344144 434.814313 L 157.845108 436.256002 L 157.179710 438.917561 L 157.179710 442.909915 L 163.833623 442.909915 L 171.818316 432.707235 L 173.814491 431.376473 L 175.367066 430.932885 L 176.046322 431.085366 L 177.196894 431.542814 L 180.911993 433.372633 L 184.738005 435.202469 L 186.900525 435.812415 L 188.175856 435.424267 L 189.340290 434.259842 L 190.172031 431.431921 L 190.449276 426.053322 L 192.778151 425.055244 L 194.441630 423.835364 L 195.439715 422.393683 L 195.772409 420.730205 L 195.536750 419.593492 L 194.829771 418.401337 L 192.001848 415.850675 L 188.841241 413.854502 L 186.900525 413.189117 L 184.904348 413.688149 L 182.464583 415.185277 L 180.135709 416.682406 L 178.472229 417.181438 L 176.919656 417.181438 L 175.145272 417.181438 L 173.592699 417.181438 L 172.261920 417.181438 L 168.685431 416.737849 L 165.497099 415.407075 L 162.696916 413.189108 L 160.284873 410.083937 L 160.478943 409.889868 L 160.839361 409.529451 L 162.059240 408.309575 L 166.495182 403.873612 L 164.277211 403.873612 L 161.560189 403.540920 L 159.619469 402.542841 L 158.455042 400.879368 L 158.066902 398.550495 L 158.455042 396.803830 L 159.619469 395.556220 L 161.560189 394.807659 L 164.277211 394.558140 L 165.829801 393.892742 L 166.661538 393.393715 L 167.825978 393.227378 L 169.156753 393.670965 L 171.374728 395.001727 L 173.592697 396.332519 L 174.923478 396.776111 L 176.864213 396.415695 L 178.250443 395.334443 L 179.082177 393.532349 L 179.359420 391.009407 L 178.694034 387.904231 L 176.697868 385.686252 L 173.370912 384.355467 L 168.713153 383.911872 L 170.043936 382.137506 L 172.261920 381.250314 L 174.701685 380.584928 L 176.697862 379.475930 L 184.682554 383.024697 L 184.238950 384.799081 L 184.793445 388.236926 L 186.456921 393.227378 L 188.231302 397.885109 L 189.118496 400.324878 L 190.671069 400.324878 L 192.445453 400.324878 L 193.998026 400.324878 L 196.437797 400.768470 L 198.433968 402.099262 L 201.539131 402.099262 L 202.869916 399.215884 L 203.313514 397.663320 L 202.925371 396.110738 L 201.760939 394.114565 L 197.103189 388.791436 L 197.234879 388.735986 L 197.408158 388.569636 L 197.879477 387.904240 L 199.321160 385.242668 L 201.040086 385.464462 L 202.648116 386.129843 L 205.087881 387.017052 L 207.028615 386.712085 L 208.414846 385.797178 L 209.246580 384.272326 L 209.523823 382.137523 L 208.802989 379.531391 L 206.640471 377.923357 L 201.095543 375.483609 L 198.877572 377.257959 L 196.548692 375.927197 L 194.885218 375.483609 L 193.554438 375.927197 L 191.780055 376.370784 L 191.946415 376.065817 L 190.671090 375.150910 L 183.795362 371.491255 L 190.005684 368.496980 L 192.778141 367.748419 L 195.328805 367.498900 L 196.576418 367.831594 L 198.101271 368.829677 L 201.982718 372.822017 L 205.531485 371.047651 L 205.531485 368.386092 L 199.986558 366.168121 L 197.824025 364.615540 L 197.103189 362.619371 L 197.115318 362.704276 L 197.151706 362.737199 L 197.212353 362.718138 L 197.297259 362.647094 L 197.879473 361.843082 L 200.208351 357.739824 L 194.996110 362.841164 L 190.892863 365.724517 L 179.913894 371.047655 L 177.169165 372.378428 L 176.482984 372.711120 L 176.311439 372.794293 L 176.268553 372.815086 L 176.254258 372.822017 L 174.313536 372.489326 L 171.596528 371.491246 L 163.833623 367.498900 L 159.148147 364.726426 L 155.738017 362.175762 L 153.603226 359.846898 L 152.743768 357.739824 L 154.407246 359.403307 L 155.848931 359.957795 L 155.812540 359.949132 L 155.814271 359.923140 L 155.854123 359.879821 L 155.932097 359.819174 L 156.625209 359.403307 L 159.841269 357.739824 L 160.173974 357.961620 L 160.284873 358.627016 L 160.277942 358.647809 L 160.257149 358.710189 L 160.173974 358.959709 L 159.841269 359.957795 L 159.841269 361.288575 L 161.172065 360.623193 L 161.837446 360.345949 L 162.059240 359.957795 L 167.825986 363.950150 L 169.045866 364.948235 L 169.239934 365.197756 L 169.156757 365.280929 L 170.820231 365.059133 L 174.036287 364.393737 L 179.803008 363.506546 L 182.131886 356.963523 L 182.471512 356.194168 L 182.714100 355.771373 L 182.799006 355.689935 L 182.859653 355.695136 L 182.896041 355.786977 L 182.908171 355.965458 L 182.298234 353.913826 L 180.468406 352.194897 L 178.638578 350.586873 L 178.028641 348.867940 L 178.472229 347.093574 L 173.592699 347.093574 L 172.261918 347.370818 L 170.043949 348.202559 L 167.825965 349.034294 L 166.495182 349.311545 L 164.277211 348.424353 L 162.059240 347.537161 L 160.950258 347.842131 L 159.841275 348.757041 L 157.623298 352.416690 L 155.100352 351.390881 L 153.298252 350.087827 L 152.216995 348.507524 L 151.856576 346.649969 L 152.078373 344.903314 L 152.743764 343.655710 L 153.852748 342.907150 L 155.405327 342.657632 L 156.847011 342.990324 L 158.510489 343.988411 L 160.007627 342.491282 L 160.950254 339.774262 L 162.114690 337.279039 L 163.071188 336.655238 L 164.277211 336.447306 L 164.720815 336.447306 L 165.497108 336.669102 L 166.051594 337.334498 L 155.405327 318.703538 L 152.632869 317.927253 L 149.638605 315.598375 L 149.638605 310.275241 L 150.969387 308.944464 L 153.187356 308.500874 L 157.512409 309.277159 L 162.502844 311.606037 L 164.277211 324.913863 L 165.774342 328.878497 L 168.047757 331.900480 L 171.097465 333.979820 L 174.923478 335.116527 L 177.086001 333.286705 L 179.137627 329.571599 L 180.232746 327.506106 L 181.521939 325.967390 L 183.005207 324.955444 L 184.682554 324.470259 L 186.456921 325.357451 L 186.013334 330.236980 L 186.540098 335.865106 L 188.120397 339.885178 L 189.305624 341.292199 L 190.754238 342.297211 L 192.466240 342.900217 L 194.441630 343.101219 L 196.271447 342.435834 L 198.212174 340.439660 L 200.152901 338.443473 L 201.982718 337.778085 L 202.010443 337.778085 L 202.093617 337.778085 L 202.426322 337.778085 L 202.433254 337.767689 L 202.454047 337.736499 L 202.537219 337.611740 L 202.869910 337.112704 L 203.313514 335.116527 L 203.119442 334.423408 L 202.537224 333.231250 L 200.208351 329.349805 L 200.873733 328.240820 L 201.539131 327.575422 L 203.271924 327.880392 L 204.921536 328.795302 L 206.487974 330.320155 L 207.971250 332.454951 L 209.482243 334.589758 L 211.131855 336.114615 L 212.920091 337.029528 L 214.846957 337.334498 L 217.952120 336.890893 L 221.500870 336.447306 L 221.500870 334.672922 L 221.944457 332.454951 L 221.168175 329.571597 L 218.839311 326.244643 L 212.185398 319.590729 L 220.170091 312.049625 L 221.944457 307.170095 L 223.316835 307.655270 L 224.328784 308.667211 L 224.980309 310.205925 L 225.271414 312.271418 L 225.617977 314.503260 L 226.435852 316.541019 L 227.725045 318.384703 L 229.485562 320.034317 L 231.232220 317.649998 L 232.479830 314.932989 L 233.228395 311.883284 L 233.477917 308.500874 L 233.477917 306.726491 L 238.357446 306.282903 L 240.131830 306.282903 L 240.131830 301.846961 L 239.715963 299.129937 L 238.468358 297.189211 L 236.389011 296.024779 L 233.477917 295.636636 L 232.202584 295.858431 L 230.150960 296.523827 L 228.099337 297.189223 L 226.824004 297.411019 L 225.964533 297.189222 L 225.160519 296.523832 L 223.718841 293.862269 L 226.047715 292.864174 L 227.711195 292.531473 L 229.707356 292.975077 L 232.147138 293.418665 L 235.584985 292.864176 L 238.801051 291.200694 L 242.128003 288.428228 L 244.124168 287.208356 L 244.124168 283.659589 L 240.686320 282.217913 L 236.583080 281.441618 L 231.925327 280.665337 L 229.485562 280.110838 L 234.365109 278.336472 L 234.365109 274.787705 L 232.147135 274.122323 L 229.041975 273.900530 L 228.154783 273.900530 L 224.384233 274.676812 L 221.057282 277.005676 L 218.063008 275.009511 L 217.314447 273.845077 L 217.064928 272.569734 L 217.258998 271.211227 L 217.841212 270.240870 L 218.811575 269.658658 L 220.170091 269.464588 L 222.166257 269.741832 L 225.493224 270.573573 L 228.598383 271.405308 L 229.485569 271.613245 L 229.762816 271.665230 L 229.929167 271.682559 L 232.258028 271.017165 L 234.808696 269.020983 L 236.804869 266.359423 L 237.470254 263.697849 L 237.026667 262.367070 L 238.579253 262.367070 L 238.759462 262.367070 L 238.856499 262.367070 L 238.870361 262.367070 L 238.846102 262.367070 L 238.801051 262.367070 L 240.991296 261.978930 L 242.682496 260.814504 L 243.874653 258.873783 L 244.567772 256.156761 L 243.264711 254.604173 L 241.573510 253.495184 L 239.494164 252.829791 L 237.026667 252.607994 L 236.250378 252.732756 L 234.808704 253.107041 L 229.929167 254.604172 L 224.938723 256.101309 L 222.388062 256.600349 L 221.722664 256.489452 L 220.613678 256.156761 L 217.508515 256.156761 L 213.959765 256.600349 L 213.959765 253.051599 L 214.846957 252.164407 L 217.508515 253.495186 L 218.894747 253.217942 L 221.279076 252.386201 L 223.663390 251.554459 L 225.049620 251.277215 L 225.021896 251.277215 L 225.153588 251.277215 L 225.382315 251.277215 L 227.267591 251.277215 L 228.154783 251.720819 L 228.154783 248.615657 L 223.607948 244.956009 L 217.952120 239.300168 L 213.737967 235.640519 L 211.797249 234.725608 L 209.967427 234.420639 L 208.193044 235.307830 L 207.416751 235.973226 L 206.862265 236.195022 L 205.087881 235.307830 L 203.313514 234.420639 L 201.788652 234.670158 L 200.319248 235.418719 L 197.546776 238.412993 L 195.328805 238.412993 L 194.441630 237.082197 L 194.449861 237.076566 L 194.474553 237.059671 L 194.573320 236.992093 L 194.968392 236.721781 L 196.548685 235.640527 L 202.869910 231.315476 L 207.971242 227.988514 L 210.355557 227.156778 L 212.628986 226.879534 L 215.248967 227.142916 L 217.785766 227.933066 L 220.239392 229.249986 L 222.609855 231.093682 L 226.103166 234.254295 L 226.976486 235.044447 L 227.194815 235.241985 L 227.249397 235.291369 L 227.267591 235.307830 L 229.402397 235.030585 L 230.927255 234.198847 L 231.842167 232.812615 L 232.147138 230.871888 L 231.703533 229.097505 L 231.259946 227.766726 L 223.497043 226.103249 L 217.064928 223.774379 L 219.282895 222.110897 L 222.388062 221.556408 L 224.384239 221.556408 L 225.936812 221.556408 L 226.269502 219.671129 L 226.318020 219.442401 L 226.352675 219.310710 L 226.364804 219.281253 L 226.373468 219.276055 L 226.378667 219.295117 L 226.380399 219.338437 L 225.493224 217.342260 L 224.716930 216.843217 L 223.275253 216.676870 L 222.374203 216.926390 L 221.001836 217.674953 L 216.843134 220.669217 L 212.462636 223.663484 L 209.523823 224.661563 L 208.414837 224.661563 L 207.305852 224.661563 L 206.169145 224.980394 L 204.089805 225.936890 L 197.103189 229.762903 L 192.639514 231.994741 L 188.120408 233.588904 L 183.545852 234.545397 L 178.915833 234.864226 L 176.697856 233.977045 L 174.479891 231.315476 L 174.479891 229.097505 L 180.246619 227.101332 L 181.799191 226.602292 L 182.242784 226.477533 L 182.381408 226.446343 L 182.464583 226.435946 L 183.629020 225.132885 L 184.460756 223.441685 L 185.126142 218.894841 L 184.793449 214.902490 L 183.795362 211.797332 L 182.686377 208.803076 L 182.020979 205.143419 L 184.904348 207.361390 L 186.623281 208.692175 L 187.787717 209.135766 L 189.118496 208.692178 L 190.449276 208.248582 L 190.643346 208.304031 L 191.003764 208.470378 L 192.223644 209.135767 L 196.659601 211.797332 L 200.208351 211.797332 L 202.426322 201.594669 L 203.868001 202.592756 L 205.531485 202.925448 L 207.777179 202.648204 L 209.634726 201.816468 L 211.104131 200.430237 L 212.185398 198.489506 L 213.737969 199.598492 L 216.621340 202.038265 L 218.284817 199.709393 L 218.839311 197.158727 L 218.839311 195.827939 L 219.282901 194.829853 L 220.613678 194.497160 L 223.497047 195.606146 L 226.380399 196.715131 L 228.154783 196.271535 L 229.041975 196.271535 L 229.041975 189.617622 L 226.158610 186.179769 L 224.606033 182.963709 L 225.271414 181.632930 L 226.380399 180.302142 L 227.822084 181.300236 L 229.485562 181.632930 L 230.150960 181.466583 L 231.259946 180.967540 L 233.921504 180.302142 L 235.695888 180.745738 L 237.026667 181.189334 L 239.022840 178.527770 L 239.688225 175.866200 L 239.667432 176.088002 L 239.605053 176.088006 L 239.501086 175.866212 L 239.355533 175.422620 L 238.357446 171.430258 L 236.527625 170.875768 L 232.812519 170.099479 L 229.319208 168.768701 L 228.445888 167.770615 L 228.154783 166.550729 L 228.404302 164.998142 L 229.152863 163.889155 L 230.400473 163.223766 L 232.147138 163.001970 L 232.854109 163.182179 L 234.087849 163.722808 L 238.135653 165.885330 L 245.898551 169.655883 L 245.898551 169.642021 L 245.898551 169.600434 L 245.898551 169.434088 L 245.898551 168.768700 L 245.454964 167.881508 L 249.003719 163.223754 L 252.996058 159.896800 L 257.431993 157.900635 L 262.311540 157.235249 L 264.529511 157.678840 L 264.529511 153.242898 L 264.169093 151.413067 L 263.087835 149.915938 L 261.285735 148.751507 L 258.762790 147.919769 L 252.552464 147.476173 L 250.334493 147.476173 L 243.236993 147.476173 L 243.874653 146.311735 L 244.900460 145.479997 L 248.116522 144.814610 L 249.890906 145.258202 L 252.108877 145.258202 L 255.103132 144.703711 L 256.988406 143.040231 L 256.988406 137.273509 L 254.548644 136.275423 L 249.890906 134.168346 L 248.560110 130.619596 L 247.229335 129.288810 L 245.011359 128.845217 L 243.736026 129.177912 L 241.684403 130.176000 L 239.632779 131.174089 L 238.357446 131.506784 L 234.808696 131.506784 L 234.365109 127.070842 L 235.252283 126.183654 L 237.137564 127.181741 L 239.244638 127.514433 L 239.414450 127.479778 L 239.702091 127.375811 L 240.630864 126.959943 L 243.902374 125.296462 L 247.284789 123.411186 L 249.003714 122.191304 L 256.988406 126.183654 L 259.649965 126.183654 L 259.954941 125.462814 L 260.426260 124.187484 L 261.867936 119.973333 L 262.755127 120.416929 L 262.595708 120.409997 L 262.562785 120.401334 L 262.561051 120.389204 L 262.590508 120.373609 L 262.651156 120.354548 L 262.866022 120.306030 L 264.973099 119.973333 L 266.747482 112.654030 L 267.745569 108.606227 L 267.995088 107.372484 L 268.078261 106.665507 Z M 114.151069 70.734376 L 110.713218 68.405510 L 106.609973 64.967653 L 110.158723 64.967653 L 112.043999 67.296519 L 114.151069 70.734376 Z M 115.925453 72.952347 L 115.038261 73.395942 L 114.151069 71.177971 L 115.038261 70.734376 Z M 131.451250 90.252522 L 130.785858 90.474318 L 129.676866 91.139710 L 127.167782 90.571357 L 124.963678 89.309891 L 123.064546 87.355305 L 121.470380 84.707594 L 115.925453 73.395942 L 121.692174 80.937043 L 126.128112 85.705682 L 131.451250 90.252522 Z" transform="scale(1.000000,1.000000) translate(115.000000,28.000000)" fill="#f7f8f7" opacity="1.000000"></path>
    </g>
</svg>