<svg xmlns="http://www.w3.org/2000/svg" width="2560" height="540" viewBox="0 0 2560 540">
    <path fill="none" stroke="#d1cecd" stroke-linecap="round" opacity="0.65" d="M796.987,118.26s-9.001,3.139-23.338-1.726m14.381.471s-7.218-.689-10.831-1.93M761.243,100.638c2.616-.669,3.977-.904,10.967-1.345m-12.822,4.073a99.92724,99.92724,0,0,1,13.181-1.359m-12.907,3.494c2.006-.388,14.407-.176,18.123-1.748M762.039,77.082s-12.601,8.41-11.181,16.693m9.016-12.049s-5.579,4.89-6.543,9.033m-4.616,6.186a33.10122,33.10122,0,0,1-3.651,5.419c-2.07,2.405-4.263,5.392-3.006,8.345m6.221-32.498s1.125,5.504,1.421,7.609m-3.737-2.132c.42,1.52,3.389,8.671-3.256,17.869-3.904,5.527-2.281,8.097-2.303,8.992m-.998.553a9.14618,9.14618,0,0,1-.83-8.931,36.90926,36.90926,0,0,1,4.507-7.16m-3.582.381s-5.981,6.029-2.915,13.71m7.536-17.77a11.41686,11.41686,0,0,0,.246-3.601m5.453,30.893a21.10022,21.10022,0,0,0,10.688,12.924,16.76759,16.76759,0,0,1,6.732,6.323m-14.254-17.109c.7,1.522,3.501,4.978,7.553,8.061,2.009,1.53,3.095,1.477,4.202,2.529m-27.28-10.873s-6.309,3.768.34,14.239m-.145-10.137a6.66309,6.66309,0,0,0,.14,5.378m2.148,8.552s1.567,2.754,1.987,3.391m15.373-37.678a3.356,3.356,0,0,0-2.245,2.872m-29.025-8.207s-8.473,8.013-9.26,10.649m6.79206-5.347s-3.43,3.92-4.199,4.932M669.584,142.63a86.48462,86.48462,0,0,0,16.292,17.563c6.156,4.779,10.1,2.921,12.389,2.533m-25.598-19.537a113.34361,113.34361,0,0,0,11.026,11.193c5.524,4.698,7.128,6.01,8.623,6.062m-12.699-13.256c.076.14,7.892,7.249,9.348,8.452m-.172-7.304c2.041.783,6.059,4.223,8.388,6.37m-11.598-53.673a25.38053,25.38053,0,0,0-11.845,18.864m11.835-15.358a19.85605,19.85605,0,0,0-6.343,6.879m-96.647,8.599c-.268.146-11.521,20.736,3.081,35.016m-4.034-22.549s-2.134,9.631,3.74,17.619m28.592-15.386s-14.398,2.201-12.672,13.842m8.773-10.149s-6.428,3.464-6.193,7.425m5.937,28.961s6.452,7.925,12.433,10.205a28.7021,28.7021,0,0,1,9.583,5.799m-16.44-14.32s4.814,4.625,8.545,5.676m3.327,1.664a30.83692,30.83692,0,0,1,3.933,2.888m-84.507,14.657s15.938,4.596,19.445,4.985m-14.24-6.315a79.63261,79.63261,0,0,0,7.778,2.024M503.647,175.55s-9.463,11.163-10.154,14.685m-.344,23.272c1.489.279,3.16.323,5.551,3.438,2.972,3.88,9.979,12.24,17.026,11.46m-22.197-17.388c1.501.332,5.414,1.549,9.116,6.692a15.54317,15.54317,0,0,0,6.989,5.872m-11.94-13.409a14.18437,14.18437,0,0,1,6.249,4.663c2.317,3.097,6.25,6.401,8.71,6.87m7.298,5.889a14.60632,14.60632,0,0,0,4.52-1.605m-24.964-3.366s2.39,9.021-6.137,17.715m3.886-20.653s1.333,4.812-.948,11.622m-1.135-13.992c-.727.834,1.489,7.935-1.484,14.124m-1.288,3.26a19.45006,19.45006,0,0,1-1.271,2.828m.451-21.479a4.69752,4.69752,0,0,1,1.344,3.396,20.58715,20.58715,0,0,1-1.189,7.69m-53.737-3.696a14.4411,14.4411,0,0,1,3.511-5.503m-.924,5.212a13.55637,13.55637,0,0,1,4.376-5.251,26.06614,26.06614,0,0,0,4.83-4.537m-.344,4.376a32.7774,32.7774,0,0,1-6.298,5.524m-3.592,25.628s5.862,11.757,19.241,12.936M446.951,254.7c.177-.105,4.406,3.555,10.422,4.543a32.409,32.409,0,0,0,9.822.259m-14.687-4.585a14.8888,14.8888,0,0,0,6.812,2.155m-33.592-6.184s4.549,2.519,6.094,12.168m-6.35-9.542c.134.414,3.18,6.001,3.768,10.969.263,2.222-.035,5.189,1.935,7.337m-7.696-17.208s.638,8.585,1.525,10.884m-4.237-142.23c.462-1.029,3.112-8.982,9.312-11.887m-6.425,11.908a17.52738,17.52738,0,0,1,4.692-6.991m-.234,29.436c1.124-.151,5.419,4.341,14.624-3.378m2.527-2.281s2.801-2.945,3.424-3.519m-16.186,7.675c.993.295,5.207-.658,7.756-2.839m-16.571,4.91a37.52311,37.52311,0,0,0,2.302,4.257m-10.656-10.615a13.8217,13.8217,0,0,1,4.752,4.711,58.18416,58.18416,0,0,1,3.873,6.833m-12.02-11.146c.234-.005,3.677.598,7.194,6.964m-18.913-37.033c-1.433,2.933-7.492,16.706-1.518,25.18m1.238-16.839c-.995,3.901-2.217,7.06-.087,12.815m2.13-9.115a24.07,24.07,0,0,0,.827,10.868m-25.591,54.445c.433-.586,8.713-.891,12.023.277a26.26949,26.26949,0,0,0,8.755,1.774m-22.052-.33a71.4766,71.4766,0,0,1,7.801.479c2.535.427,4.711,1.306,7.016,1.814m-16.042-.623a38.44184,38.44184,0,0,1,6.311,1.099c2.387.757,4.463,1.218,6.75,1.904m-14.207-1.425c.187-.262,10.408,2.866,14.783,4.587a12.46274,12.46274,0,0,0,9.182.257m-6.346-2.652a25.81081,25.81081,0,0,0,3.847.348M376.06,207.25s5.872,8.547,16.671,9.051m-12.042-7.652c.431.414,5.201,4.26,9.094,4.823m-35.86-48.456c-.557,1.76-2.729,11.107.568,16.63a40.06065,40.06065,0,0,0,4.894,6.993m-4.083-16.972s-1.605,7.103,5.125,14.191m4.843-9.227c.518,1.6,1.323,6.729.214,8.64m-2.316-7.478a19.72208,19.72208,0,0,1,.165,5.424m-26.441,29.632c.781,3.809-3.977,9.081-4.604,11.583-1.229,4.901-.945,5.604-.379,9.429m4.926-12.931c-.492,1.09-3.079,4.99-2.84,9.549m145.317,70.575c-.682.593-3.676,2.477-4.917,3.344m-3.209,1.771c-.827.442-6.118,3.401-8.46,2.585-2.488-.869-5.328-1.732-5.328-1.732m14.941-4.52c-2.374,1.312-7.301,5.185-11.205,3.101m-2.444-15.207a18.2144,18.2144,0,0,0-5.543,2.116c-1.188.795-4.385,3.103-5.116,4.725m-5.065,18.583c2.92,4.092,7.258,8.9,17.438,13.26m-12.567-11.215c.324.588,7.917,6.522,10.251,7.535m-66.366-7.024s17.205,2.674,22.644,19.173m-20.469-13.293s1.758,12.168,10.73,21.063m-6.862-22.244s9.604,6.002,12.047,12.62m-12.379-9.25a56.37984,56.37984,0,0,0,4.928,10.349m-1.38-7.896c1.019,1.281,4.557,6.111,5.285,7.935m-1.602,3.422a35.06705,35.06705,0,0,0,2.722,3.543m-32.039-53.133c-.106.06-14.68,7.644-19.795,14.814m15.775-9.568a111.98956,111.98956,0,0,0-9.587,6.747m11.558,1.122c-3.002,1.66-8.009,3.333-10.242,3.235m-10.003,17.526c.179-.034,13,2.733,18.844,5.761m-21.193-5.288c.233-.048,15.188,5.524,16.685,6.083m-18.62-5.695c.298.298,14.243,7.254,15.524,7.675m-10.469-3.085c.271.227,12.479,8.257,17.2,7.69m-21.06-3.351c.068,2.223-.05,5.682.613,7.742a25.5082,25.5082,0,0,0,14.336,15.401m-11.942-17.698c.541.409.586,7.931,8.634,12.903m-27.911-48.065c-3.431.825-10.07,2.909-11.915,4.415a9.7514,9.7514,0,0,0-3.267,5.444m9.176-5.461c-.726.229-4.082,1.06-5.451,3.012m-33.662,36.197c.568,1.029,1.951,6.132,6.217,8.45,0,0,9.808,6.157,13.912,6.476m-15.177-11.763c.897,1.25,6.811,5.223,10.225,6.54m3.785,1.384a32.69742,32.69742,0,0,0,4.553,1.97m-46.699-66.829c-.819,1.251-10.649,12.896-11.971,16.832m10.134-9.678s-3.288,3.89-4.118,4.78m-41.987.643s-6.743,9.601-6.506,18.078m6.497-12.487s-3.213,6.691-3.676,8.935m7.745-3.911s-1.979,5.858-5.873,7.302m-33.06-10.177s7.746.4,10.659-.677m-10.881,1.82a23.70419,23.70419,0,0,0,6.012.661m-6.347,1.109s5.909,1.892,10.634.241m-9.773,1.681s9.921,2.616,13.199-1.1m15.312-28.478c-.612.5-5.815,2.401-11.158-.136m-.374-2.479s3.098,1.624,5.374,1.499m-8.226-31.899s9.017-6.43,13.935-6.005m-13.866,10.221a37.60269,37.60269,0,0,0,9.434-.045,39.63827,39.63827,0,0,0,14.527-5.044m-24,3.162s13.211-.826,16.119-2.271m-16.171.828s8.646-2.791,10.274-3.049m-14.394-20.917c-.897.265-4.852,10.929-.321,19.13m.881-12.899s-1.046,4.078-.02,6.779m-30.929,38.117a11.0311,11.0311,0,0,0,1.565,5.29c1.367,2.252,3.968,4.652,8.224,8.29m-6.822-10.56s.739,2.18,3.999,5.062m254.27,138.435a10.166,10.166,0,0,0,4.082.303m-13.56-10.508s5.196,1.771,8.269,5.341m-9.811-4.449s4.148,2.828,6.621,4.754m-9.251-3.302a15.33192,15.33192,0,0,0,5.278,6.597c4.924,3.399,6.563,3.753,8.362,3.826m-11.97-11.385a19.34191,19.34191,0,0,0,8.714,7.771m-4.041-19.27c-.362.038-7.153-.04-12.918,7.52m10-4.156a14.09685,14.09685,0,0,0-6.84,4.233m2.286-25.025c-.284.156-6.186,3.601-10.813,12.266m9.191-7.761s-3.962,3.668-4.868,5.374m-5.099,29.057a79.94067,79.94067,0,0,1,2.24,12.14,11.24983,11.24983,0,0,0,3.79,6.864m-2.176-13.446a33.76853,33.76853,0,0,1,1.232,7.251m-35.936-45.849s-7.269,6.374-7.105,10.246c.204,4.82.762,8.424.589,11.634m5.015-16.675a8.64629,8.64629,0,0,0-2.956,7.416m-4.503,27.43s-5.365,9.639,5.173,16.345m-3.718-11.722a10.74426,10.74426,0,0,0,5.584,9.981m-53.967-42.989s2.342-4.313,8.604-4.753a48.29374,48.29374,0,0,1,9.561.063m-15.301,5.109a11.014,11.014,0,0,1,8.474-2.495m-3.223,16.791s12.659,8.534,15.303,15.385m-19.131-16.145s7.846,5.761,11.826,10.452m-15.686-11.236s9.027,7.776,11.598,11.003m2.64,3.093a27.91933,27.91933,0,0,1,3.821,5.558m-22.263-20.528s15.148,14.93,18.451,20.48m-53.995-62.553c-.796.126-12.106,7.371-10.981,16.462m9.697-12.434s-5.449,3.959-6.606,8.629M247.32,418.498s3.86,18.862,7.447,22.504m-16.521-66.974a18.30791,18.30791,0,0,1-5.034,6.364c-3.36,2.578-11.198,7.27-16.299,8.455m17.475-13.824c-1.088,1.581-7.917,6.613-11.07,7.934m-68.692-35.652c-1.568,1.474-9.307,6.24-8.989,11.87.318,5.629,1.043,6.687,1.616,8.389m5.647-15.085c-1.125.621-5.513,4.396-4.267,9.535m-6.029-1.411a95.1597,95.1597,0,0,1-10.109-8.978m10.572,12.854c-.003-.009-6.618-5.065-7.961-6.792m9.33,11.039s-4.216-2.675-5.838-4.07m-2.89-2.683s-2.033-1.912-3.06-3.151m13.628,14.338c.002.004-7.474-3.193-10.605-7.295m115.362,57.77c.3.559,1.438,6.438,3.178,10.856m28.595,9.025a92.37035,92.37035,0,0,1-7.357,5.865m4.173-6.207s-2.771,2.532-3.971,3.327m8.957,8.605c.299-.165,11.363.624,12.695.111,1.33-.513,4.711-2.047,5.352-2.4m-15.543.074a71.84166,71.84166,0,0,0,7.479.542m-21.194,18.104c.294.412,9.003,5.682,15.36,7.176m-12.524-8.362a62.98587,62.98587,0,0,0,6.634,3.783m-53.836-25.738s-11.691,7.557-14.012,13.589m11.792-8.697a76.08265,76.08265,0,0,0-7.462,6.306m-2.452,20.751a9.58812,9.58812,0,0,0,5.168,5.411c3.926,1.604,10.825,3.75,16.219,4.053m-16.634-7.225c.704-.268,6.692,2.87,11.383,3.439m-49.179-50.398a21.1178,21.1178,0,0,0-13.305,8.564m9.921-4.169s-4.106,1.823-5.393,3.576m-7.658,22.053c-.036.058-2.09,12.996,4.421,19.811m-2.005-12.061c.084.152.879,7.893,5.516,12.314m-52.355-63.22s1.214-2.592,5.527-3.054c4.311-.458,7.23-.867,8.907-1.075m-11.472,5.137s3.231-1.782,5.07-1.6m-8.464,28.224c-.586.947-1.587,2.038,4.58,9.927M29.063,427.803s-.247,10.58,9.42,19.814c5.187,3.88,5.798,3.682,9.033,3.062m-12.59-13.06c.515,1.863,1.697,6.24,9.254,9.68m12.579,13.912a31.16091,31.16091,0,0,0,16.938,18.75M61.128,463.714c.072.33.976,4.655,6.546,9.368m-3.573-9.157c.269.317,1.39,3.688,4.102,6.085M69.9,394.617c-.599.588-10.41,4.048-12.67,8.273s-5.832,16.688-6.78,21.654m17.2-25.034a21.07177,21.07177,0,0,0-6.343,4.396c-1.786,1.896-2.542,5.227-3.927,9.245m18.071-13.624s-1.547,9.312-16.46,20.299m10.205-15.427a34.84816,34.84816,0,0,1-6.298,5.706M434.173,242.157c-6.03,2.962-9.869,4.953-9.419,5.003,1.817.21,1.484,1.367,3.817,2.512,2.333,1.142,4.07,4.717,5.415,8.923,2.429,7.594-2.319,12.952,2.839,15.696,5.156,2.746,8.098,4.281,7.694,4.263-.404-.021,2.602.505-2.631,1.937-5.232,1.433-17.59-3.897-20.944-12.99-3.353-9.091,2.578-19.506,1.506-19.235-1.071.273-74.701,36.559-89.935,43.27-15.229,6.71-65.177,28.698-80.543,36.456-15.369,7.755-23.501,9.981-21.934,11.061,1.569,1.078,10.436,2.825,15.353,4.245,4.917,1.418,10.295,3.067,18.153.428,7.861-2.64,15.083-5.411,23.609-8.904,3.784-1.549,12.337-4.001,23.067-6.632m180.153-112.7s-32.134,14.992-51.591,24.42m156.497-75.974s-.782-2.687-.867-9.925c-.085-7.243-4.847-17.468-6.307-23.125-1.462-5.659,3.749-11.608,3.404-16.382-.343-4.77-1.782-12.923-1.827-12.997a39.20465,39.20465,0,0,1-2.832,6.013c-3.775,5.379-15.012,22.723-10.678,38.079,4.333,15.357,15.099,12.289,17.28,18.954m80.022-30.48c1.903-.828,3.581-1.581,5.484-2.495,19.997-9.586,27.944-13.246,29.91-14.086,1.966-.845,3.991-9.5,12.26-16.986,8.268-7.482,11.256-11.319,10.666-7.104-.591,4.217-3.824,15.973-8.047,17.575-4.222,1.6-4.741,2.859-5.445,4.225-.709,1.361,10.98-1.689,14.456-2.881,3.478-1.189,14.416-1.634,17.751-3.963,3.332-2.329,1.588-7.688,11.292-10.371,9.702-2.683,19.888-.525,24.149-1.179,4.262-.652,8.354-.726,9.531.085,1.177.809,2.318-1.523-2.982,1.647-5.3,3.171-11.121,7.6-16.331,8.288-5.213.69-14.76.131-17.285,1.281-2.529,1.149,2.408,3.043,3.752,3.273,1.344.232,6.818,1.341,16.766-.02,9.95-1.357,15.071.433,20.772,2.391,5.702,1.956,7.418,1.984,4.229,3.259-3.187,1.27-7.515,4.879-15.805,4.838-8.292-.043-26.702-6.354-29.688-8.408-1.959-1.349-3.22-1.869-6.034-.801-2.815,1.069-29.264,4.247-33.112,5.644-3.851,1.396-21.652,10.983-33.822,16.246-12.171,5.26-35.886,14.708-43.666,17.793-7.782,3.08-38.199,14.046-41.656,15.708a52.44869,52.44869,0,0,0-5.637,3.107c-4.101,2.016-57.652,24.064-57.652,24.064,2.416.853,1.685,3.935,5.636,2.723,3.955-1.209,7.198-1.058,16.274-.477a41.7168,41.7168,0,0,1,18.591,5.048c5.058,2.559,8.222,3,6.897,3.245-1.323.246-9.251,4.38-16.403,4.196-7.154-.184-29.36-7.371-30.452-8.472-1.093-1.096-1.809-4.593-4.643-4.001-2.833.593-28.076,11.686-29.123,11.985M179.788,306.01c.632-2.309,1.268-4.301,2.008-6.278,6.425-17.117,12.414-33.741,11.883-37.19-.531-3.45-9.044-12.268-5.658-23.279,3.39-11.011,7.716-14.46,12.91-18.159,5.193-3.702,5.92-2.815,3.617.046-2.304,2.863-4.082,2.127-5.398,8.932-1.318,6.807,2.561,9.912,1.05,14.425-1.511,4.515-3.31,10.435-3.215,13.35a39.70718,39.70718,0,0,1-1.15,13.125c-1.562,5.492-8.54,23.031-10.472,30.955-1.931,7.927-6.498,29.468-6.001,38.729.491,9.261,1.686,13.479,1.686,13.479m-1.903-45.594c-2.571,10.232-4.048,24.265-5.017,34.064,0,0-1.893,16.144-3.541,17.12M49.265,443.238c12.872-10.886,25.703-21.277,34.065-26.979,21.52-14.684,33.458-26.009,62.948-43.095m67.496,97.114a30.48653,30.48653,0,0,0,8.815.617c17.275-2.002,34.999-4.253,41.437-7.566,6.437-3.31,10.186-4.893,14.077-7.528,3.893-2.637,2.633-5.35,10.661-7.105,8.029-1.758,7.669,1.114,14.866.057,7.199-1.056,10.758-2.535,9.844-1.545a13.25262,13.25262,0,0,1-3.853,3.588c-3.149,2.221-8.596,6.45-13.539,6.746s-13.933-.574-16.085.374c-2.152.944-8.051,3.473-11.963,5.634-3.913,2.158-28.806,10.8-49.788,10.23-20.983-.572-70.486-20.648-81.06-25.264-10.574-4.614-12.597-5.197-12.597-5.197s-1.388,1.008.052,3.616c1.44,2.609,4.931,4.085,5.352,9.688.42,5.604,4.649,8.859,5.08,10.083.432,1.22-2.134,1.421-4.26.651-2.126-.773-13.051-13.947-11.472-17.252s3.057-6.795,2.354-7.623c-.7-.831-31.63-17.06-31.63-17.06s-31.543,23.742-32.911,25.227c-1.37,1.486-2.532,3.343,2.255,6.291,4.791,2.948,10.178,6.539,13.804,11.343,3.626,4.807,6.854,11.533,12.665,11.485,5.809-.046,10.235.069,6.964,1.633-3.269,1.562-2.671.86-10.985,2.533-8.315,1.675-23.428-6.753-26.968-21.089-1.856-7.525-.826-8.543-2.213-7.536-1.388,1.012-39.612,33.062-45.785,38.174-9.549,7.91-81.354,76.312-83.308,78.102-1.293,1.188-9.161,1.902-4.586-6.654,6.235-11.66,30.282-31.366,54.691-54.085,14.746-13.725,40.217-37.213,65.365-58.906m321.274-23.551c11.317-.31,28.669-1.537,32.842-3.308,5.71-2.425,4.985-1.538,6.731-5.421,1.748-3.882,6.391-10.092,16.71-11.174,10.323-1.076,11.206-.352,12.781-1.465,1.577-1.112,1.218,1.762-1.475,3.488a61.01168,61.01168,0,0,0-10.793,8.636c-3.192,3.469-15.111,7.858-16.931,7.649-1.82-.212-4.82.959-6.785,1.802-1.966.843-24.903,3.782-35.96,3.567-11.06-.213-53.38-8.816-65.796-11.929-12.417-3.111-39.938-9.918-41.693-9.677-1.756.24-1.944,2.828-1.229,3.823,1.666,2.322,9.812,10.398,10.015,20.015.204,9.614,6.85,13.725,5.835,14.527-1.016.8-6.777-1.78-9.5-3.995-6.408-5.214-9.723-20.146-10.376-25.393-.776-6.231,2.753-9.543,1.018-10.044-1.736-.502-34.553-13.258-41.019-15.276-6.466-2.023-23.594-6.179-27.066-7.181-3.468-1.004-16.863-2.355-20.25-3.651a12.67351,12.67351,0,0,0-6.439-.655s-20.174,11.464-24.896,14.801c-4.723,3.337-19.716,14.047-22.305,15.964-2.59,1.917-6.572,7.033-6.572,7.033s10.269,5.829,12.484,6.757c2.216.932,4.716,1.496,8.011-1.783,3.295-3.28,2.655-7.961,12.111-9.33,9.458-1.367,10.32,1.077,15.768-3.147,5.447-4.225,8.386-4.633,6.643-2.941-1.741,1.693-2.801,3.736-4.688,6.482-1.889,2.741-3.051,4.601-7.458,6.307-4.407,1.703-14.846,5.693-16.753,5.323-1.907-.369-5.735,1.502-6.461,2.389-.728.889,15.028,8.723,20.768,11.631,4.874,2.473,49.76,22.76,73.93,27.631M218.055,391.88c8.764,3.669,21.022,8.954,28.302,10.94,12.377,3.377,13.928,3.979,13.187,2.199-.742-1.78-3.344-7.879-2.798-12.801.547-4.922,14.093-13.849,17.76-17.342,3.667-3.487,3.704-3.995,3.228,1.375s1.376,8.725-.164,12.979c-1.542,4.254-13.76,10.758-14.115,13.629-.359,2.87-1,3.47-.319,3.823.681.352,36.763,12.282,38.162,12.236,1.397-.041,4.697-.462,6.061-4.806.77-2.452,2.233-8.286,8.088-9.573,10.395-2.285,22.034.718,28.115.277-2.114,1.899-3.931,1.688-11.552,6.382-7.621,4.695-17.363,6.425-20.44,5.694-3.079-.731-5.834,3.224-5.834,3.224s38.864,7.716,45.933,8.187c1.242.084,2.452.117,4.787.096M210.529,388.904a36.2314,36.2314,0,0,0-5.065-1.676c-7.314-1.795-16.254-6.099-26.692-7.385-10.436-1.289-15.9-3.701-15.9-3.701s26.992-16.286,29.312-17.809,27.708-14.116,27.708-14.116c1.666-.755,10.481,1.109,25.014,5.666,13.733,4.31,42.727-9.814,48.464-12.175,12.087-4.972,45.631-10.362,54.787-12.185,7.961-1.588,15.875-3.245,23.612-4.358,7.736-1.108,17.96-2.403,23.762-3.643,5.1-1.092,33.131-5.169,40.104-7.074a45.76837,45.76837,0,0,1,15.177-1.574c2.77.169,7.024,1.713,11.652,3.048,4.627,1.333,18.794-8.674,21.474-11.859,2.678-3.183,6.475-3.574,7.965-4.399,1.491-.82-7.312-1.795-10.258-.412-2.943,1.385-5.344-1.424-14.758.903-9.415,2.322-11.033,5.559-14.863,8.161-3.83,2.604-6.991.699-5.601-.607,1.389-1.308,4.315-5.976,7.849-5.741,3.537.236,15.151-6.908,19.108-10.306,3.958-3.405,3.012-5.554,3.597-7.581.582-2.025-1.325.245-6.874,4.282-5.552,4.035-9.911,2.313-17.186,6.086-7.277,3.775-7.494,7.785-8.661,11.835-1.169,4.047-1.478,3.49-4.666,4.763-3.186,1.274-14.169,2.965-32.387,4.757-18.216,1.791-52.448,8.056-52.448,8.056-.839.191-4.546-1.51-.648-4.687,3.896-3.184,5.369-4.377,12.78-5.488,6.243-.931,11.978-4.766,18.652-15.401,2.917-4.646,10.154-2.855,10.072-5.563-1.613-1.595-11.885-4.348-18.411-1.64-8.607,3.578-32.712,17.227-28.13,33.361-8.98.995-22.03,3.728-34.632,6.726M47.14,438.679c1.33,3.37,4.732,8.569,3.61,11.378-1.124,2.809-7.89,5.087-10.552,2.91-2.661-2.18-17.366-16.916-14.028-28.485,3.336-11.566,3.892-13.074,5.741-15.145,2.91-3.266,3.402-3.52,3.462-2.095.057,1.428-4.37,16.276-1.304,19.202C37.137,429.368,44.693,432.488,47.14,438.679Zm2.959,3.852c.227-.189,1.39-9.844,4.105-13.349,2.715-3.506,16.801-9.37,22.991-23.091,6.191-13.724,6.37-26.771,5.838-26.248-.534.521-1.717,5.646-4.65,7.265-2.935,1.621-20.633,7.382-25.125,14.604-4.491,7.222-7.752,24.431-6.547,29.421,1.204,4.988,1.403,8.264,1.062,8.994M160.198,338.063c-.497-1.06-2.021,1.846-5.865,5.671-3.845,3.826-15.384,9.348-10.58,23.106,1.889,5.412,3.08,7.176,4.001,9.948.923,2.772,2.164,2.979,3.32,1.329,2.052-2.929-1.635-8.247,3.609-13.058C162.669,357.732,162.128,343.323,160.198,338.063Zm-17.324,19.732c-.597-.231-8.63-7.949-12.417-10.845-3.787-2.893-3.667-4.66-3.667-4.66a12.64613,12.64613,0,0,0-1.228,7.243c.422,4.511,3.019,15.596,11.126,22.789,4.013,2.647,4.191,3.216,4.524,3.822m70.385,15.759c-2.95-5.472.186-7.934,5.745-10.723,5.558-2.79,2.572-8.335,11.026-13.397,8.457-5.064,15.112-6.215,15.204-10.462.095-4.249,1.573-.841,1.34,2.951-.232,3.793-1.543,18.412-10.212,23.518C226.026,388.893,215.052,394.574,211.597,391.903Zm109.856,34.694s12.817,6.089,16.94,18.399c4.124,12.312.123,14.4.048,16.752-.926.146.167-3.376-1.691-4.537-1.857-1.162-17.854-11.416-20.103-17.469-2.249-6.054-10.198-11.27-11.315-13.445a2.89162,2.89162,0,0,1,.147-2.942m52.189,7.228c-2.679-.223-.737-2.872-.131-5.519.607-2.646-2.998-12.692-.335-18.66,2.662-5.967,10.092-9.464,12.157-12.549,2.066-3.086,2.522-3.582,2.516-1.391-.005,2.192,2.204,10.818-.237,15.207a76.72209,76.72209,0,0,0-5.061,11.306C364.91,423.665,358.728,430.674,357.668,430.583Zm2.859,1.569s2.329,2.953,2.423,5.879c.097,2.982,2.102,6.816,3.709,9.607,2.18,3.78,13.24,15.195,12.232,16.373-.514.307.233-.295-2.845-1.028-3.077-.73-11.604-3.013-15.284-5.054s-10.579-11.18-7.003-17.47c3.579-6.288,2.869-7.327,2.374-8.349m36.046-7.94c1.596.031,1.612-.709,1.904-1.721.292-1.016-.806-6.305,2.003-8.704,2.805-2.401,7.924-4.401,12.565-8.402,4.325-3.724,8.243-10.386,9.776-15.974.412-1.499,2.24-2.33.331-1.822-1.908.506-8.546.708-15.056,6.307-6.51,5.603-11.879,19.325-12.574,22.143C390.434,418.811,390.58,424.141,392.179,424.17Zm23.67-3.697c.788-.213,2.451-.515,7.078,2.581,4.628,3.096,1.554,4.796,9.959,4.165,8.404-.63,8.833,2.834,8.644,3.433a12.90661,12.90661,0,0,0-2.478.139c-3.746.393-12.519,7.048-18.453,5.22s-13.48-8.891-11.752-11.708m-15.393,5.177s2.055,2.535,2.501,12.936c.512,11.845,14.234,19.296,15.715,18.702,1.343-.542-5.586-6.153-4.18-10.208,1.406-4.062.697-5.674.907-9.257.21-3.58-8.375-14.155-9.256-14.853m-133.6,37.869c1.61.583,3.289,3.182,5.934,3.788,2.646.604.545-2.124,7.948-1.473,7.403.652,16.729,8.515,22.023,7.535,5.294-.981,7.593-1.885,6.845-.377-.748,1.505-2.407,2.907-8.96,6.891-6.554,3.986-29.497-5.547-29.333-9.307-2.536-2.391-6.846-6.139-8.004-5.741m10.114-6.72s-.963-3.513,1.338-5.513c2.298-2.001,11.604-7.381,13.811-12.853,2.206-5.476,1.792-14.366.249-12.54-1.545,1.827-5.372,7.223-7.235,8.25-1.864,1.03-6.16,3.158-7.671,8.127a87.27957,87.27957,0,0,0-2.681,15.634m-57.387,13.655c2.912.325,2.421,3.054,6.212,3.47,3.793.418,13.192-.395,22.294,5.52,9.102,5.918,9.344,8.336,9.436,8.832s-3.567.146-7.46,1.021c-3.895.872-21.944-1.43-26.619-7.913a39.59453,39.59453,0,0,1-5.03-9.076C210.98,474.814,210.967,473.852,212.532,474.025Zm-1.004-4.181c.009,2.02,1.411,2.249,1.878,1.442.749-1.29-.596-.75,3.611-4.358,4.208-3.606,6.722-3.426,11.719-6.186,5.74-3.17,13.741-19.37,12.462-21.676-1.457.344-4.572,4.261-6.697,4.703-2.126.448-5.63,1.56-10.783,5.135-5.15,3.575-10.471,8.247-12.053,13.132S211.528,469.844,211.528,469.844ZM164.25,453.878c.548-1.155,2.122-2.267,2.132-6.649.012-4.385,7.868-14.315,17.569-15.054,9.7-.735,14.108-2.44,14.893-1.899.783.537.694,2.047-2.38,4.232-3.076,2.184-4.582,4.716-10.853,9.884-6.272,5.164-18.989,8.295-18.955,10.465m4.485,6.87a19.112,19.112,0,0,1,4.688,8.487c1.233,5.155,6.632,14.931,11.378,17.36,4.745,2.431,7.52,6.553,4.111,5.068-7.444-3.228-7.566.109-12.683-.335-5.796-.501-13.998-8.617-14.407-18.602-.375-9.203,2.43-13.587,2.521-13.553M316.396,324.267c-1.934,3.381-4.862,6.522-5.878,5.309-1.017-1.209.153-2.146,1.5-4.109,1.347-1.958,3.083-14.227,7.499-18.121,4.412-3.896,21.468-6.472,24.256-9.348,2.787-2.882,4.581-3.594,3.54-1.956-1.042,1.633-1.679,4.664-4.584,8.212-2.902,3.549-8.752,10.277-18.768,13.122C318.203,319.012,317.445,322.431,316.396,324.267Zm-30.039,16.788s-.185,1.236,2.139,2.141c2.323.906,6.346.265,11.272,1.921,4.928,1.657,11.066,4.919,14.6,8.714,3.535,3.795,9.073,9.273,10.072,12.736-9.538-3.304-7.856-.379-14.031-.435-6.176-.053-13.896-4.568-18.384-7.742-4.488-3.173-5.706-10.512-8.661-15.682m64.791-17.184s16.023,11.62,22.399,22.507c6.377,10.883,7.101,8.233,9.273,9.526,2.173,1.294,2.433,1.275-1.597,3.054-6.451,2.849-20.377,2.272-28.675-12.839-5.235-9.537-1.125-9.142-4.091-21.589m50.066-8.66s6.427-.695,15.1,8.191c8.676,8.889,10.818,26.307,14.361,29.09s10.601,2.353,8.393,4.299c-2.206,1.95-18.438-.939-28.625-9.355-10.185-8.418-15.009-26.693-13.859-31.362m48.076-8.718c-.402.077-1.972,6.224,9.206,15.188,11.176,8.964,20.218,8.167,24.438,6.562.974-.368,5.687.72,3.139-1.914-1.648-1.699-4.496-5.752-7.841-8.252-4.351-3.253-23.639-9.802-24.019-12.296m-89.464,15.309s18.668-.681,23.247,7.612c4.305,7.796,6.887,6.219.612,7.225-6.276,1.01-11.269,2.95-16.917-2.271M182.825,313.51s.497-.794,6.985-1.109c6.491-.315,12.132-5.716,13.571-8.325.689,1.839-.693,2.836-1.283,7.629-.748,6.073-4.905,10.638-11.345,10.691-4.997.042-8.965-3.465-8.887-3.892M372.748,196.155c-1.074-1.401-3.993-2.161-4.096-.061-.099,2.098,1.057,3.874,2.916,6.251,1.862,2.374.299,4.829,5.467,9.525,5.14,4.677,8.884,6.243,15.985,6.931,8.492.819,13.123-1.228,12.596-2.313-.259-.537-3.292.337-5.46-1.966-2.487-2.639-2.34-5.78-8.324-8.682-5.72-2.773-11.768-2.135-13.388-2.67C376.665,202.584,375.699,199.996,372.748,196.155ZM181.12,308.106c.032-1.335-1.242-.322-2.556-5.417-1.315-5.096-3.75-12.266-6.938-14.748-3.188-2.483-2.95-1.261-2.67-4.75.279-3.49-4.488-13.703-5.135-14.182-.647-.48-.492,2.88-1.559,5.485-1.07,2.604-3.792,11.854-1.182,16.389,2.608,4.532,15.371,14.301,16.639,16.261C178.988,309.107,181.087,309.439,181.12,308.106Zm9.683-22.748s.183-.158,3.586-.379c3.403-.225.86-1.896,10.439-1.089,9.577.807,8.842,1.311,10.387-.666,1.54-1.975,2.571-3.018,2.64-.824.124,4.08-1.633,8.346-8.205,10.608-6.169,2.126-14.414-2.448-15.392-3.984-.975-1.542-3.184-2.652-3.982-2.195m6.876-31.131a23.12109,23.12109,0,0,1,8.827-6.522c6.57-2.83,6.568.153,14.914.553,8.345.398,7.418-1.894,8.565-1.994.485-.04.536,3.996-1.766,5.879-3.444,2.818-5.028,6.024-17.762,9.578-5.274,1.472-9.064.19-12.873-.396m238.266-23.484c1.816-1.069,3.021-.387,5.174,2.795,1.955,2.894,1.235,8.347,10.698,8.724,8.846.348,10.06-1.821,18.024,1.74,7.967,3.557,10.89,12.107,10.097,12.641-.796.533-4.859-4.975-9.802-1.971-5.632,3.426-28.276,1.969-35.032-19.261C433.675,240.867,434.553,239.764,435.323,239.312Zm.042-5.591s-3.75-12.877,7.645-20.869c11.39-7.99,16.266-10.83,16.279-15.214,2.48.09,4.273,4.994.314,11.801-3.962,6.807-11.914,13.873-16.544,15.945-4.63,2.07-6.103,4.211-4.599,6.728m50.037-19.056c.113-2.163,4.099-6.119,7.066-6.027,2.969.095,3.855-.282,9.862,3.331,0,0,6.914,6.832,13.402,7.098,5.97.242,9.336,5.511,14.16,2.027.777-.562,1.533.795-3.359,6.139-4.889,5.345-19.912,10.998-27.861.069-7.951-10.929-7.071-8.679-8.697-9.146C491.442,216.078,488.392,215.007,488.497,213.056Zm12.61,11.732s3.147,4.09-1.205,11.234c-4.351,7.145-13.205,13.4-14.931,12.259-1.727-1.146,1.075-1.688,1.3-4.912.224-3.227.799-15.395,3.058-19.562,2.258-4.164-1.457-7.149-2.492-6.666M603.175,166.97s-2.435,1.727,6.139,4.043c8.574,2.317,11.212-3.027,20.124,5.181,8.911,8.209,9.476,22,13.896,22.963-2.422,1.339-4.743,2.861-10.804-3.276-6.062-6.133-12.797-7.764-17.689-10.896-4.89-3.134-9.613-12.881-14.223-16.951m.69507-6.146s5.978-5.984,6.202-9.541c.223-3.56-.086-4.119,2.833-5.001,2.915-.883,12.327-10.696,16.28-11.907,3.951-1.21,5.903-.326.241-3.085-6.988-3.405-24.443.625-27.471,8.377-3.029,7.75,1.788,17.767-1.45,22.465M747.661,113.677c.014.002-1.783,1.489.932,8.381,4.101,10.422,10.311,9.869,16.721,17.513,6.411,7.643,6.417,12.504,7.516,11.408,1.101-1.091,2.36-.572,2.864-4.499.505-3.925-4.607-15.827-8.397-18.288-3.789-2.457-1.225-2.658-3.533-5.516-2.306-2.858-13.983-7.35-14.79-9.215m7.53094-13.117c.234-1.486-3.864-2.648,4.444-9.184,8.308-6.529,13.076-19.472,11.814-23.955-1.261-4.487-2.833-3.371-3.663-2.67-.828.699,1.035-.328.927,1.677-.109,2.005.882,2.918-2.928,5.263-3.811,2.348-8.331,3.434-13.357,8.836-7.859,8.444-6.013,14.675-5.027,16.635,2.745,5.45,3.194,9.602,2.757,10.498M669.048,141.57s1.632,1.871,6.634,1.906c5.001.033,11.897-.247,18.336,4.584,6.438,4.835,6.374,6.695,11.98,8.704,5.605,2.01,9.192,3.435,9.322,4.333.132.901.096-1.146-3.543-.473-3.642.671-16.661,10.78-27.068,2.062-10.409-8.72-13.994-12.998-17.261-20.466M738.137,115.128c-3.13,5.559-9.626,5.681-4.692,16.269a130.29139,130.29139,0,0,0,10.034,18.165c.911,1.319,2.409,1.724,2.878-5.352.471-7.073,2.642-6.114-.985-13.67-3.625-7.557-4.141-6.178-2.58-9.958,1.56-3.78.4-6.207.4-6.207m-4.752-3.134c-1.003-1.016-6.046-6.186-4.704-12.34s4.87-8.104,9.202-17.063c4.33-8.955,4.195-10.521,3.58-11.641-.62-1.116,3.63,4.926,4.32,7.827s1.156,4.329,1.156,4.329M750.101,100.051a17.7927,17.7927,0,0,1-4.698,5.777,6.39137,6.39137,0,0,0-2.215,4.694m-65.243,16.995c-.715.358-4.038,4.074-4.92,8.067-.481,2.18-2.448,2.554-3.341,1.709-1.939-1.833-1.175-3.331-.494-5.348.652-1.929.192-3.285,1.564-11.703,1.37-8.414,5.004-17.354,15.298-22.488,10.293-5.138,11.734-4.839,10.506-3.431-1.229,1.405-.949,1.251-2.807,6.472-1.859,5.221-4.618,11.121-7.147,12.154-2.53,1.033-3.591,1.35-3.246,4.345C683.792,121.066,678.97,127.005,677.945,127.517ZM336.042,248.776c-2.771,9.877-10.555,32.725-14.471,38.267a12.33884,12.33884,0,0,1-2.25,1.564c-4.333,2.394-62.129,30.48-70.573,33.687.037-2.574,19.276-12.65,23.489-17.897,4.216-5.245,2.376-13.529,3.005-17.342.63-3.812,2.972-4.196-6.704,2.061-9.674,6.257-20.439,26.059-22.297,31.279-1.858,5.222.774,2.064-2.211,3.715-2.984,1.646-29.012,12.616-75.092,36.605-6.77,3.524-11.745,6.297-17.245,9.424m264.365-236.04c1.236-1.559,2.504-3.023,4.133-4.753,2.222-2.363,3.949-.347,8.543-3.644,5.477-3.927,7.363-7.697,8.12-13.714.296-2.377,5.272-6.716,5.272-6.716a58.937,58.937,0,0,0-12.557,3.61c-9.108,4.126-10.665,12.866-12.759,18.327-.351.909-7.435,10.296-17.065,22.081-9.631,11.791-29.127,38.628-31.279,41.86-3.073,4.625-2.375-.272-1.983-.988a16.2656,16.2656,0,0,0,.932-14.79c-5.426-12.756-12.041-9.201-13.695-22.373-.11-.871-2.277,2.174-1.894,5.466,1.018,8.792-5.533,15.411.768,25.173,6.301,9.754,11.467,14.021,9.758,15.998-1.531,1.771-19.022,31.41-24.47,44.077m31.036-44.589c-1.782,2.538-3.054,4.412-4.766,6.992-11.896,17.938-16.082,27.22-20.637,40.455-4.557,13.238-10.146,25.304-13.497,37.266,0,0,23.549-9.28,34.663-14.686,11.114-5.409,69.756-34.391,86.236-43.733,16.481-9.347,33.059-16.312,34.53-17.609,1.471-1.302-.946-2.156,3.092-12.894,4.038-10.741,9.793-21.454,19.134-28.314,2.331-5.906,1.977-5.227,3.417-2.62,1.44,2.611,3.3,10.821-.142,15.154-6.641,9.989-12.637,10.141-14.485,13.837-1.851,3.695-7.908,11.658-7.083,13.152,5.627-2.139,25.768-9.37,37.375-13.831,11.605-4.467,50.782-20.268,64.256-26.248,11.661-5.178,53.579-19.848,77.731-29.964m-254.625.743c-4.558,6.176-6.76,11.024-12.79,19.139-9.096,12.234-19.478,25.028-29.52,39.081m45.231-60.408a1.72265,1.72265,0,0,0-2.733.265c-1.249,1.725.313,2.48,2.276,4.157s2.955,5.706,10.185,8.838c7.033,3.046,10.893,2.445,19.468-5.258,8.087-7.267,5.717-8.09,10.722-9.351,1.118-.281-2.313-1.65-5.248-1.92-3.144-.285-7.278,1.646-13.177,5.082-5.899,3.438-14.586,8.046-17.077,4.708C418.97,137.819,417.038,134.636,417.038,134.636Zm-4.731,4.844s4.714.211,6.382,2.186m8.077,6.23c1.342,3.562,4.672,9.553,5.972,10.323,1.306.771.58,2.821-4.251-.028-4.832-2.849-9.976-5.354-12.584-10.284-2.604-4.929-5.289-4.19-6.445-3.997m-2.77594-3.237s-2.858-.603-.155-6.19c3.758-7.778,8.312-17.42,5.283-26.847-3.034-9.43-.486-19.78-4.427-12.808-3.944,6.973-11.351,14.07-13.07,22.981-1.716,8.909-2.327,14.971,3.225,20.697,3.961,4.083,5.961,6.153,5.961,6.153M378.61,185.771a20.83883,20.83883,0,0,1,13.79-.209c7.867,2.46,17.163,2.192,19.104.288,1.938-1.904,1.588,1.579-.503,4.04-2.089,2.456-13.675,14.679-22.123,10.818-8.448-3.855-12.696-6.725-15.097-5.895a13.54149,13.54149,0,0,0-1.716.697M208.788,339.988c1.705-3.472.547-6.277,4.716-10.024,4.169-3.75,9.49-2.562,12.052-15.896,1.441-7.479-1.764-6.935.935-14.916.742-2.194-2.782-.121-4.44.536-1.66.662-5.233,3.554-9.204,9.252-4.824,6.922-5.961,18.061-5.18,20.938.779,2.88-1.09,9.85-.843,11.074M340.263,246.382c1.626,5.109-3.149,6.168-6.973-1.803-3.465-7.213-3.838-3.123-4.725-13.394-1.083-12.582,5.042-10.908,6.006-18.584.96-7.678-4.455-13.307-4.455-13.307s6.865.646,10.271,3.665c3.899,3.453,5.049,12.745,1.74,20.334-3.312,7.59-7.35,17.604-4.828,19.896C339.822,245.479,339.957,245.422,340.263,246.382ZM1789.747,417.894s-4.829-.986-7.80506-.222m9.62915,2.214s-3.807-.251-6.863-.312m9.964,2.408a40.5947,40.5947,0,0,1-6.851-.195m12.07,3.053s-8.427-.437-10.677-.972m-.773,1.711a11.15226,11.15226,0,0,1-2.816-.908m18.104,2.472a56.735,56.735,0,0,1-13.488-1.163m17.51,3.704s-13.064,5.703-16.689,9.481m19.072-8.407c-.254-.138-8.36206,3.956-10.062,5.018m-2.255,1.293s-2.443,1.322-3.239,1.87m17.042-7.394s-7.405,4.025-8.65406,4.805m10.1781-4.023s-8.842,5.705-11.901,6.871m13.286-6.188c-.18994-.093-6.15405,5.679-9.687,7.162m-2.31506-14.481s-9.272-7.051-11.25806-11.04m14.994,12.456a114.87479,114.87479,0,0,1-9.066-8.657m11.37109,9.596a49.38776,49.38776,0,0,0-4.058-5.006m-1.516-2.146c-.4-.42-.892-.994-1.702-1.846m10.817,9.769a41.71349,41.71349,0,0,0-3.554-4.438m-.75109-4.672c-.332.006-3.814-10.67-3.401-13.717m6.74805,18.296s-1.95605-5.224-2.183-7.635m-.245-1.892s-.511-3.18-.49194-3.88m5.55188,17.371s-3.07495-10.695-3.005-12.961m5.21607,13.531c-.20606-.266-1.317-5.768-1.752-7.531M1796.959,445.312s-6.636,5.943-8.116,7.967m13.90393-9.856c-.11695-.229-3.977,2.639-5.529,4.172m-2.205,2.121a24.97711,24.97711,0,0,0-2.766,3.235m25.224-18.61c-.12195-.052-13.04395,10.094-16.58106,12.801m18.24805-12.151s-9.058,8.012-11.63794,9.782m13.437-8.86s-10.704,9.465-12.91,10.95m-2.395-.587s-2.259,1.754-2.979,2.342m-3.564.383s-1.921,1.699-2.30005,2.146m31.28406-13.535s-.445,5.563-3.017,7.632m1.525-8.067c-.123.316-1.401,6.141-4.69494,8.574m3.16687-9.022a18.58647,18.58647,0,0,1-2.536,5.317m.527-5.512c-.035.077-2.28895,6.18-5.626,8.863m14.05408-12.07s1.187-7.854.925-10.646m.89588,10.743c.098-.165,2.468-11.017,1.62195-13.4m-5.283,8.328s-.188-4.818.438-6.902m.64709-2.23a15.3892,15.3892,0,0,1,1.056-2.437m-3.92407,6.831s.62195-7.732,2.68994-10.07m54.40405,19.821a38.82085,38.82085,0,0,0-8.305-14.301m-1.80994-.383s-10.09,1.243-16.99194-6.033m16.236,4.721c-2.891-.875-3.124.302-7.60705-1.923m-2.01392-1.159a15.351,15.351,0,0,1-3.61-2.289m29.548,49.195c.93506.096,9.12,2.971,10.521,11.567m-10.10607-8.864c.973.072,5.627,2.112,7.655,7.896m-10.217-40.962c.005-.274-.63794-6.415,1.005-10.62a28.08247,28.08247,0,0,0,1.933-10.231m-.91894,21.818a17.15073,17.15073,0,0,1,.592-7.11m.689-2.385c.077-.289.816-2.531,1.083-4.042m.396,13.467a9.51345,9.51345,0,0,0,3.952-5.937,20.90873,20.90873,0,0,0-.354-9.836m-.04407,14.364c.245-.13,4.426-6.224,2.783-11.546m2.24805,4.973c.063-.15.805-6.821-1.864-11.466m-8.276,19.575s3.09595-5.971,3.25806-9.959m-3.07105,44.647s2.61206,1.711,3.298,2.925m-28.569,5.058a28.5208,28.5208,0,0,1,.371-4.754c.869-4.376,7.58606-12.513,8.106-13.146m-10.34595,14.663a18.2698,18.2698,0,0,1,3.738-8.427m110.21008-49.55a25.26,25.26,0,0,0-.97-8.233,24.24963,24.24963,0,0,1-.975-9.027m-.25708,13.446a16.4506,16.4506,0,0,0-.275-2.809m-.923-3.068c-.329-2.036-.768-7.293-.049-9.445m-2.06408,13.127a34.69758,34.69758,0,0,1-.589-5.727,28.879,28.879,0,0,1,.512-5.785m-40.28992,58.686s1.937-5.09.887-9.055c-.945-3.58.04-9.758-1.899-15.602m.39307,19.133a5.24975,5.24975,0,0,0-.498-2.374m-.275-2.266a48.62628,48.62628,0,0,1-.27795-5.163,39.83448,39.83448,0,0,0-.305-5.069m30.26-36.92a40.73308,40.73308,0,0,0-5.063.164m4.272-1.856s-5.807-.006-8.301.671m-16.06788-9.943s-5.4-1.619-8.693-2.367m-2.7301-1.124s-2.16895-.903-3.371-1.383m17.34106,3.668c-.816-.392-17.344-5.511-19.102-6.353m70.785-4.743s-9.391-6.786-23.905-5.644m22,6.724s-10.262-4.283-13.352-4.406m-2.433-.04a12.58887,12.58887,0,0,0-3.196-.038m14.9541,5.649s-9.155-2.434-11.274-2.986m6.126,4.649s-7.518-1.915-9.605-3.147m5.66406,4.305c.00195-.002-8.371-1.285-10.834-3.717m27.918,6.856c.816,1.161,5.11,5.549,4.996,10.652-.115,5.103-1.84,9.389-3.064,15.338M1990.97,383.804s4.098,4.398,3.809,9.6a33.23789,33.23789,0,0,1-1.89294,9.289m-.803-8.048a10.95732,10.95732,0,0,0-.23206-4.916M1973.854,351.443a16.34394,16.34394,0,0,1-13.502,5.177,9.11881,9.11881,0,0,0-4.045.862m15.788-7.009s-3.618,3.546-7.50806,4.034c-2.718.34-2.648-.043-4.672.161m11.0061-4.892s-4.807,2.377-7.073,2.621m-2.019.09a15.2714,15.2714,0,0,0-2.588.149m9.01806-3.769a40.6873,40.6873,0,0,1-7.365,1.48c-2.248.019-3.99194-.123-4.658-.081m8.6969-2.755a15.73517,15.73517,0,0,1-4.498.686,36.81316,36.81316,0,0,0-6.41394.079m8.145-2.613s-8.192-.319-12.506.979m68.77393,12.425s12.394,24.655,10.938,32.05M2016.557,357.345s9.761,23.311,9.651,27.303m-3.941-3.636c-.391-2.187-.727-3.931-.727-3.931m-.55493-2.603a65.79843,65.79843,0,0,0-5.168-13.899m.278-10.496s.137-4.253-5.746-5.12c-1.09094-.16-2.619-.842-4.486-1.117m10.86291,5.63a7.46639,7.46639,0,0,0-4.236-5.869c-4.465-1.995-5.303-2.43-9.614-2.971m15.275,6.821s1.431-4.47-4.663-7.372c-4.87805-2.322-9.076-4.353-13.499-4.446m13.723,2.307s-10.131-5.089-15.625-4.463m12.684,21.548a29.01193,29.01193,0,0,0-10.802-1.45c-5.292.248-8.543-1.4-13.173-7.537-4.20605-5.572-10.627-7.532-14.019-8.037m15.779,13.455c-3.306-2.231-3.119-6.606-15.23206-11.061m-3.531-1.395s-4.451-1.474-6.712-4.142m-79.27087,100.778a4.19023,4.19023,0,0,1,1.524,5.102m.25488-6.13s4.553,3.856.765,8.607m1.59595-8.818a6.23788,6.23788,0,0,1,1.733,6.896m-.837,2.21a7.40892,7.40892,0,0,1-1.522,2.105M2033.21,338.763s15.365,15.597,13.47,28.729m-14.877-27.174s7.116,9.837,9.903,15.273m1.54407,2.907a47.163,47.163,0,0,1,1.31494,5.654m-13.8479-21.595s5.89,10.085,8.323,14.271m-9.13709-11.227a40.24075,40.24075,0,0,0,3.65,8.219m-31.39893-54.316s-10.005-1.758-17.005,1.915m13.205-.248s-4.73205-.668-7.159-.006m3.54809,2.018s-2.725.056-3.408-.029m.50586,1.996s-2.68994-.292-3.533-1.009m1.144,2.771s-2.798-1.589-3.551-1.976m26.741.21705c-.02295.003-5.025,4.914-10.705,5.124m-2.389.397c-.276.079-2.814-.323-3.797-.372m13.537-4.932s-5.176,3.582-10.556,3.21m6.88709-5.039a17.812,17.812,0,0,0-7.189.66m12.731-1.515a10.96571,10.96571,0,0,0-8.439-.961m29.23193,16.174s2.645-2.264,2.943-4.722c.32-2.632-1.696-6.128,2.694-8.663m-9.14892,13.304a12.36491,12.36491,0,0,0,3.45605-2.707c2.323-3.049-.312-8.192,3.353-10.587m-9.90112-2.836s-3.22706-5.535-6.132-7.616c-2.057-1.474-3.861-1.873-6.963-1.304a12.76832,12.76832,0,0,1-2.958.143m16.819,8.334s-2.189-4.871-3.66895-6.355-4.271-5.623-9.632-4.139m43.17005,11.18s-2.00391-3.729-5.937-4.002c-4.113-.286-5.546-.398-7.411-1.004m14.579,4.903s-4.521-6.344-10.275-6.06m11.226,5.884a17.02736,17.02736,0,0,0-9.23193-7.456c-1.457-.469-2.369-.633-4.381-1.128m22.95691,15.619c3.02588.656,8.25708,8.158,8.5039,14.729m-.31592,4.069a6.00138,6.00138,0,0,1-1.69409,3.423m-.68384-3.385c2.69092-8.31-6.582-18.253-6.582-18.253m-1.833.92c1.771.771,5.614,7.189,6.12988,11.897m-7.67993-10.565c1.825.424,4.258,5.48,4.71508,7.645m3.803,80.498s-10.449-.193-17.89306,4.816m9.09008-1.432a46.45541,46.45541,0,0,0-7.814,2.864m3.95483,1.043s-2.741.882-3.49389,1.003m.98193,2.076a16.46,16.46,0,0,1-3.9541.146m2.16016,2.232s-3.59107.732-5.47608-.824m25.41113-10.223c-.04492.094,2.26807,6.416.98291,12.099s-1.425,5.271-2.60888,7.153m.19995-15.836a28.3254,28.3254,0,0,1-.335,11.839m-1.58618-8.122a29.117,29.117,0,0,1-.20606,6.619m-1.82886-3.168a19.48382,19.48382,0,0,0-.37793,3.855m-1.418-1.138a15.01117,15.01117,0,0,0-.09205,4.376m3.86207-16.596c-1.46.254-1.332-.132-3.45289.574q-3.46362,1.149-8.71606,8.023m10.27393-5.932a9.38545,9.38545,0,0,0-5.543,3.201m16.0039-25.122s-3.408-2.968-6.22094-3.293c-2.812-.328-3.3479.197-6.812.669-3.46508.471-4.53588.431-5.47412.21m18.009,3.768a13.42834,13.42834,0,0,0-10.1521-2.387m-2.42188.421s-.97412.102-2.574.093m17.519,5.651a25.90334,25.90334,0,0,0,3.96,3.932c6.08008,4.822,11.13892,11.74,9.2251,20.354m-9.44922-17.954c1.03491.255,7.313,7.597,7.53906,12.458m-9.56006-2.886a7.25526,7.25526,0,0,1,.67994-4.899m17.59912-41.009c6.01,4.327,9.2771,9.751,9.20507,17.682m-.42309,3.359a14.29592,14.29592,0,0,1-1.104,3.255m-10.25684-23.561s9.168,5.827,9.25488,13.871m-10.074-12.643c.47705.422,5.23,4.988,6.219,7.066m-22.978-22.142a15.1514,15.1514,0,0,0-2.835,2.53m23.03492,2.941c-.062-.104.56494-2.461-5.43409-5.672a15.76544,15.76544,0,0,0-12.31494-.916m16.937,7.557s-1.94311-6.634-12.49511-6.141m11.89209,6.49s-5.62207-5.771-10.39209-4.48m23.17212-11.702s-1.46289-7.48-8.188-5.693m-2.773.387a10.14993,10.14993,0,0,1-4.116-.306m14.876,5.73s-3.29907-5.685-8.24-3.628a8.74845,8.74845,0,0,1-5.093.569m12.75391,3.539s-3.261-2.817-5.49512-2.352c-1.854.386-2.11108.504-4.094.884m19.62915-3.7c-.35791.413.863.546-.26392,7.678-.53906,3.411,1.957,6.255,2.668,7.619m-3.76-13.728a17.26639,17.26639,0,0,1-.7041,5.617,6.77192,6.77192,0,0,0,.55,5.523m40.89013-61.679c-.874-.414-2.311-2.412-4.53393-3.815a10.36772,10.36772,0,0,0-8.7-.987m10.69287,5.421s-3.541-4.176-8.3479-3.806m26.845,12.104s10.0791,7.028,9.21289,15.246m-8.82813-12.366c.2439.192,4.231,4.405,5.04712,7.085m1.176,4.119a16.12365,16.12365,0,0,1-.0979,3.522m-8.41919-12.53a13.38,13.38,0,0,0,.10107,6.971,20.50294,20.50294,0,0,0,3.46289,6.632m-73.5188-39.217a6.139,6.139,0,0,0-2.781-4.817c-2.71192-1.613-7.64209-1.522-11.0481-6.23m18.408,11.786c-.04-.325.82495-1.454-1.051-6.612-1.52491-4.195-4.436-6.013-10.87891-8.225m8.803,14.484s.334-4.997-3.46509-7.024c-3.51611-1.878-5.273-2.623-5.273-2.623m10.44605,10.081a10.64649,10.64649,0,0,0-5.75293-10.248m-103.40015-4.792s-10.90405,1.257-16.574-7.422m21.39405,5.603s-12.094.3-16.625-4.196m23.426,3.936s-12.875-2.279-15.416-3.745m25.941,3.068s-19.333-2.192-23.598-5.267m20.835,2.524s-11.028-2.018-14.36206-3.084m10.92211-.038s-13.188-3.703-18.453-4.507m14.398.58s-13.436-4.247-20.23205-3.87m4.81311,22.446s7.76794-7.788,21.901-3.7m-17.7981,3.901s7.588-3.929,13.892-1.978m11.014-18.957c-.521-.503-3.884-11.44-16.531-14.124m11.894,10.864c-.84-.849-6.123-6.424-9.774-7.189m108.00695,55.524s4.262,3.72,2.781,12.372c-1.48,8.651-4.417,16.635-9.092,17.472m5.93017-27.373s3.367,8.416-2.272,20.156m-7.1272,7.285s-.825.003-3.51709.078M2054.408,264.67c.27588.054-3.093,1.034-3.376,4.601a16.00338,16.00338,0,0,1-4.614,10.178m6.16113-15.18305a6.80973,6.80973,0,0,0-2.86792,3.165c-1.0769,3.048-.74292,4.833-2.928,7.828m4.6687-11.275s-3.609,1.874-4.871,4.684m7.9491-14.101a28.75871,28.75871,0,0,0-9.386-23.08m7.373,20.031s.01-9.296-5.904-15.431M1932.827,394.47a60.06843,60.06843,0,0,1-9.031,1.415c-2.891.081-8.422.083-9.562.497m18.04.502a62.54262,62.54262,0,0,1-7.601,1.016m262.197-153.381a12.3733,12.3733,0,0,0-4.594,5.114,15.98274,15.98274,0,0,1-2.72509,4.687m7.35791-12.522a19.53264,19.53264,0,0,0-4.74,4.145m4.72509-7.11s-2.67407,2.402-4.2561,4.084m-.28394-5.543a23.96049,23.96049,0,0,0-3.62695,6.803m7.676-8.078s-3.2959,3.569-4.09107,4.656m-1.68994,7.63c-.05688.135-.823,1.147-1.145,1.705m-3.26294-16.102s-6.21509-1.618-8.69092-3.891m14.58692.897c-1.36792-.919-3.759-6.907-13.07593-5.816m11.29492,6.915s-4.668-4.007-8.66406-4.65m6.83984,5.566s-3.38891-1.881-5.416-2.794m-297.14893,183.33s-4.327-5.854-16.031-10.351m5.73706,75.25a27.4839,27.4839,0,0,1-3.165,5.536m38.373-6.946c-.016.223.109,1.138-1.611,4.916m200.18787-281.161c.019.478-.48291,4.9-3.14893,11.429m5.25611-11.34a43.47208,43.47208,0,0,1-2.033,9.478m-.83008,2.459a30.34964,30.34964,0,0,1-1.37012,3.051m-22.22095-9.454c-.75708.969-3.65307,3.087-5.133,5.122-1.69409,2.33-1.90088,6.582-1.71607,10.689m6.73218-18.482c-2.073,1.197-6.76489,5.885-7.467,7.342a12.63126,12.63126,0,0,0-1.67212,6.972m.47412,7.318s-.373-4.153-.383-4.837m-2.031-7.076c.58911-2.707,2.33789-5.098,5.644-7.725m16.52613-10.233c.7019-8.554,1.408-8.513,1.78906-11.841.491-4.317-2.186-10.689-10.79907-13.543m7.68481,16.167c.05908-.118,2.093-7.749-4.07007-11.766m-14.7268,17.525c-.71412-1.578-4.595-4.596-6.45411-7.123-2.405-3.272-4.78711-9.997-8.44091-11.863m6.17309,12.684c-1.19311-1.525-3.85791-7.788-5.866-9.352M2032.204,187.022c-.41895-2.049.475-9.909-5.329-15.623-5.573-5.485-7.63-5.571-9.142-6.395m11.069,13.888a18.08457,18.08457,0,0,0-8.14795-9.379m3.21094,23.066c.078-.247-3.98706-5.532-12.047-.411m-2.998,1.71a42.94738,42.94738,0,0,1-4.865,2.809m17.23706-2.565s-3.373-2.917-10.641,1.817m215.813,37.426c.33789.846,3.27,8.822,1.37305,14.464-1.896,5.643-2.75806,5.444-4.9939,8.396m2.55274-18.218s1.54492,7.902-1.146,12.052m-8.49292-38.504s-8.741-5.502-14.63989-3.6m-3.05713,1.179a22.60648,22.60648,0,0,1-3.084,1.508m15.655.916s-6.87793-2.583-10.43189-1.223m56.78076,9.687s-.43188,1.221-1.61694,4.673c-1.18506,3.454-1.45288,5.802-3.62891,7.905m-3.322,1.114c.387-.375,3.34009-3.729,4.05908-6.664a41.06,41.06,0,0,1,1.87793-6.022m-48.709-36.314a38.18961,38.18961,0,0,0-4.74.68c-2.551.581-5.90991-.926-7.31909-.951a27.75038,27.75038,0,0,0-5.145.906m10.24609,2.279a21.91622,21.91622,0,0,1-4.20508-.645,10.02805,10.02805,0,0,0-4.91089.323m-6.47705-12.197c-.12988.012-4.62695-1.475-8.36108.021a79.25386,79.25386,0,0,0-9.509,5.131m15.96313-2.865s-5.05908-.388-7.0979.728m-2.77808,1.131a39.69539,39.69539,0,0,0-3.55908,2.053m16.92212-8.81a13.17045,13.17045,0,0,1-6.69189-3.699c-2.553-2.925-7.876-7.276-22.25-6.329m23.25488,9.543s-3.113-1.998-6.03394-4.059c-2.91992-2.062-4.93505-2.517-8.708-2.974m12.14184,7.35s-7.4751-3.734-10.38891-4.312m7.228,5.198a11.35872,11.35872,0,0,0-5.95-1.595,18.78156,18.78156,0,0,1-4.82788-.395m-3.20019-.973s-2.68506-1.002-3.46192-1.239m26.62281-6.748s-.47193-5.946.228-9.429a17.52361,17.52361,0,0,0-1.17505-11.047m2.646,23.421s.45508-6.257.74707-7.887m.429-2.569s.1311-2.537.26489-4.108m.46509,16.442s2.051-7.035,1.4851-13.063m.64991,14.437s1.697-2.721,1.59692-8.891m-15.25488-6.936c-.23511-.56-6.395-12.5-14.57788-14.02m9.34277,10.22s-3.6709-4.705-5.85693-6.218m-147.6189,41.238s-4.129-7.062-11.605-7.624m8.48,6.953a10.14541,10.14541,0,0,0-6.771-3.99m3.288,4.048s-5.717,1.433-7.856.28m229.546-20.114c-.47095.802.1709,1.385-2.873,3.888a53.20737,53.20737,0,0,0-4.332,3.239m3.533.032a15.4616,15.4616,0,0,0,3.418-2.713c1.523-1.83,3.26-4.312,3.001-6.326m2.47216-1.425c.00293.104-.43994,5.845-3.32788,8.567m-5.65112,4.708a8,8,0,0,0,3.25-1.877m2.78687-15.362a11.9795,11.9795,0,0,0-3.915-5.361c-3.21289-2.73-4.978-4.005-4.978-4.005m9.57617,10.193s1.56006-3.467-3.875-8.627m5.03784,8.938s1.085-2.518-.427-6.38c-1.5979-4.091-2.84106-5.366-5.41309-6.953m-2.69775-1.456a11.034,11.034,0,0,0-2.92309-1.193m8.68408,17.805s-10.96094-4.008-15.23609-3.27m12.56006,4.407a64.91142,64.91142,0,0,0-7.99609-2.058m23.51709-10.455s-7.45093.849-8.00391-4.462m3.67383-7.048a7.24084,7.24084,0,0,0-2.9209-5.389m6.593,14.606c-.96094.013-4.14893-.113-4.89209-2.192m9.57007,37.394a16.28124,16.28124,0,0,0,1.98-7.397c.251-4.703-1.03-7.291-.802-9.097m-1.62207,11.659a20.31553,20.31553,0,0,0,.17993-7.731m-2.10376,5.639a9.01112,9.01112,0,0,0,.15307-2.619m31.02271,64.359s6.77588-9.878,16.47095-6.345m-12.86377,5.502c1.146-.979,4.456-4.056,9.06591-3.963m-4.63208,7.089a9.39784,9.39784,0,0,0,5.207-2.79m-13.531,62.185s7.2749-4.704,8.323-9.668a9.42759,9.42759,0,0,0-1.03906-6.433m-5.22388,11.512a18.19868,18.19868,0,0,0,3.16211-3.671m.834-2.358a23.69321,23.69321,0,0,0-.33691-3.561m10.356-131.374c-.59913-1.772-5.02808-10.576-15.176-9.804m11.605,7.684c-.668-.938-3.408-4.945-8.033-5.562m-5.89917,2.782a22.18932,22.18932,0,0,1-2.616-2.428m10.8501,6.735a27.77335,27.77335,0,0,1-5.66894-2.476m-1.072,28.07a74.49525,74.49525,0,0,0,7.49609-5.757m-4.7771,1.101s5.772-4.56,6.09009-5.297m85.19677,24.838s2.762,9.567,1.511,14.676c-.64892,2.665-1.75,5.83-3.53906,7.08m-.95093-3.419s3.564-4.248,1.78906-12.204m-3.533,17.958a31.35375,31.35375,0,0,1-3.88891,2.245m46.91089,3.028c3.7019-2.126,7.77588-8.425,8.6311-13.002m-8.925,10.156c.52588-.463,4.176-3.615,5.55908-7.548,1.37989-3.934,2.675-9.787,3.29908-11.457m16.25586-36.656a8.72833,8.72833,0,0,0,4.947-6.067,13.76237,13.76237,0,0,0,.38891-4.051m-4.832,7.321a7.91536,7.91536,0,0,0,1.96289-3.069,19.4306,19.4306,0,0,0,1.354-6.878m-3.53687,5.987c1.4541-5.276,1.419-5.031,1.47412-6.379M2359.886,131.922s6.54394-7.407,14.279-4.345m-11.41113,4.638c1.91088-1.104,4.81494-3.08,8.03711-2.691m8.052,14.577c1.37988-1.752,5.24194-6.572,6.57788-8.321m.582-18.205c-.294-.228-6.219-4.894-9.491-5.104m6.61206,5.159a26.08288,26.08288,0,0,0-4.23193-2.574M2218.032,249.822c.21289-1.625,1.56592-8.526,2.86011-11.074M2087.728,423.686a16.5138,16.5138,0,0,1-.76392-6.403M2492.575,208.491s12.41992-3.134,14.87109-16.452m-13.06616,13.129s7.40991-3.201,10.08106-10.536m-14.71192,2.517c4.07788-3.836,5.625-4.259,8.14307-4.988m-13.64917,11.977c1.728-2.881,1.26709-2.222,2.23-3.385m8.25513.796a18.70565,18.70565,0,0,0,6.39111-6.512M2515.51,214.725s6.18188-12.151,2.74292-17.435m-3.273,11.466s1.792-5.445,1.479-8.021M2504.061,162.659s-1.771-8.923-11.73389-15.612m8.28076,13.401c-.06592-.124-3.022-6.694-7.573-9.5m2.364,10.646c-.873-.576-3.30811-4.186-3.22-6.165M1889.833,431.797c-13.287,4.598-31.25305,7.88-40.92505,6.406-11.42-1.738-27.567-7.381-34.822-9.726m141.2301-29.345c-9.459,5.512-35.145,18.793-46.436,24.479-4.276,2.054-6.682,3.001-9.72,4.318m123.697-173.277a13.05572,13.05572,0,0,0-2.43006-.028c-2.972-.192-7.649-.035-7.649-.035s8.375,1.841,13.502,3.013c5.126,1.173,8.072,2.969,13.91394,3.729,5.842.759,10.1521,2.72,15.758,3.617,5.604.896,9.39991,2.519,15.75708,3.618,6.356,1.098,21.42505,3.523,25.8379,5.109a21.51144,21.51144,0,0,0,8.33911,1.223s-10.731,6.195-21.96289,14.271c-11.23291,8.074-17.24805,13.984-19.09205,14.095s-2.19995-1.059-11.592-1.357c-9.391-.301-24.921,1.248-25.20495-.706-.82105-5.615-6.918-14.551-14.97095-13.08a163.08584,163.08584,0,0,1-17.98206,2.437c-3.688.221-3.926.358.55005.953s8.824,3.17,14.015,3.353c5.191.182,7.374-.443,9.74,2.005a42.13351,42.13351,0,0,0,5.964,4.822s-.71594.412-7.236.681-13.97706.864-14.266,2.196c-.28894,1.334,1.82105.752,5.031.806,3.21106.055,11.31494-1.234,15.892-1.017,4.576.219,11.77.199,17.438.105,5.667-.094,14.37,1.767,15.297,2.821.928,1.054.48706,1.944-4.52,4.835-5.00805,2.891-7.74694,8.604-18.08105,19.338-9.204,9.563-28.421,27.975-37.10095,35.936-6.742,6.186-24.691,19.103-37.079,28.479m142.719-193.46209c7.62891.597,15.344,1.287,18.92407,1.94a152.50583,152.50583,0,0,1,18.15308,4.462c6.15308,1.85,13.40894,5.606,17.885,6.202,4.478.595,14.979,5.021,18.4751,7.771a35.4157,35.4157,0,0,1,6.593,7.744s-4.875,2.389-19.116,9.657c-14.241,7.27-24.47412,14.13-35.8169,20.362-11.343,6.23-17.05908,11.013-17.90991,11.188-.854.175-15.43408-4.334-21.65088-5.193-6.218-.86-17.15088-2.177-26.51709-4.082-9.363-1.904-11.387-2.78-19.85705-4.111-4.319-.679-8.613-1.456-12.307-2.127m56.84351-55.027c2.31494.18,5.508.407,9.063.667m-15.998-4.062c-2.543-.232-4.69092-.487-6.25611-.781-1.62109-.303-4.14306-.547-6.5039-.803m33.085,162.117c4.27905-4.799,8.14892-10.458,10.23291-13.035,4.822-5.962,18.541-22.573,25.1189-28.064,6.57788-5.493,21.52-15.498,28.19091-20.832,6.667-5.336,10-7.261,15.51-12.77,5.50611-5.512,12.854-26.918,13.854-37.669.998-10.749-2.27906-12.034.062-12.75,5.749-1.759,20.114-5.892,24.823-6.914a72.39244,72.39244,0,0,0,8.88794-2.589s.32006-.185-1.68994,3.308c-2.01294,3.491-6.657,8.291-8.521,14.241-1.86206,5.951-1.854,12.94-2.967,19.09-1.10889,6.151-3.749,11.49-1.81592,10.799,1.93188-.692,6.273-2.35,7.87305-5.816,1.602-3.467,1.301-4.354,5.26806-8.127,3.967-3.775,6.75391-12.164,4.83008-19.531-1.92212-7.367-2.041-13.445-.426-13.953,1.29907-.407,16.54907-5.161,23.822-7.322M1932.444,418.372c14.736-7.698,29.486-15.978,36.793-20.904m-77.49988,40.081c3.521-1.065,13.703-5.945,15.165-6.514,6.473-2.975,14.44995-6.92,22.616-11.144M1798.562,424.016s15.29395,9.634,22.062,11.446c6.77,1.813,26.021,8.181,35,7.766,6.563-.304,12.095-.387,25.834-4.16M2505.148,184.125s.37207,2.242-4.6709,4.518c-5.04492,2.277-6.832-.084-13.854,7.574-5.83008,6.358-6.396,12.407-11.072,20.274a20.57983,20.57983,0,0,1,8.48706-3.098c5.34912-.707,5.594-1.323,7.936-2.04,9.12109-2.79,13.533-7.392,15.83692-11.476,2.3059-4.084,3.387-6.615,1.636-11.115l-1.751-4.501M1813.762,427.981c-.118-.817-4.18506-3.942-8.837-13.654-4.652-9.71-12.11-12.716-17.56006-17.199-5.449-4.482-4.349-2.576-3.2,2.166,1.148,4.741,2.328,17.037,8.051,21.1,6.91394,4.91,14.947,6.526,17.85706,8.447C1812.641,430.536,1813.973,429.449,1813.762,427.981Zm-24.91894-11.57a10.33023,10.33023,0,0,0-6.288-.822c-3.663.631-6.23,1.689-9.165,2.112-2.934.423.688,2.387,5.146,5.52,8.734,6.138,22.745,6.706,29.892,6.604m-4.267-.032s-1.288-.628-11.568,5.751c-10.53406,6.533-9.55005,10.469-9.238,10.676.677.451,6.849.236,13.604-.908,6.757-1.145,19.213-8.842,18.54-11.843m-22.178,12.384s-.783.93-4.693,4.482c-6.395,5.81-4.03,13.174-3.453,12.738,3.248-2.449,5.473-1.348,9.317-3.682,5.161-3.135,3.83-4.376,6.917-6.371,3.088-1.996,8.148-5.508,10.222-5.222m12.16687-11.401s-2.089.027-5.371,4.254c-3.281,4.226-10.036,8.127-11.39294,16.605,9.022-1.992,5.155-4.062,17.068-9.711,3.079-1.46,5.967-4.716,5.195-9.355m-25.76-26.44s-2.028-3.29-1.468-10.394c.561-7.105,1.973-11.314,1.99194-12.385.018-1.068,2.965,5.951,6.39,8.212,3.42505,2.262,7.86694,8.776,7.656,17.588-.212,8.809.273,10.015.78,11.629.50806,1.613-1.717,2.897-1.717,2.897m13.83814,4.515a24.71645,24.71645,0,0,0-2.53894-8.07c-2.135-4.064.31494-18.724,2.394-20.629,2.967,1.466,3.32495,4.091,5.432,7.213,2.118,3.133,1.73706,13.83-3.531,21.957m50.00684,14.722c-.26294.081-4.223,5.551-7.047,9.127s-7.678,10.191-7.111,15.688c.56494,5.494-4.493,16.982-13.592,19.251-1.764-5.025-2.939-15.233.913-21.055,3.851-5.821,19.613-18.444,22.059-23.534,2.444-5.092,3.125-13.67,8.851-14.116,5.727-.446,8.139,8.8.465,14.085,0,0,1.235,8.555,1.915,9.496.67895.941,10.02905,2.246,13.423,13.397,1.804,9.147-.271,9.07-3.312,15.843-2.21,4.923-5.225,7.885-8.345,8.668.196-2.753,2.073-3.822,2.082-9.018.009-5.194-2.43-8.072-4.532-13.87-2.788-7.683-.566-8.572-1.204-11.833C1886.697,457.87,1882.771,449.005,1882.771,449.005Zm.174-15.116a52.07531,52.07531,0,0,0-2.082-5.369c-1.499-3.323-2.526-5.618-4.759-7.03-1.103-.7-3.576,2.052-8.36694.276-4.78894-1.778-11.36694-3.55-19.713-15.944-8.34705-12.396-9.09705-15.022-6.535-13.676,2.564,1.344.218,1.164,7.246,3.68,7.027,2.517,28.917,10.163,30.908,20.023,1.64295,8.129,6.418,11.646,6.418,11.646m2.94519,4.107c-.687-.144-3.243-1.512-2.938-6.077.306-4.563,1.352-6.812,2.639-13.804a57.22032,57.22032,0,0,0,.601-13.995s3.526.582,6.28894,4.754c2.762,4.174,7.327,6.754,7.78,11.977C1903.828,419.68,1900.217,433.942,1889.006,431.602Zm67.45007-38.081s3.83-.7,4.26905,2.347.133,2.568-4.177,3.137c-4.308.571-11.577.099-13.755-1.204-2.17895-1.305-2.134-.739-6.833,1.268-4.698,2.006-10.79,4.624-15.316,4.106-4.527-.518-12.805-6.604-12.805-6.604a53.16125,53.16125,0,0,1,5.527-2.138c3.524-1.178,7.704.037,13.972-1.188,6.266-1.227,6.397-1.27,11.92505-.361a37.07752,37.07752,0,0,0,9.837.338s-5.968-5.693-7.44605-5.344c-1.48.348-8.26794,3.49-17.23706.102-8.97-3.387-13.807-9.171-15.374-10.387-1.569-1.22-1.35-1.87,2.609-2.18,3.96106-.308,3.264-.221,9.708,1.689,6.444,1.908,8.925,2.82,13.149,4.166,4.224,1.345,8.271,1.731,11.06006,4.863,2.788,3.133,3.65906,4.001,6.05506,4.653C1954.017,391.435,1955.97705,391.651,1956.45605,393.521Zm-25.952,24.121c-2.45606,1.438.694,6.434-1.249,11.053-1.942,4.619-9.40405,11.444-5.043,17.692,4.533,6.492,4.697,16.411,4.697,16.411.921-.055,3.822-1.899,5.877-6.89,2.312-5.627,1.28-8.259,1.082-14.661-.2-6.4-2.297-9.482-1.87195-13.701C1934.422,423.327,1932.958,416.202,1930.504,417.642Zm45.585-28.389s-3.811-.821-5.327,3.711c-1.517,4.531-2.86206,8.805-2.957,14.423-.095,5.617,2.24,8.561,3.155,14.55a74.2603,74.2603,0,0,1,.91394,10.119s.873.134,2.656-2.01c1.783-2.142,7.098-12.203,6.27905-19.679s-2.631-11.991-2.287-15.525C1978.864,391.306,1977.764,389.398,1976.089,389.253Zm12.877-14.587c-.35705.206-4.246,1.179-8.116,2.46-3.869,1.281-14.708,5.632-22.042-.465-7.334-6.096-9.615-8.117-10.146-8.765-.532-.646.43994-.889,3.719-.716s8.037-.667,11.756-1.384c3.719-.718,11.562.478,14.67.906,3.109.43,11.595,4.114,12.38794,6.04m17.468-15.535c-.35705.206-2.882,1.71-7.72094.212-4.838-1.497-9.91-1.748-15.35706-2.099s-15.625-4.488-24.541-13.326c-8.918-8.838-7.896-9.27-11.807-9.713s-14.521-5.604-14.507-6.406c.01294-.803.439-.891,5.512-.639,5.071.25,9.079-.792,13.937,1.014,4.855,1.805,11.457,8.007,16.49694,8.753a26.62917,26.62917,0,0,1,13.905,5.641c5.293,3.936,7.936,10.992,12.683,10.954,4.745-.039,13.522.298,14.21594,2.599m-36.7229-2.214c-1.97095,2.092-5.752,6.553-12.342,6.702s-10.398,3.46-16.844-2.196c-6.444-5.656-9.32495-8.443-10.014-9.635-.688-1.192,3.136-1.175,4.96106-1.593a86.93782,86.93782,0,0,1,9.25-1.049c5.273-.502,12.24305.56,14.403,2.649a7.87946,7.87946,0,0,0,5.542,2.148m44.71607,7.71c.313.119.686.658.953,2.219.631,3.661,3.48706,6.037,1.375,11.922-2.116,5.883-2.947,8.48-1.58106,13.413,1.366,4.935,3.751,9.067,3.26905,13.372-.48,4.305,3.851,10.705,4.87695,11.385.269-1.005-.49194-2.069,1.14294-4.263,3.141-4.215,7.938-11.577,7.828-16.175-.114-4.599-6.108-16.818-8.843-22.657s-8.397-9.771-8.397-9.771m2.59118-7.671a7.89552,7.89552,0,0,0-4.636-6.577c-4.088-2.024-8.509-3.679-10.233-3.709m12.035,13.114s1.538-3.007-1.69605-3.471c-3.233-.463-5.863,1.585-14.595-3.44-8.73-5.026-18.254-19.87-18.759-20.744-.505-.875.24695-.674,2.187.115,1.939.788,5.072,1.627,8.011,4.698,2.938,3.072,2.08606,3.246,5.567,3.037,3.483-.208,13.811.044,17.328,5.22,3.516,5.175,5.986,5.995,6.171,8.239a5.782,5.782,0,0,1-1.38,3.518m15.085-9.427s-3.297,3.282-3.105,10.589c.193,7.306,2.127,12.122,5.07495,17.413,2.948,5.292,5.51905,12.496,5.79505,15.728s.87,3.525,1.572,2.906c.702-.617.31494-.922,2.52-6.646,2.207-5.722,6.43689-11.979,3.032-22.094-3.402-10.115-12.943-19.574-12.943-19.574m.69189-32.864s-4.34-.709-7.65905,5.655c-3.316,6.367-1.511,5.642-6.443,9.762-4.934,4.117-8.005,4.304-4.934,4.117,3.072-.184,2.972.192,7.988-.479,5.01794-.671,10.639-3.599,12.42395-8.763,1.787-5.164-1.213-6.131.896-7.984a10.71725,10.71725,0,0,1,4.568-2.373m16.713-2.183c.604-.481-.978-4.147-5.97607-7.301-5.001-3.153-17.044-8.597-19.328-7.597.359,3.925,3.976,10.737,8.488,11.947s10.13391-1.718,12.85,2.435m13.72314,6.699s-6.86011.784-5.33789,5.625c1.52393,4.842,3.06812,14.122,2.32593,16.142-.74194,2.016-8.637,8.164-8.791,11.75,3.4751-1.688,6.208-1.359,10.39795-3.461s14.406-8.635,10.50489-18.145C2073.876,310.861,2072.71191,309.944,2068.677,308.459Zm-54.471-5.89s-3.359-6.177-12.052-3.065c-8.694,3.111-18.522,11.966-18.587,12.957,2.082-.249,2.688-2.505,8.18994-1.231,5.50305,1.271,16.182,3.017,22.901-6.267m-5.74292-6.168s-13.309-4.409-24.379,1.027c-2.521,1.138-6.26294,4.568-4.42,4.458,1.844-.11,6.328,3.718,7.934,3.744m62.62317-44.245s-20.473,7.771-10.89295,22.161c5.754-1.414,13.007-7.934,12.79895-14.171-.21-6.235,2.419-6.271,3.37305-6.822m-1.89819-4.387s-.10889-4.414-6.5-8.14c-6.391-3.729-4.957-8.583-7.129-16.018a46.50031,46.50031,0,0,0-5.129-11.45c-.115-.569,3.136-1.176,9.051,2.827,5.916,4.003,9.78711,9.608,11.8501,17.955,2.064,8.344-.69311,13.617,1.729,15.611m57.198,7.425s-3.605-.074-4.10693-2.872c-1.249-6.946-2.603-9.465-14.165-14.074-11.562-4.608-14.491-3.076-14.26709-2.411s5.7229,12.114,11.781,15.449c3.239,1.783,10.2539,2.346,9.311,5.115M2012.778,254.589a18.38474,18.38474,0,0,0-15.74194,3.843c-7.705,6.198-9.327,9.995-9.121,10.353.207.358,8.818,2.061,13.84,2.5s10.064-1.838,14.42-5.307c4.355-3.468,7.266-9.438,10.105-8.376m3.85193-1.588s-2.506-2.687-1.759-7.727c.745-5.04-2.423-18.787-13.347-22.016-10.925-3.229-22.69495-1.043-22.47095-.377.225.665-.396-.409,4.184,3.941,4.577,4.351,9.673,6.019,14.92395,8.23,5.252,2.214,8.32,5.051,10.072,7.536,1.75306,2.485,3.537,4.475,1.942,6.667s-.731,4.237,1.249,4.365C2026.907,256.764,2029.353,257.417,2030.132,256.014Zm-33.09595,2.418c-.494-.032-8.922,1.337-15.41394-7.152-6.49-8.491-10.887-13.9-12.821-15.326-.161-1.655,1.857-.913,5.017-.671,3.15906.241,6.246,3.387,12.492,2.642,6.244-.745,18.952.343,23.168,3.789,4.215,3.447,10.744,11.177,13.715,11.368m77.187-52.408c-1.03711-.156-3.875.172-7.79907,4.662-3.92407,4.491-4.83594,6.766-5.23706,12.401-.4021,5.636-.241,7.29-1.05688,8.08,2.18188-.624,5.498.164,10.395-4.57,4.896-4.734,6.992-12.938,6.199-14.864-.678-1.643,1.0481-2.462.49292-4.099C2102.926,200.953,2101.251,200.807,2100.37988,200.674Zm-19.41382-8.023c-.34594,1.841-1.573,10.764,1.311,10.528,2.884-.234,4.885.2,5.79-7.316s4.53906-11.681,1.126-19.245c-2.283-5.058-6.519-6.887-10.64112-8.799-4.124-1.91-10.74194-4.287-11.67993-7.562-1.218,2.294-2.488,6.262-.7229,13.61,1.80908,7.538,4.01611,12.463,9.6189,13.36C2079.95,187.897,2082.468,184.628,2080.96606,192.651Zm-5.26806,7.254s-12.16211,4.399-16.8479,10.6c-4.68408,6.202-2.60889,11.998-1.489,18.345a59.52618,59.52618,0,0,0,2.2959,9.482s.11109,1.842,3.71509-1.827c3.603-3.67,8.81812-13.355,7.87109-18.85-.946-5.493,3.896-7.018,5.729-9.348,1.834-2.329-.469-5.769,1.741-7.997m-11.07714-4.225c1.28906-1.032,2.21289-2.835.312-5.612-3.32495-4.855-3.283-.757-10.06494-13.58-5.218-9.861-11.522-7.018-14.16394-9.941-1.93995-2.147-2.291-6.398-2.727-6.373-.307.018-2.058,1.665-2.313,5.628-.31006,4.806,3.573,16.374,7,19.005,3.42492,2.632,5.48889,2.075,9.29211,4.808,2.07593,1.492,3.83008,3.74,5.64111,5.334m-.00219-.001c1.50293,1.323,3.04394,2.193,4.84009,1.808a5.74368,5.74368,0,0,0,2.186-1.075m-6.90918-.57c-11.77905-.959-25.788-1.573-30.056-2.436-1.594-.322-2.81494-.841-4.009-1.023,0,0-2.405-5.129-7.26294-5.423-5.854-.354-8.62195,3.785-18.646,8.858a63.71322,63.71322,0,0,1-12.515,4.204c-.06494.02,1.723,1.471,9.755,1.204,8.137-.271,12.634,4.159,19.864,1.644,7.27795-2.534,8.618-7.231,8.618-7.231a84.38775,84.38775,0,0,0,10.42395.847c6.04394.007,15.67395.17,20.15.765,3.6521.486,15.613,2.525,23.5271,3.579m-63.8822-13.738a2.4566,2.4566,0,0,0-2.874-1.122c-2.178.649-20.517,2.864-26.01905-5.561-3.619-5.544-2.072-9.374-2.072-9.374s1.262,3.563,6.46,3.344c5.197-.22,16.291-2.89,22.646,5.362,2.25,3.071,3.348,5.936,5.58,7.189m12.09424,6.766a12.26431,12.26431,0,0,0-4.29-4.676c-2.792-1.806-14.293-10.026-17.756-23.047-3.465-13.02-1.85595-12.068-1.85595-12.068s.49194,4.751,9.516,8.681,16.413,13.013,16.27905,19.526c-.13306,6.515,1.474,10.673,2.213,11.677m142.53992,45.65c-1.94409,3.24-2.436,4.321-3.52808,9.401-1.094,5.081-.812,10.779-3.42993,13.884,3.563-1.046,6.10889-3.298,9.18994-6.772,3.08106-3.473,2.39307-6.204,5.25391-7.855m-12.86279-12.375s-3.11011-.242-7.83692-3.657c-4.728-3.417-8.376-1.972-8.719-2.196-.343-.226,4.239-4.098,7.853-5.548,3.613-1.449,11.39306-1.925,15.34912,2.359m-126.8584,187.981c-4.79907.198-4.89209-.908-7.57105-2.002-2.68-1.092.195-1.729,2.647-4.386,2.448-2.655,4.42407-10.691,25.071-10.047m-7.51685,18.751s-.645,1.416-.54711,5.608c.0979,4.193,2.14111,5.754,3.49292,7.187,1.354,1.432.511.947,1.689-1.993,1.17993-2.937,4.2229-3.496,5.915-9.194s2.64307-15.031-.87988-18.818m4.95092-8.561a4.38988,4.38988,0,0,1,2.075,5.796c-1.67408,3.985-3.21,4.078-1.46,9.585,1.749,5.507,3.34009,6.337,3.002,10.981-.33789,4.646,2.09106,13.256,4.383,14.476,1.05591-.927,1.09595-3.334,3.772-8.059,2.677-4.724,8.64209-13.896,1.835-24.9-4.77905-7.729-7.7-7.101-11.80908-11.83m-3.3418-1.762a10.35342,10.35342,0,0,0-7.437.619c-3.11792,1.483-16.58692.04-19.72-3.873a13.18833,13.18833,0,0,1,6.05395-3.416c2.38111-.42,1.294,1.002,8.11011.007,6.81494-.995,6.90991-.969,9.08105-.237,2.17212.733,3.58594,3.284,5.06495,3.782m18.61889-22.778c-1.062.98-1.333,3.472-1.12012,5.493.29712,2.797,3.855,10.535,4.54908,13.11.834,3.095.51489,2.404-.895,6.159-1.40894,3.753-.96192,4.528-.99707,8.045-.03491,3.518-.74707,8.616-.02,8.913.72607.295-1.2771.815,1.99511-2.187,3.273-3.003,9.417-15.212,10.78907-19.58s-2.0979-16.986-6.948-19.193C2101.5481,357.825,2100.65088,357.786,2099.04492,359.271ZM1978.345,390.955c8.186-6.261,10.243-9.236,10.243-9.236a22.70915,22.70915,0,0,0-2.657,9.163c-.521,5.704,1.957,9.995,2.014,15.05.057,5.052-3.316,14.628-2.994,17.938.323,3.312,1.844-.111,4.15405-2.716s6.527-6.312,7.755-14.648c1.226-8.338,5.095-13.75.764-20.149-4.33106-6.4-6.62-7.622-4.311-10.227,2.31006-2.605,9.416-6.816,18.796-16.999,9.379-10.183,26.37-24.91,32.481-31.469,6.40991-6.88,9.748-11.56,18.093-16.378,8.344-4.817,15.52-11.291,23.551-17.2,8.033-5.908,26.82593-17.395,26.82593-17.395a15.77891,15.77891,0,0,1,.4209,9.718c-1.39893,4.979.06006,13.316-.06909,15.297-.12793,1.981,1.678,1.256-3.94092,4.183-5.62207,2.929-11.021,9.543-11.791,13.165-.77,3.623.3501,1.706,4.47705.596,4.126-1.111,12.61109,2.572,17.322-5.233,4.71094-7.807,5.844-21.811,3.12891-25.965-2.717-4.153-6.606-11.051-7.25-13.297-.207-.728,16.5979-9.794,27.88306-16.31,11.283-6.514,41.248-23.511,42.94311-22.887,2.69092.99-.0039,23.705-4.104,34.368-3.979,10.351-9.74805,14.116-22.24805,23.863-12.563,9.8-30.10889,21.995-38.3501,31.681-10.219,12.008-17.73706,22.319-18.42212,22.875.062-1.495-3.34008-4.23-6.63305-5.431-5.57007-2.029-8.51612-3.919-14.85694-.683-6.342,3.238-10.481,11.483-10.6809,13.982,1.57006.153,2.28491.747,5.09106.928a17.11213,17.11213,0,0,0,12.5769-5.195c4.07789-4.314,10.031.49,12.34791-.451h0c-5.55591,7.241-13.919,17.564-17.521,23.518-3.249,5.371-6.78711,19.813-10.43506,23.402-3.64893,3.59-5.677-1.387-13.73706,8.143-8.062,9.528-9.2041,13.791-10.91406,18.169-1.71106,4.378.26391,3.027,2.874,1.308,2.60889-1.72,9.886-3.798,13.96191-8.484a62.49151,62.49151,0,0,0,9.2649-15.521c.83105-2.598,5.988-9.815,8.103-15.697,2.113-5.883,3.896-9.5,5.83692-12.004,2.34106-3.022,6.13794-7.492,9.563-12.277m21.17456-27.17706c-3.884,7.417-3.70606,18.545,4.05591,22.542,2.199-3.817,4.10009-5.335,3.83593-10.646-.218-4.364-3.823-3.187-1.936-12.483.43408-2.124-1.17407-4.427-2.117-3.883m-10.43774,6.005a36.269,36.269,0,0,1-5.595,1.674,22.08529,22.08529,0,0,1-14.887-2.879c-5.12305-3.228-6.89307-3.503-6.459-4.208.43189-.706,1.03809.151,4.25708-2.071,3.22412-2.222,7.772-1.607,11.687-1.144,3.91309.466,3.9629-.797,6.29712-.657,2.05494.124,7.168,3.863,5.678,8.065m51.98169-47.283c1.6731.183,2.62695-.035,2.98291-1.62.35791-1.581-2.68091-4.276-5.0459-5.985-2.36108-1.71-2.43408-4.952-9.188-5.821-6.75391-.868-11.752,3.502-15.15406,3.664-3.40405.163-5.45.287-5.551.662-.102.377,1.74194,5.774,7.97509,6.839,6.229,1.066,12.023-1.01,15.66089-.035C2160.751,286.98,2163.74,288.118,2165.437,288.305Zm8.53906.473s.533.008.57691,2.103c.042,2.094-3.293,6.777-.84009,13.411,2.4541,6.638,5.59107,8.216,6.023,10.616.43188,2.401-3.02588,7.787,1.76489,10.214.102-2.391-.93408-2.535,2.17993-6.134s7.969-10.426,4.43409-19.3c-3.53492-8.875-11.1211-10.638-12.11011-12.718m45.05737-67.126c-.948-.724.15991-2.846-2.90405-3.196-3.062-.351-2.4751-3.311-9.77905-.604-7.68189,2.844-16.27,1.554-19.54908-3.761-2.1289-3.449-1.6831-7.505-1.387-7.356.2959.146,2.60693,5.065,5.61694,3.856,3.012-1.21,7.0459-5.233,15.5691-2.948,8.522,2.282,12.696,6.76,14.77392,13.293m34.26929-5.436c-.41309.007-2.47608,1.854-6.41089,4.127-.08008.046-1.52,1.406-5.115,6.557-3.5979,5.149-2.72412,7.4-4.35791,10.991-1.63208,3.593-3.13892,5.205-.88989,4.328,2.248-.873,4.678-.156,10.18188-3.652,5.50611-3.497,5.92993-7.346,6.71509-10.764.78-3.417,2.314-6.635,2.60107-8.708C2260.68091,214.499,2258.61792,213.677,2257.67212,213.692Zm-48.519-27.871c2.428,1.825,4.75488,3.461,6.4851,4.625,3.98609,2.68,23.895,15.873,28.49292,18.518,4.5979,2.643,4.80689,2.867,4.80689,2.867-7.01294,1.975-9.718,2.86-11.85694,3.639-8.9309,3.249-24.65795,6.291-34.24194,8.963-9.582,2.673-11.55908,4.023-13.85107,2.805-2.294-1.219-5.157-7.83-12.27491-11.349-7.11792-3.521-41.16406-11.837-50.18994-14.255-6.36206-1.705-24.92212-2.369-38.812-3.27m286.01074-8.487a14.922,14.922,0,0,1,4.2649-.872c7.0559-.26,26.10107-2.143,36.24707-2.916,10.15088-.773,35.73193-1.979,48.13989-2.147,11.17895-.152,25.06006-.271,34.09692-.404a174.88629,174.88629,0,0,1,20.03589,1.07c1.28589.163,1.29907,5.05-1.71509,8.272-3.011,3.224-4.53,4.632-5.86694,11.126-1.33691,6.492,2.613,12.662,3.19409,16.909.657,4.812,2.21289,1.266,3.251-.605,1.04-1.872,8.884-14.348,6.69189-20.711-2.19091-6.364-3.48-14.839-2.343-15.071,1.137-.234,13.759.294,23.79.463,11.771.196,25.863.749,32.719,1.242,5.9751.43,21.814,1.814,29.42212,2.51,22.30688,2.036,35.83789,6.647,37.16406,2.702.68091-2.028,1.11108-6.15-5.77-7.053-9.834-1.291-90.87891-5.765-102.988-6.234-3.3811-.133-14.06005-.456-18.863-.61m-255.3147,37.078c10.574-2.688,29.197-7.356,36.936-9.483,8.41211-2.313,39.5691-9.283,47.87012-10.686,8.304-1.402,17.989-4.452,18.28906-3.565.29908.887-1.3999,2.715-5.68505,6.672-3.62891,3.354-5.002,4.524-15.32593,8.562-13.02808,5.096-30.227,24.311-31.408,25.204-1.179.895-2.396,1.221-4.792-.414-2.8169-1.92-6.28-4.168-14.87012-5.158-8.074-.931-14.48389,7.908-17.17993,10.947-2.69507,3.041-1.356,2.054,1.8789,2.519,3.23291.465,9.64991,2.589,14.70093-.965,3.71289-2.611,5.92993-6.602,10.00806-5.776,4.07788.822,7.88891,2.437,7.438,3.122-.45288.687-.24-.038-4.523,7.759-4.166,7.585-8.79907,13.917-11.811,19.579-2.438,4.586-6.738,10.564-9.02905,12.101-2.293,1.535-5.73389,4.203-7.46509,7.7-3.936,7.946-3.178,9.993-3.74609,15.62-.56494,5.623-1.12207,8.699,1.09595,5.935,2.219-2.764.47192-1.755,6.73706-5.584s8.93994-7.178,9.697-12.725c.97094-7.103-4.85108-8.402-1.43091-12.604a68.20938,68.20938,0,0,0,7.896-10.915c3.887-6.482,8.689-12.896,14.15307-21.735,11.613-18.786,29.385-29.407,37.4729-32.085,6.552-2.17,15.158-8.156,19.908-13.126M2209.948,183.984c-.25806-.899-1.3999-1.045-3.10791-1.437-1.7-.389-5.38306.569-8.22193.35-2.8291-.221-2.97094-2.207-10.03393-.034-7.063,2.171-10.31006,2.509-10.728,2.432-.16308.358.59692.661,1.11109,1.371.51611.71,5.373,5.269,11.123,5.87,5.752.599,11.53906-2.955,14.605-4.248C2207.76489,186.993,2210.364,185.438,2209.948,183.984Zm-23.137-12.547a3.32356,3.32356,0,0,1-1.95411,1.022c-1.342.245-2.061-.083-4.6289-.401-2.5669-.318-7.8291.706-12.62891,3.955-4.801,3.248-12.562,8.089-14.217,9.404,2.5271,1.19,6.60791-.007,11.063-.274,4.456-.268,15.437-1.203,18.731-5.41,3.293-4.206,2.635-6.448,7.34594-6.546m-5.87109-2.77s-1.26489,1.008-4.22412-2.05c-2.958-3.062-6.71607-9.157-18.093-8.628-11.37695.528-19.75293,1.071-21.19092.633-.46509.982,1.52393,3.569,4.47095,5.92,2.948,2.353,14.113,10.527,24.969,7.995m21.27515-4.017c.4751-7.986.48-7.972.801-11.825.34106-4.092-2.5979-13.998-8.824-20.654s-3.949-6.701-4.334-6.956c-.385-.254-3.4961,2.893-.761,9.419,2.73608,6.527-.74512,14.815,3.01489,21.466m112.63623-2.436a3.32738,3.32738,0,0,0-1.446-4.888c-3.397-1.851-5.67993,2.644-16.179-3.796-10.499-6.442-10.813-15.797-8.54-16.263,1.0691.019-2.41992,3.516,4.64307,4.737,7.062,1.221,8.896-1.109,16.17993,3.799,7.283,4.906,8.66895,14.278,7.33594,16.744m-3.39209,2.53c-.58105-.09-.56812-.138-2.812.31a23.37653,23.37653,0,0,0-13.13111,8.641c-4.47192,5.652-8.5769,9.188-9.467,8.748-.447,1.427,3.085,2.035,5.813,1.626,2.729-.413,14.08692-8.452,17.03906-12.699,2.95093-4.247,5.7771-3.762,6.104-4.477.3269-.721.08911-1.034-.54907-1.407m-43.35865-4.483c5.1399-.174,10.15406-.302,12.502-.243a108.31782,108.31782,0,0,1,20.36108,2.231c7.62207,1.639,19.4519,4.874,25.1919,6.01,5.74194,1.136,15.699,3.333,23.83593,5.312,8.135,1.978,14.03809,3.762,20.94312,5.814,6.908,2.052,10.94409,5.55,7.156,6.146-3.78808.599-21.343,5.434-37.07006,8.475-10.814,2.091-46.634,11.261-69.44312,17.551,0,0-8.69312-4.225-15.76392-7.664-7.073-3.44-15.123-9.495-18.67309-11.789s-17.13208-12.785-17.13208-12.785c-4.396-3.396-13.77-7.519-16.70288-9.111-2.93408-1.591-5.175-4.006-7.625-9.901-2.44995-5.898-9.70508-17.179-13.645-19.778-3.937-2.602-7.15894-2.86-13.273-3.355-.73291,11.759,7.87109,16.752,14.27905,19.411,6.40894,2.657,8.21509,4.686,10.6001,8.077,2.3811,3.395,3.094,4.997,4.66089,6.424,1.564,1.428,4.40307,2.12,9.28491,4.705,4.884,2.583,5.07593,3.208,8.47,5.493,1.168.786,2.5271,1.799,4.1919,3.038m306.4392-5.04c-17.573-.53-34.85888-.791-59.688-.155-32.98609.845-61.102,3.914-69.63794,4.181-7.429.23-9.01,2.022-12.58106-2.698-3.571-4.719-22.624-9.825-32.23706-11.058-9.61108-1.23-25.5581-3.89-34.583-6.31-9.02392-2.416-22.8811-5.86-35.854-5.574-3.311.072-5.74292.303-8.398.504a5.80454,5.80454,0,0,0-.229-2.411c-1.332-3.046-3.469-7.111-3.87793-9.841-.41089-2.729-1.42505-5.218-9.14893-4.467-3.0249.265.62891-4.601-4.7771-9.744-5.407-5.144-7.72095-3.278-8.324-3.035-.60108.24,2.19311,1.595,1.9021,7.697-.293,6.103-.44507,12.442,4.562,15.061s11.167-2.315,13.229.521c1.512,2.081,2.78589,5.007,3.749,6.312-6.2129.562-18.67408,1.243-18.67408,1.243-4.06494-.619-14.133-4.659-17.272-4.226-3.13989.436-8.78394.939-11.66894,2.18-2.886,1.243-5.12891.844-5.436,1.231-.304.389,6.91992,7.766,17.42895,8.164a26.96474,26.96474,0,0,0,17.52491-5.985s6.353-.287,13.14209-.529m1.92285,5.79c.21411,2.208,2.82007,4.334.19189,14.008-2.665,9.819-11.59106,8.918-12.582,8.854-.99-.063,4.49512-3.201,4.84595-5.233.74512-4.324-3.29395-7.083-1.93408-13.533.898-4.258,2.4331-5.193,4.885-6.822,2.449-1.627,2.344-3.893,3.949-3.653C2253.25488,158.14,2252.07788,162.073,2252.293,164.278Zm-19.06006-2.596a25.07866,25.07866,0,0,1-7.62988,4.406c-7.89209,2.712-8.05005,14.913-6.6731,14.911.52905-.002,4.582-3.758,8.41211-5.016,3.82788-1.258,8.83594-4.283,9.262-8.87.4231-4.591,2.742-7.731,2.32007-7.912m-6.532-2.69a7.31643,7.31643,0,0,0-2.53906-2.562,29.00051,29.00051,0,0,1-6.79712-4.978c-2.87891-2.788-5.1189-2.447-8.823-3.171-3.7-.724-5.59912-2.911-4.82593-3.039s3.05-2.61,6.032-2.953c2.979-.343,5.77906-1.337,8.10694-1.186,3.63306.235,10.56592,5.45,10.56592,5.45m2.23022,3.959a7.61977,7.61977,0,0,1,.437,2.133c.178,1.593-.773,7.65.364,7.418M2370.709,187.961c-2-.434-4.439,1.394-3.82495,5.122.615,3.725-3.24292,6.588-3.686,10.5-.44409,3.912-5.37891,4.27-8.7749,19.212-.59205,2.594,3.06689-.924,7.28-1.608,4.21412-.686,15.68189-6.245,14.23707-20.034C2374.49512,187.364,2372.708,188.396,2370.709,187.961Zm56.197-2.653c-4.98291.547-6.71607,2.355-10.742,6.875-7.9729,8.947-8.594,15.765-13.248,23.118-4.657,7.35-7.32105,9.527-8.135,11.053-.812,1.531.604.499,3.855-.107,3.25488-.606,12.665,1.379,19.937-11.72,7.272-13.101.989-23.249,5.989-24.864C2429.56494,188.046,2427.971,185.19,2426.906,185.308Zm86.198-6.213c2.291.199,3.19507-2.905.70093-6.127a45.893,45.893,0,0,1-8.07593-13.987c-3.01709-7.795-12.2771-16.858-20.4021-16.618.03809,3.369,3.406,3.333,3.4939,7.521.08594,4.188.78491,13.107,6.802,14.72,6.019,1.612,12.10889,4.453,13.41895,7.088C2510.35205,174.326,2510.87305,178.9,2513.104,179.095Zm-72.374-29.976c16.231,4.764,29.01709,22.471,33.64209,27.845m3.158-.001c-.95508-.981-3.2041-3.62-6.03491-7.239-4.55493-5.818-18.25611-19.252-26.905-22.072-8.65088-2.823-20.87207-3.275-25.85791-8.707-4.98194-5.432-16.24-8.714-18.82691-9.583-2.583-.871-3.47607-1.08-4.521-4.833-1.042-3.749-11.50293-12.99-18.113-13.9-6.61011-.912-6.56592-1.73-6.61011-.912a12.2609,12.2609,0,0,0,6.93994,8.981c5.46509,2.414,8.533.268,12.0979,2.913,3.563,2.646,5.541,5.787,4.144,5.8a89.31155,89.31155,0,0,1-16.81494-2.249c-6.979-1.751-7.44312-2.349-13.51392.711-6.072,3.063-12.52905,12.102-12.30908,12.606s1.01709.958,6.199.891,13.062-3.116,16.50611-6.229,6.344-5.186,10.51806-4.812c4.17212.376,3.67993,1.996,2.7229,3.016-.95508,1.021-3.04492,1.736-7.09008,5.312-4.04493,3.574-8.21509,6.404-8.12793,11.175s1.821,7.817,2.23193,7.838c.40991.021.376-4.174,2.26611-5.803,1.89209-1.63,13.15991-14.783,13.13892-17.577-.023-2.798.313-2.942,2.82495-2.239,2.51294.702,10.23511,2.326,12.56006,3.512,2.323,1.186,13.572,9.481,16.283,11.097,1.999,1.19,6.86206,1.941,13.022,3.258m-14.73608,17.528c-1.7229.97.727.284,6.33911-.172,5.60888-.454,12.2959.624,15.2959-6.703,3.053-7.453-1.0459-10.573-3.4629-11.105-3.5791-.787-5.48388,1.801-7.95288,6.09C2427.27588,157.842,2427.562,160.924,2419.52393,165.446Zm-321.623,197.002a61.086,61.086,0,0,0,4.436,6.258"/>
</svg>
