<?xml version="1.0" encoding="UTF-8" standalone="yes"?>
<!DOCTYPE svg PUBLIC "-//W3C//DTD SVG 1.1//EN" "http://www.w3.org/Graphics/SVG/1.1/DTD/svg11.dtd">

<svg width="620" height="620" viewBox="0 0 620 620" xmlns="http://www.w3.org/2000/svg" xmlns:xlink="http://www.w3.org/1999/xlink" version="1.1" baseProfile="full">
    <defs>
        <linearGradient id="105553117732352140406912835808" x1="43.321438%" x2="58.398102%" y1="-2.711845%" y2="97.814507%">
            <stop offset="0%" style="stop-color:#000000;stop-opacity:0.842014"></stop>
            <stop offset="5%" style="stop-color:#000000;stop-opacity:0.939869"></stop>
            <stop offset="78%" style="stop-color:#000000;stop-opacity:0.911593"></stop>
            <stop offset="94%" style="stop-color:#000000;stop-opacity:0.972083"></stop>
            <stop offset="100%" style="stop-color:#000000;stop-opacity:0.755053"></stop>
        </linearGradient>
        <linearGradient id="105553117734672140406912844704" x1="46.651226%" x2="54.034954%" y1="-0.938662%" y2="99.330070%">
            <stop offset="0%" style="stop-color:#000000;stop-opacity:0.061676"></stop>
            <stop offset="36%" style="stop-color:#000000;stop-opacity:0.012715"></stop>
            <stop offset="94%" style="stop-color:#000000;stop-opacity:0.034938"></stop>
            <stop offset="100%" style="stop-color:#000000;stop-opacity:0.329847"></stop>
        </linearGradient>
        <linearGradient id="105553117769440140406912676736" x1="65.018311%" x2="30.688330%" y1="4.357469%" y2="94.259720%">
            <stop offset="0%" style="stop-color:#000000;stop-opacity:0.643573"></stop>
            <stop offset="5%" style="stop-color:#000000;stop-opacity:0.881723"></stop>
            <stop offset="10%" style="stop-color:#000000;stop-opacity:0.916659"></stop>
            <stop offset="68%" style="stop-color:#000000;stop-opacity:0.842014"></stop>
            <stop offset="94%" style="stop-color:#000000;stop-opacity:0.911593"></stop>
            <stop offset="100%" style="stop-color:#000000;stop-opacity:0.744706"></stop>
        </linearGradient>
        <linearGradient id="105553117762480140406912521952" x1="64.114868%" x2="26.450134%" y1="1.359781%" y2="100.440048%">
            <stop offset="0%" style="stop-color:#000000;stop-opacity:0.295985"></stop>
            <stop offset="11%" style="stop-color:#000000;stop-opacity:0.034938"></stop>
            <stop offset="33%" style="stop-color:#000000;stop-opacity:0.022440"></stop>
            <stop offset="88%" style="stop-color:#000000;stop-opacity:0.061676"></stop>
            <stop offset="100%" style="stop-color:#000000;stop-opacity:0.294989"></stop>
        </linearGradient>
        <linearGradient id="105553117672576140406912811248" x1="0.000000%" x2="98.387100%" y1="35.922215%" y2="35.922215%">
            <stop offset="0%" style="stop-color:#000000;stop-opacity:0.067647"></stop>
            <stop offset="85%" style="stop-color:#000000;stop-opacity:0.034938"></stop>
            <stop offset="100%" style="stop-color:#000000;stop-opacity:0.172549"></stop>
        </linearGradient>
        <linearGradient id="105553117669696140406912824256" x1="68.014343%" x2="35.253254%" y1="-9.947268%" y2="88.010544%">
            <stop offset="0%" style="stop-color:#000000;stop-opacity:0.112717"></stop>
            <stop offset="5%" style="stop-color:#000000;stop-opacity:0.012715"></stop>
            <stop offset="89%" style="stop-color:#000000;stop-opacity:0.012715"></stop>
            <stop offset="94%" style="stop-color:#000000;stop-opacity:0.022440"></stop>
            <stop offset="100%" style="stop-color:#000000;stop-opacity:0.180091"></stop>
        </linearGradient>
        <linearGradient id="105553117663136140406912824544" x1="5.884021%" x2="113.366348%" y1="12.435592%" y2="69.100655%">
            <stop offset="0%" style="stop-color:#000000;stop-opacity:0.311943"></stop>
            <stop offset="12%" style="stop-color:#000000;stop-opacity:0.061676"></stop>
            <stop offset="62%" style="stop-color:#000000;stop-opacity:0.097295"></stop>
            <stop offset="87%" style="stop-color:#000000;stop-opacity:0.186431"></stop>
            <stop offset="100%" style="stop-color:#000000;stop-opacity:0.043137"></stop>
        </linearGradient>
        <linearGradient id="105553117665696140406912809280" x1="4.167551%" x2="92.864944%" y1="-13.288484%" y2="110.896973%">
            <stop offset="0%" style="stop-color:#000000;stop-opacity:0.034938"></stop>
            <stop offset="10%" style="stop-color:#000000;stop-opacity:0.082646"></stop>
            <stop offset="100%" style="stop-color:#000000;stop-opacity:0.067647"></stop>
        </linearGradient>
        <linearGradient id="105553117666256140406912809568" x1="0.870252%" x2="97.662422%" y1="137.639145%" y2="-24.398457%">
            <stop offset="0%" style="stop-color:#000000;stop-opacity:0.911593"></stop>
            <stop offset="12%" style="stop-color:#000000;stop-opacity:0.978431"></stop>
            <stop offset="100%" style="stop-color:#000000;stop-opacity:0.972083"></stop>
        </linearGradient>
    </defs>
    <g transform="scale(1.000000,-1.000000) translate(0,-620)">
        <path d="M 1.000000 621.000000 L 621.000000 621.000000 L 621.000000 1.000000 L 1.000000 1.000000 L 1.000000 621.000000 Z M 189.000000 576.000000 C 184.455792 554.937115 154.088642 538.830563 142.199997 524.300003 C 126.764547 505.434447 131.505404 485.889862 128.000000 475.000000 C 119.049002 481.500907 107.109823 483.000000 98.500000 483.000000 C 93.695449 483.000000 88.650900 483.438394 83.900002 482.600006 C 80.826818 482.057674 78.294214 480.064738 75.400002 479.100006 C 35.747881 465.882627 29.558260 397.713913 62.299999 386.800003 C 66.731835 385.322722 71.897354 386.000000 76.500000 386.000000 C 108.901771 386.000000 87.311898 430.172026 132.000000 419.000000 C 150.178068 408.410966 153.000000 392.072693 153.000000 372.000000 C 140.001650 367.800660 130.280997 360.227259 135.000000 346.000000 L 141.000000 343.000000 C 144.055933 339.972034 146.622479 339.188761 151.000000 338.000000 C 151.000000 324.760006 145.138427 316.371124 137.000000 308.000000 C 128.976797 306.496133 121.465449 300.092732 115.000000 307.000000 C 111.142531 307.642959 109.608104 308.342909 108.000000 311.000000 C 93.450886 306.180354 103.852306 277.620840 113.900002 269.399994 C 119.341900 264.947536 124.625709 264.000000 131.500000 264.000000 C 155.482974 264.000000 148.723652 269.626783 162.000000 274.000000 C 169.710505 228.736968 222.000000 240.260154 222.000000 273.000000 C 224.372629 275.309892 226.554087 274.366758 229.000000 273.000000 C 239.386017 255.372722 293.467419 262.130325 281.000000 312.000000 C 272.309266 310.131592 267.856867 304.612796 260.500000 305.000000 C 248.411192 305.636253 229.530765 326.123061 233.000000 340.000000 C 245.779249 344.111700 250.372766 356.822175 242.699997 366.199997 C 240.739579 368.596070 237.647556 369.433389 235.000000 373.000000 L 231.000000 373.000000 C 228.350270 387.898377 233.065349 410.660127 249.000000 416.000000 C 255.484463 420.742232 260.957878 422.000000 267.500000 422.000000 C 290.517727 422.000000 276.551582 401.510687 300.899994 388.399994 C 305.259104 386.052790 310.345554 385.325686 315.299988 386.199997 C 349.741755 392.277957 345.064388 443.212128 337.000000 451.000000 C 333.578246 456.563930 332.704328 462.052196 328.000000 466.000000 C 324.868516 471.838661 318.900254 474.337278 315.000000 479.000000 C 298.270098 490.547426 271.150436 485.100290 256.000000 475.000000 C 256.000000 486.054260 256.640312 502.696786 249.000000 510.000000 C 240.376666 539.394669 199.776528 552.893889 194.000000 576.000000 L 189.000000 576.000000 Z M 379.000000 377.000000 C 376.104835 368.195547 373.070218 361.508820 367.000000 356.000000 C 365.834600 350.007599 359.320323 345.155283 356.000000 341.000000 C 353.655741 341.000000 353.000000 339.663772 353.000000 338.000000 C 344.843170 333.441951 338.890475 328.404166 333.000000 322.000000 C 321.054896 314.041172 308.660511 305.066406 304.000000 291.000000 C 291.533170 269.066340 289.000000 252.786743 289.000000 227.000000 C 282.159292 230.136283 274.016442 233.491779 267.000000 236.000000 C 258.008485 241.995757 223.584211 243.886185 216.000000 236.000000 L 201.000000 231.000000 C 191.827183 224.913591 177.440785 209.712159 174.000000 199.000000 C 170.056468 194.112936 167.624810 189.974431 166.100006 185.399994 C 163.366853 177.200560 161.784904 145.385545 163.300003 136.799988 C 164.232850 131.513850 166.658212 126.683575 169.000000 120.000000 L 184.000000 104.000000 C 191.891191 98.462554 201.346905 98.000000 208.500000 98.000000 C 249.248296 98.000000 244.775277 137.225226 255.500000 146.000000 C 260.581513 150.157601 268.346458 150.000000 274.500000 150.000000 C 286.624674 150.000000 296.570425 145.500878 306.000000 136.000000 L 311.000000 134.000000 C 313.291447 129.679408 315.780134 127.604632 317.000000 123.000000 C 320.024272 119.951456 321.910348 117.968956 322.799988 115.299988 C 324.366033 110.601902 327.650040 85.787610 326.000000 80.000000 L 310.000000 75.000000 C 300.844478 68.922239 297.000000 58.778270 297.000000 48.000000 L 298.000000 47.000000 L 307.000000 47.000000 C 307.000000 55.826391 309.943261 62.546371 315.799988 65.700012 C 335.178409 76.134528 428.862871 78.612196 445.500000 65.000000 C 450.334246 61.044708 450.803287 53.213149 449.000000 46.000000 L 460.000000 46.000000 C 463.842506 63.080649 452.865331 75.048970 438.000000 80.000000 C 438.000000 94.966967 437.585218 112.443977 443.700012 123.799988 C 453.498724 141.997631 472.189615 152.000000 492.500000 152.000000 C 497.191874 152.000000 502.873160 151.860985 507.000000 147.000000 C 509.725563 144.548873 511.682916 143.088870 512.700012 141.200012 C 514.269367 138.285461 513.869753 134.490740 514.900024 131.399994 C 521.640815 111.177555 533.624060 100.000000 555.500000 100.000000 C 561.034442 100.000000 569.065924 99.432684 574.000000 105.000000 C 579.788556 106.246424 582.513223 110.013223 585.000000 112.500000 C 607.418674 134.918674 605.241308 172.623285 591.200012 198.700012 C 588.406763 203.887440 587.061767 209.320954 582.000000 215.000000 C 575.950033 224.099933 558.439454 234.658381 548.000000 238.000000 C 538.242952 244.378524 517.698721 244.446833 507.799988 242.700012 C 505.209074 242.242778 502.640633 241.000000 498.000000 241.000000 C 494.314371 237.657186 489.985563 237.862367 487.000000 234.000000 L 474.000000 229.000000 C 472.765837 234.749322 474.906876 238.683114 474.700012 242.200012 C 473.534923 262.006313 469.785487 274.755524 460.500000 292.000000 C 458.880267 295.008076 457.859510 299.017702 454.000000 302.000000 C 449.297822 310.391039 441.093287 316.418374 435.000000 323.000000 L 420.000000 332.000000 C 412.447153 337.276424 395.335772 355.162138 391.600006 362.100006 C 389.592731 365.827785 387.555955 372.638539 384.000000 377.000000 L 379.000000 377.000000 Z M 322.000000 58.000000 L 320.000000 57.000000 C 320.886108 52.364456 322.921594 50.459469 325.200012 49.700012 C 333.810233 46.829922 398.342767 49.000000 412.500000 49.000000 C 417.488036 49.000000 438.000000 46.640063 438.000000 56.000000 L 437.000000 57.000000 L 322.000000 58.000000 Z" transform="scale(1.000000,1.000000) translate(-1.000000,-1.000000)" fill="#000000" opacity="0.003922"></path>
        <path d="M 3.000000 10.786295 L 118.000000 9.786295 L 119.000000 8.786295 C 119.000000 -0.573642 98.488036 1.786295 93.500000 1.786295 C 79.342767 1.786295 14.810233 -0.383782 6.200012 2.486308 C 3.921594 3.245764 1.886108 5.150751 1.000000 9.786295 L 3.000000 10.786295 Z" transform="scale(1.000000,1.000000) translate(318.000000,46.213705)" fill="#000000" opacity="0.978431"></path>
        <path d="M 217.288272 332.000000 L 222.288272 332.000000 C 225.844227 327.638539 227.881004 320.827785 229.888279 317.100006 C 233.624044 310.162138 250.735425 292.276424 258.288272 287.000000 L 273.288272 278.000000 C 279.381559 271.418374 287.586095 265.391039 292.288272 257.000000 C 296.147783 254.017702 297.168539 250.008076 298.788272 247.000000 C 308.073759 229.755524 311.823195 217.006313 312.988285 197.200012 C 313.195148 193.683114 311.054109 189.749322 312.288272 184.000000 L 325.288272 189.000000 C 328.273835 192.862367 332.602644 192.657186 336.288272 196.000000 C 340.928906 196.000000 343.497346 197.242778 346.088260 197.700012 C 355.986994 199.446833 376.531224 199.378524 386.288272 193.000000 C 396.727726 189.658381 414.238306 179.099933 420.288272 170.000000 C 425.350040 164.320954 426.695035 158.887440 429.488285 153.700012 C 443.529580 127.623285 445.706946 89.918674 423.288272 67.500000 C 420.801495 65.013223 418.076828 61.246424 412.288272 60.000000 C 407.354197 54.432684 399.322715 55.000000 393.788272 55.000000 C 371.912332 55.000000 359.929087 66.177555 353.188297 86.399994 C 352.158026 89.490740 352.557640 93.285461 350.988285 96.200012 C 349.971189 98.088870 348.013836 99.548873 345.288272 102.000000 C 341.161433 106.860985 335.480147 107.000000 330.788272 107.000000 C 310.477888 107.000000 291.786997 96.997631 281.988285 78.799988 C 275.873491 67.443977 276.288272 49.966967 276.288272 35.000000 C 291.153604 30.048970 302.130778 18.080649 298.288272 1.000000 L 287.288272 1.000000 C 289.091560 8.213149 288.622519 16.044708 283.788272 20.000000 C 267.151144 33.612196 173.466681 31.134528 154.088260 20.700012 C 148.231533 17.546371 145.288272 10.826391 145.288272 2.000000 L 136.288272 2.000000 L 135.288272 3.000000 C 135.288272 13.778270 139.132750 23.922239 148.288272 30.000000 L 164.288272 35.000000 C 165.938313 40.787610 162.654305 65.601902 161.088260 70.299988 C 160.198621 72.968956 158.312545 74.951456 155.288272 78.000000 C 154.068406 82.604632 151.579720 84.679408 149.288272 89.000000 L 144.288272 91.000000 C 134.858698 100.500878 124.912947 105.000000 112.788272 105.000000 C 106.634730 105.000000 98.869785 105.157601 93.788272 101.000000 C 83.063549 92.225226 87.536568 53.000000 46.788272 53.000000 C 39.635177 53.000000 30.179464 53.462554 22.288272 59.000000 L 7.288272 75.000000 C 4.946485 81.683575 2.521122 86.513850 1.588276 91.799988 C 0.073176 100.385545 1.655126 132.200560 4.388279 140.399994 C 5.913083 144.974431 8.344740 149.112936 12.288272 154.000000 C 15.729058 164.712159 30.115455 179.913591 39.288272 186.000000 L 54.288272 191.000000 C 61.872484 198.886185 96.296758 196.995757 105.288272 191.000000 C 112.304714 188.491779 120.447564 185.136283 127.288272 182.000000 C 127.288272 207.786743 129.821442 224.066340 142.288272 246.000000 C 146.948784 260.066406 159.343168 269.041172 171.288272 277.000000 C 177.178748 283.404166 183.131443 288.441951 191.288272 293.000000 C 191.288272 294.663772 191.944013 296.000000 194.288272 296.000000 C 197.608596 300.155283 204.122872 305.007599 205.288272 311.000000 C 211.358490 316.508820 214.393107 323.195547 217.288272 332.000000 Z M 219.288272 308.000000 L 207.288272 293.000000 L 194.288272 284.000000 C 191.644071 281.177899 190.238404 278.981866 186.288272 278.000000 L 181.288272 271.000000 C 177.509144 269.135921 175.412913 268.109060 173.288272 265.000000 C 167.883506 261.946425 161.798202 258.039718 160.288272 252.000000 C 154.839210 249.108269 153.586236 243.483387 149.288272 240.000000 C 143.435172 232.497181 145.830290 221.048020 139.288272 215.000000 C 139.288272 203.845750 137.827811 195.248762 138.288272 186.500000 C 138.731374 178.081067 142.288272 170.619857 142.288272 160.000000 C 133.406399 154.995770 129.041982 164.519693 124.788272 168.000000 C 121.211902 170.926121 117.155079 173.366544 113.288272 178.000000 C 103.236571 185.501547 68.951048 186.720925 59.288272 183.500000 C 41.591349 177.601026 14.288272 152.178947 14.288272 130.000000 C 7.021685 118.466824 5.705724 64.000000 45.788272 64.000000 C 53.135410 64.000000 59.825561 65.303236 65.688266 70.100006 C 69.688414 73.372843 69.581262 79.049131 74.288272 83.000000 C 81.080958 106.536594 89.815267 116.000000 112.788272 116.000000 C 117.743243 116.000000 124.868345 116.117436 129.288272 111.000000 C 141.512678 107.110238 151.816820 99.253088 160.288272 91.000000 C 164.526896 84.537514 165.045693 77.562948 170.288272 73.000000 C 174.176781 60.778728 174.288272 50.311694 174.288272 38.000000 L 178.288272 38.000000 L 179.288272 39.000000 C 179.288272 48.996107 177.736997 74.058600 171.288272 80.000000 C 169.979477 85.771988 170.226074 89.472653 168.488285 92.700012 C 164.854508 99.448419 162.089833 107.409204 157.188266 113.399994 C 140.271859 134.075617 120.701473 143.545911 93.288272 140.500000 C 82.620591 139.314702 72.536427 137.975763 63.888279 130.899994 C 53.055305 122.036663 59.233329 98.576924 54.288272 93.000000 L 45.288272 95.000000 C 45.288272 105.486981 44.032155 114.531646 46.588276 122.200012 C 59.967994 162.339164 123.276259 157.237102 150.088260 135.299988 C 154.492162 131.696817 161.387937 127.601341 163.288272 120.000000 C 167.778512 114.019521 171.942665 109.284700 174.788272 104.000000 C 183.792396 87.278056 190.288272 59.848728 190.288272 39.000000 L 191.288272 38.000000 C 198.068666 38.000000 213.176827 36.578744 215.288272 40.500000 C 219.538928 48.394075 217.776366 70.226229 217.288272 79.500000 C 217.090516 83.257365 215.486029 86.742635 215.288272 90.500000 C 213.248556 129.254621 215.288272 168.684035 215.288272 207.500000 C 215.288272 215.029005 212.797985 259.802775 218.388279 261.399994 C 220.549637 262.017533 222.948420 261.119558 223.688266 258.899994 C 226.702975 249.855892 223.767851 234.388001 224.288272 224.500000 C 224.522106 220.057154 226.288272 216.003123 226.288272 211.500000 C 226.288272 165.500000 226.288272 119.500000 226.288272 73.500000 C 226.288272 55.808988 221.408160 38.000000 236.788272 38.000000 C 239.643390 38.000000 243.264611 37.487259 245.888279 38.900024 C 251.241530 41.782523 248.558392 52.697343 249.388279 57.400024 C 250.331713 62.746164 252.177573 67.503705 252.788272 73.000000 C 254.351304 87.067286 270.252585 121.093774 281.288272 132.000000 C 284.812715 133.707349 286.397346 135.095440 288.288272 138.000000 C 295.960579 142.259881 302.440890 146.617539 308.988285 148.799988 C 322.401963 153.271230 347.621989 155.788761 361.088260 151.299988 C 365.179747 149.936175 377.012606 143.818917 380.288272 143.000000 C 383.403777 137.187306 387.414381 134.403201 389.288272 128.000000 C 394.190428 121.195689 398.385840 96.424696 388.588260 95.200012 C 378.367781 93.922439 386.891938 112.378906 377.888248 129.100006 C 372.152983 139.751252 346.698676 143.574232 335.788272 143.000000 C 324.162245 142.388104 307.244800 139.373523 297.988285 131.799988 C 277.252481 114.834353 265.788042 88.665361 261.188266 62.599976 C 259.937737 55.513633 257.079499 46.835093 259.288272 38.000000 L 264.288272 38.000000 C 264.288272 111.280549 332.653649 132.296712 354.288272 109.000000 C 369.525422 83.489632 364.043085 66.000000 395.788272 66.000000 C 402.050766 66.000000 411.366190 68.660477 417.288272 74.000000 C 419.651476 78.590205 425.992871 90.805255 428.288272 92.000000 C 428.288272 100.896677 430.283236 127.720041 425.288272 132.000000 C 423.414943 139.183324 423.112508 144.397848 420.688297 148.899994 C 406.402539 175.430649 378.879765 191.898499 348.288272 186.500000 C 341.131514 185.237043 334.735172 182.111725 326.288272 180.000000 C 319.122149 174.916938 307.242779 159.189099 301.188266 160.399994 C 300.188956 160.599863 299.249383 160.991976 298.588260 161.799988 C 292.954051 168.686271 309.070598 194.007908 293.388279 230.600006 C 291.571526 234.839075 289.966547 240.081972 285.288272 244.000000 L 278.288272 257.000000 C 273.728979 259.344181 272.034856 262.346740 269.288272 266.000000 L 252.288272 277.000000 L 219.288272 308.000000 Z" transform="scale(1.000000,1.000000) translate(160.711728,44.000000)" fill="url(#105553117732352140406912835808)" opacity="1.000000"></path>
        <path d="M 209.987618 271.251015 L 242.987618 240.251015 L 259.987618 229.251015 C 262.734201 225.597754 264.428325 222.595195 268.987618 220.251015 L 275.987618 207.251015 C 280.665892 203.332987 282.270872 198.090090 284.087624 193.851021 C 299.769943 157.258923 283.653396 131.937285 289.287606 125.051003 C 289.948729 124.242991 290.888301 123.850878 291.887612 123.651009 C 297.942125 122.440113 309.821495 138.167953 316.987618 143.251015 C 325.434518 145.362740 331.830860 148.488057 338.987618 149.751015 C 369.579110 155.149513 397.101884 138.681664 411.387642 112.151009 C 413.811853 107.648863 414.114288 102.434339 415.987618 95.251015 C 420.982582 90.971056 418.987618 64.147692 418.987618 55.251015 C 416.692216 54.056270 410.350821 41.841220 407.987618 37.251015 C 402.065535 31.911492 392.750111 29.251015 386.487618 29.251015 C 354.742431 29.251015 360.224767 46.740647 344.987618 72.251015 C 323.352995 95.547727 254.987618 74.531564 254.987618 1.251015 L 249.987618 1.251015 C 247.778845 10.086108 250.637083 18.764647 251.887612 25.850990 C 256.487387 51.916376 267.951827 78.085368 288.687630 95.051003 C 297.944146 102.624538 314.861590 105.639119 326.487618 106.251015 C 337.398022 106.825247 362.852328 103.002267 368.587594 92.351021 C 377.591284 75.629921 369.067127 57.173453 379.287606 58.451027 C 389.085185 59.675711 384.889773 84.446704 379.987618 91.251015 C 378.113727 97.654216 374.103122 100.438321 370.987618 106.251015 C 367.711952 107.069931 355.879093 113.187190 351.787606 114.551003 C 338.321334 119.039776 313.101308 116.522245 299.687630 112.051003 C 293.140235 109.868554 286.659925 105.510896 278.987618 101.251015 C 277.096692 98.346455 275.512061 96.958364 271.987618 95.251015 C 260.951931 84.344789 245.050650 50.318301 243.487618 36.251015 C 242.876918 30.754719 241.031059 25.997179 240.087624 20.651039 C 239.257737 15.948358 241.940876 5.033538 236.587624 2.151039 C 233.963956 0.738274 230.342736 1.251015 227.487618 1.251015 C 212.107505 1.251015 216.987618 19.060003 216.987618 36.751015 C 216.987618 82.751015 216.987618 128.751015 216.987618 174.751015 C 216.987618 179.254138 215.221452 183.308169 214.987618 187.751015 C 214.467197 197.639016 217.402320 213.106907 214.387612 222.151009 C 213.647765 224.370573 211.248982 225.268547 209.087624 224.651009 C 203.497330 223.053790 205.987618 178.280020 205.987618 170.751015 C 205.987618 131.935049 203.947901 92.505635 205.987618 53.751015 C 206.185374 49.993650 207.789862 46.508380 207.987618 42.751015 C 208.475711 33.477243 210.238273 11.645089 205.987618 3.751015 C 203.876173 -0.170241 188.768012 1.251015 181.987618 1.251015 L 180.987618 2.251015 C 180.987618 23.099743 174.491741 50.529071 165.487618 67.251015 C 162.642010 72.535715 158.477857 77.270536 153.987618 83.251015 C 152.087283 90.852355 145.191508 94.947832 140.787606 98.551003 C 113.975604 120.488117 50.667339 125.590179 37.287621 85.451027 C 34.731500 77.782661 35.987618 68.737996 35.987618 58.251015 L 44.987618 56.251015 C 49.932674 61.827939 43.754650 85.287678 54.587624 94.151009 C 63.235772 101.226777 73.319936 102.565717 83.987618 103.751015 C 111.400818 106.796926 130.971204 97.326632 147.887612 76.651009 C 152.789178 70.660219 155.553854 62.699434 159.187630 55.951027 C 160.925420 52.723668 160.678823 49.023003 161.987618 43.251015 C 168.436343 37.309615 169.987618 12.247122 169.987618 2.251015 L 168.987618 1.251015 L 164.987618 1.251015 C 164.987618 13.562709 164.876127 24.029743 160.987618 36.251015 C 155.745039 40.813963 155.226242 47.788529 150.987618 54.251015 C 142.516166 62.504103 132.212023 70.361253 119.987618 74.251015 C 115.567691 79.368451 108.442588 79.251015 103.487618 79.251015 C 80.514612 79.251015 71.780304 69.787609 64.987618 46.251015 C 60.280607 42.300145 60.387760 36.623858 56.387612 33.351021 C 50.524907 28.554251 43.834755 27.251015 36.487618 27.251015 C -3.594930 27.251015 -2.278970 81.717839 4.987618 93.251015 C 4.987618 115.429962 32.290695 140.852040 49.987618 146.751015 C 59.650394 149.971940 93.935916 148.752562 103.987618 141.251015 C 107.854424 136.617559 111.911248 134.177136 115.487618 131.251015 C 119.741327 127.770707 124.105745 118.246785 132.987618 123.251015 C 132.987618 133.870872 129.430720 141.332082 128.987618 149.751015 C 128.527157 158.499777 129.987618 167.096765 129.987618 178.251015 C 136.529635 184.299035 134.134517 195.748196 139.987618 203.251015 C 144.285582 206.734402 145.538555 212.359284 150.987618 215.251015 C 152.497547 221.290733 158.582852 225.197440 163.987618 228.251015 C 166.112258 231.360075 168.208489 232.386936 171.987618 234.251015 L 176.987618 241.251015 C 180.937749 242.232881 182.343416 244.428914 184.987618 247.251015 L 197.987618 256.251015 L 209.987618 271.251015 Z" transform="scale(1.000000,1.000000) translate(170.012382,80.748985)" fill="url(#105553117734672140406912844704)" opacity="1.000000"></path>
        <path d="M 148.777948 332.882838 L 153.777948 332.882838 C 159.554476 309.776727 200.154614 296.277507 208.777948 266.882838 C 216.418261 259.579624 215.777948 242.937098 215.777948 231.882838 C 230.928384 241.983128 258.048047 247.430264 274.777948 235.882838 C 278.678203 231.220116 284.646465 228.721499 287.777948 222.882838 C 292.482277 218.935034 293.356194 213.446768 296.777948 207.882838 C 304.842337 200.094966 309.519703 149.160795 275.077936 143.082835 C 270.123503 142.208524 265.037052 142.935628 260.677942 145.282832 C 236.329530 158.393525 250.295676 178.882838 227.277948 178.882838 C 220.735826 178.882838 215.262412 177.625070 208.777948 172.882838 C 192.843298 167.542965 188.128219 144.781215 190.777948 129.882838 L 194.777948 129.882838 C 197.425504 126.316227 200.517528 125.478908 202.477945 123.082835 C 210.150715 113.705013 205.557198 100.994538 192.777948 96.882838 C 189.308714 83.005899 208.189140 62.519091 220.277948 61.882838 C 227.634816 61.495635 232.087214 67.014430 240.777948 68.882838 C 253.245367 19.013163 199.163966 12.255560 188.777948 29.882838 C 186.332035 31.249596 184.150577 32.192730 181.777948 29.882838 C 181.777948 -2.857008 129.488454 -14.380194 121.777948 30.882838 C 108.501601 26.509621 115.260922 20.882838 91.277948 20.882838 C 84.403657 20.882838 79.119849 21.830374 73.677950 26.282832 C 63.630255 34.503678 53.228834 63.063192 67.777948 67.882838 C 69.386053 65.225747 70.920479 64.525797 74.777948 63.882838 C 81.243397 56.975570 88.754745 63.378971 96.777948 64.882838 C 104.916376 73.253962 110.777948 81.642844 110.777948 94.882838 C 106.400427 96.071599 103.833881 96.854872 100.777948 99.882838 L 94.777948 102.882838 C 90.058945 117.110097 99.779599 124.683498 112.777948 128.882838 C 112.777948 148.955531 109.956016 165.293804 91.777948 175.882838 C 47.089846 187.054864 68.679719 142.882838 36.277948 142.882838 C 31.675303 142.882838 26.509783 142.205560 22.077948 143.682841 C -10.663792 154.596751 -4.474171 222.765465 35.177950 235.982844 C 38.072162 236.947576 40.604767 238.940512 43.677950 239.482844 C 48.428848 240.321232 53.473398 239.882838 58.277948 239.882838 C 66.887772 239.882838 78.826951 238.383745 87.777948 231.882838 C 91.283353 242.772700 86.542496 262.317285 101.977945 281.182841 C 113.866591 295.713401 144.233740 311.819953 148.777948 332.882838 Z M 151.777948 316.882838 C 147.965430 313.998211 145.937836 311.065567 142.777948 308.882838 C 139.613914 302.991281 134.390915 301.726228 129.777948 297.882838 C 111.969351 287.478539 96.778697 263.397055 95.777948 244.382838 C 95.299387 235.290169 97.777948 226.893579 97.777948 215.882838 L 96.777948 214.882838 L 91.777948 214.882838 L 91.777948 217.882838 C 85.127318 221.513995 81.706933 226.421077 76.577952 229.182841 C 65.096151 235.365344 36.628785 234.855222 25.777948 223.882838 C 23.912274 220.101117 21.839095 218.952719 18.777948 216.882838 C 17.678131 211.283935 8.612741 200.243889 7.777948 184.382838 C 6.192175 154.253139 30.473865 140.952224 46.277948 153.882838 C 49.983328 156.914512 49.354985 162.256594 53.777948 165.882838 C 62.723090 204.649688 120.777948 181.950767 120.777948 131.882838 L 123.777948 131.882838 L 124.777948 132.882838 C 124.777948 153.688280 115.255842 176.908102 101.777948 190.882838 C 99.126249 193.708688 97.729949 196.177915 95.677942 197.282832 C 85.538088 202.742763 71.805492 204.681816 60.477945 202.682841 C 55.853343 201.866731 51.817270 199.392668 45.777948 197.882838 C 45.777948 195.538579 44.441720 194.882838 42.777948 194.882838 C 38.832482 188.288883 38.795580 172.252886 33.777948 170.882838 L 32.777948 171.882838 C 32.777948 179.625166 31.999208 185.446616 33.677950 190.482844 C 42.670760 217.461271 91.238102 213.928377 111.777948 191.882838 C 122.662803 173.444949 131.777948 155.172865 131.777948 132.882838 C 137.833770 131.706868 143.032453 131.248112 148.777948 132.882838 C 148.777948 173.049505 148.777948 210.716171 148.777948 248.382838 C 148.777948 253.295892 147.550417 282.436463 152.777948 283.882838 L 153.777948 282.882838 C 153.777948 275.247105 155.509986 270.474121 155.777948 265.382838 C 156.736562 247.169174 153.161073 141.957035 157.077952 134.682841 C 158.093648 132.796539 160.421774 132.200191 162.377955 131.982844 C 165.209207 131.668254 168.944042 131.919175 170.877955 134.282832 C 174.035348 138.141882 172.537134 144.807372 172.777948 149.382838 C 173.150238 156.456343 178.777948 164.556964 178.777948 172.882838 C 192.556054 197.439049 205.055725 209.882838 233.277948 209.882838 C 239.063718 209.882838 245.809867 210.838865 251.377955 208.982844 C 264.093556 204.744302 274.984076 189.449688 269.777948 173.882838 L 268.777948 172.882838 L 264.777948 172.882838 C 263.038604 181.025053 264.208526 187.154623 261.177942 192.782832 C 251.498061 210.759772 213.455395 207.085634 199.777948 192.882838 C 197.590867 188.508675 194.635794 186.690265 193.177942 183.982844 C 184.702207 168.242175 179.777948 151.915341 179.777948 131.882838 L 183.777948 131.882838 C 183.777948 147.255728 185.441680 159.971844 193.877955 170.282832 C 195.345792 172.076869 197.743711 172.843709 200.777948 174.882838 C 203.865445 177.926586 207.270054 180.438430 209.777948 183.882838 C 252.292472 196.606127 248.030685 163.036694 254.777948 155.882838 C 263.231018 151.142488 269.937673 149.169413 277.477961 151.682841 C 309.715804 162.428790 295.605919 222.173515 262.577936 233.182841 C 231.165783 243.653560 215.347380 216.882838 205.777948 216.882838 L 204.777948 217.882838 C 204.777948 224.877402 206.544423 228.945845 206.777948 233.382838 C 208.540363 266.868716 196.156628 279.345737 172.277948 298.882838 C 166.119722 303.921387 159.150199 311.968005 151.777948 316.882838 Z M 144.777948 126.882838 C 129.158635 123.112952 101.777948 128.218148 101.777948 105.882838 C 108.165774 102.413407 113.284652 101.116949 118.577952 100.182826 C 134.525823 97.368507 152.466006 100.322042 168.377955 101.382838 C 176.075951 101.896038 199.077948 100.464945 199.077952 112.282832 C 199.077948 116.168777 195.972825 119.837321 192.777948 123.882838 L 144.777948 126.882838 Z M 139.777948 92.882838 C 137.849373 68.311323 130.158985 48.622534 129.777948 41.382838 C 128.973572 26.099688 136.245812 3.583049 156.077952 7.082850 C 159.063177 7.609643 161.232574 9.684520 165.777948 10.882838 C 185.380442 43.486890 164.777948 53.341948 164.777948 91.882838 L 157.777948 90.882838 L 157.777948 13.882838 L 151.777948 12.882838 C 147.937812 19.873060 149.777948 79.289923 149.777948 91.882838 L 148.777948 92.882838 L 139.777948 92.882838 Z M 179.777948 92.882838 C 179.777948 75.903809 192.267941 56.888226 203.977945 50.582850 C 204.935761 50.067093 220.612986 45.924079 224.777948 44.882838 C 219.303158 35.236304 197.959317 44.246988 191.777948 49.882838 C 189.026845 55.103381 185.201342 57.310822 183.277948 60.882838 C 181.136312 64.860162 179.241606 71.210087 174.777948 74.882838 L 174.777948 78.882838 L 173.777948 78.882838 C 173.777948 59.109133 180.521141 43.732544 193.777948 30.882838 C 204.331759 22.924828 235.777948 26.809461 235.777948 57.882838 C 229.439395 56.567884 226.023981 54.082838 221.477961 54.082850 C 203.237203 54.082838 184.777948 80.016935 184.777948 91.882838 L 183.777948 92.882838 L 179.777948 92.882838 Z M 118.777948 90.882838 C 110.461776 75.619057 110.613344 65.524974 95.677942 57.482844 C 86.441394 52.509309 71.211135 59.330185 69.677950 56.482844 C 60.414737 39.279731 84.575862 26.758940 98.877955 29.282832 C 124.482038 33.801207 130.777948 66.503903 130.777948 89.882838 L 129.777948 89.882838 C 123.521718 80.207864 125.418988 67.318748 113.777948 55.882838 C 101.532812 48.808908 95.536602 40.943175 79.777948 44.882838 L 79.777948 48.882838 L 80.777948 49.882838 C 106.723523 49.882838 128.359834 81.360684 118.777948 90.882838 Z" transform="scale(1.000000,1.000000) translate(39.222052,242.117162)" fill="url(#105553117769440140406912676736)" opacity="1.000000"></path>
        <path d="M 11.059540 87.163922 L 20.059540 87.163922 L 21.059540 86.163922 C 21.059540 73.571007 19.219404 14.154144 23.059540 7.163922 L 29.059540 8.163922 L 29.059540 85.163922 L 36.059540 86.163922 C 36.059540 47.623032 56.662034 37.767974 37.059540 5.163922 C 32.514166 3.965604 30.344769 1.890727 27.359543 1.363934 C 7.527404 -2.135866 0.255164 20.380772 1.059540 35.663922 C 1.440577 42.903618 9.130965 62.592407 11.059540 87.163922 Z" transform="scale(1.000000,1.000000) translate(167.940460,247.836078)" fill="url(#105553117762480140406912521952)" opacity="1.000000"></path>
        <path d="M 7.000000 66.563163 L 11.000000 66.563163 L 12.000000 65.563163 C 12.000000 53.697261 30.459255 27.763163 48.700012 27.763175 C 53.246033 27.763163 56.661447 30.248210 63.000000 31.563163 C 63.000000 0.489786 31.553811 -3.394847 21.000000 4.563163 C 7.743193 17.412869 1.000000 32.789458 1.000000 52.563163 L 2.000000 52.563163 L 2.000000 48.563163 C 6.463658 44.890412 8.358364 38.540487 10.500000 34.563163 C 12.423393 30.991147 16.248897 28.783706 19.000000 23.563163 C 25.181369 17.927314 46.525210 8.916629 52.000000 18.563163 C 47.835038 19.604404 32.157812 23.747418 31.199997 24.263175 C 19.489993 30.568552 7.000000 49.584134 7.000000 66.563163 Z" transform="scale(1.000000,1.000000) translate(212.000000,268.436837)" fill="url(#105553117672576140406912811248)" opacity="1.000000"></path>
        <path d="M 145.073931 186.060940 C 152.446181 181.146106 159.415705 173.099489 165.573931 168.060940 C 189.452611 148.523838 201.836346 136.046818 200.073931 102.560940 C 199.840405 98.123947 198.073931 94.055504 198.073931 87.060940 L 199.073931 86.060940 C 208.643362 86.060940 224.461766 112.831662 255.873919 102.360943 C 288.901901 91.351616 303.011787 31.606892 270.773943 20.860943 C 263.233656 18.347515 256.527000 20.320589 248.073931 25.060940 C 241.326667 32.214795 245.588455 65.784229 203.073931 53.060940 C 200.566036 49.616532 197.161428 47.104688 194.073931 44.060940 C 191.039693 42.021811 188.641774 41.254970 187.173937 39.460934 C 178.737663 29.149946 177.073931 16.433829 177.073931 1.060940 L 173.073931 1.060940 C 173.073931 21.093443 177.998190 37.420277 186.473925 53.160946 C 187.931776 55.868367 190.886850 57.686777 193.073931 62.060940 C 206.751377 76.263736 244.794044 79.937873 254.473925 61.960934 C 257.504508 56.332725 256.334586 50.203155 258.073931 42.060940 L 262.073931 42.060940 L 263.073931 43.060940 C 268.280058 58.627789 257.389539 73.922404 244.673937 78.160946 C 239.105850 80.016967 232.359700 79.060940 226.573931 79.060940 C 198.351708 79.060940 185.852037 66.617151 172.073931 42.060940 C 172.073931 33.735066 166.446221 25.634445 166.073931 18.560940 C 165.833117 13.985474 167.331331 7.319984 164.173937 3.460934 C 162.240025 1.097276 158.505190 0.846356 155.673937 1.160946 C 153.717756 1.378293 151.389630 1.974641 150.373934 3.860943 C 146.457056 11.135136 150.032545 116.347276 149.073931 134.560940 C 148.805969 139.652223 147.073931 144.425206 147.073931 152.060940 L 146.073931 153.060940 C 140.846400 151.614565 142.073931 122.473994 142.073931 117.560940 C 142.073931 79.894273 142.073931 42.227607 142.073931 2.060940 C 136.328436 0.426214 131.129753 0.884970 125.073931 2.060940 C 125.073931 24.350967 115.958786 42.623051 105.073931 61.060940 C 84.534085 83.106479 35.966742 86.639373 26.973933 59.660946 C 25.295190 54.624718 26.073931 48.803268 26.073931 41.060940 L 27.073931 40.060940 C 32.091563 41.430988 32.128465 57.466985 36.073931 64.060940 C 37.737703 64.060940 39.073931 64.716681 39.073931 67.060940 C 45.113252 68.570770 49.149326 71.044833 53.773928 71.860943 C 65.101475 73.859918 78.834071 71.920865 88.973925 66.460934 C 91.025931 65.356017 92.422231 62.886790 95.073931 60.060940 C 108.551825 46.086204 118.073931 22.866382 118.073931 2.060940 L 117.073931 1.060940 L 114.073931 1.060940 C 114.073931 51.128869 56.019072 73.827790 47.073931 35.060940 C 42.650967 31.434695 43.279311 26.092614 39.573931 23.060940 C 23.769847 10.130326 -0.511843 23.431241 1.073931 53.560940 C 1.908723 69.421991 10.974114 80.462037 12.073931 86.060940 C 15.135077 88.130821 17.208257 89.279219 19.073931 93.060940 C 29.924767 104.033324 58.392134 104.543446 69.873934 98.360943 C 75.002915 95.599179 78.423301 90.692097 85.073931 87.060940 L 85.073931 84.060940 L 90.073931 84.060940 L 91.073931 85.060940 C 91.073931 96.071681 88.595370 104.468271 89.073931 113.560940 C 90.074679 132.575157 105.265334 156.656641 123.073931 167.060940 C 127.686898 170.904330 132.909896 172.169383 136.073931 178.060940 C 139.233819 180.243668 141.261412 183.176313 145.073931 186.060940 Z" transform="scale(1.000000,1.000000) translate(45.926069,372.939060)" fill="url(#105553117669696140406912824256)" opacity="1.000000"></path>
        <path d="M 52.159611 62.923958 C 61.741496 53.401804 40.105185 21.923958 14.159611 21.923958 L 13.159611 20.923958 L 13.159611 16.923958 C 28.918265 12.984295 34.914475 20.850028 47.159611 27.923958 C 58.800651 39.359868 56.903381 52.248985 63.159611 61.923958 L 64.159611 61.923958 C 64.159611 38.545023 57.863700 5.842327 32.259617 1.323952 C 17.957525 -1.199939 -6.203600 11.320852 3.059613 28.523965 C 4.592798 31.371305 19.823056 24.550429 29.059605 29.523965 C 43.995006 37.566094 43.843438 47.660178 52.159611 62.923958 Z" transform="scale(1.000000,1.000000) translate(105.840389,270.076042)" fill="url(#105553117663136140406912824544)" opacity="1.000000"></path>
        <path d="M 44.000000 28.882817 L 92.000000 25.882817 C 95.194877 21.837300 98.300000 18.168756 98.300003 14.282811 C 98.300000 2.464924 75.298003 3.896017 67.600006 3.382817 C 51.688058 2.322021 33.747874 -0.631514 17.800003 2.182805 C 12.506704 3.116928 7.387826 4.413386 1.000000 7.882817 C 1.000000 30.218127 28.380686 25.112932 44.000000 28.882817 Z M 13.000000 16.882817 L 9.000000 14.882817 L 9.000000 10.882817 C 26.900433 6.847421 66.852865 11.882817 87.000000 11.882817 L 88.000000 12.882817 L 88.000000 16.882817 L 13.000000 16.882817 Z" transform="scale(1.000000,1.000000) translate(140.000000,340.117183)" fill="url(#105553117665696140406912809280)" opacity="1.000000"></path>
        <path d="M 5.000000 8.566502 L 80.000000 8.566502 L 80.000000 4.566502 L 79.000000 3.566502 C 58.852865 3.566502 18.900433 -1.468894 1.000000 2.566502 L 1.000000 6.566502 L 5.000000 8.566502 Z" transform="scale(1.000000,1.000000) translate(148.000000,348.433498)" fill="url(#105553117666256140406912809568)" opacity="1.000000"></path>
    </g>
</svg>